SplineFontDB: 3.0
FontName: Nosifer-Caps
FullName: Nosifer-Caps
FamilyName: Nosifer-Caps
Weight: Book
Copyright: Copyright (c) 2011 by Typomondo. All rights reserved.
Version: 1.000
ItalicAngle: 0
UnderlinePosition: -103
UnderlineWidth: 102
Ascent: 1638
Descent: 410
sfntRevision: 0x00010000
LayerCount: 2
Layer: 0 0 "Back"  1
Layer: 1 0 "Fore"  0
NeedsXUIDChange: 1
XUID: [1021 14 500265001 12889511]
FSType: 0
OS2Version: 3
OS2_WeightWidthSlopeOnly: 0
OS2_UseTypoMetrics: 1
CreationTime: 1319191616
ModificationTime: 1319272486
PfmFamily: 17
TTFWeight: 400
TTFWidth: 5
LineGap: 0
VLineGap: 0
Panose: 2 0 0 0 0 0 0 0 0 0
OS2TypoAscent: 598
OS2TypoAOffset: 1
OS2TypoDescent: -725
OS2TypoDOffset: 1
OS2TypoLinegap: 0
OS2WinAscent: 0
OS2WinAOffset: 1
OS2WinDescent: 0
OS2WinDOffset: 1
HheadAscent: 0
HheadAOffset: 1
HheadDescent: 0
HheadDOffset: 1
OS2SubXSize: 1331
OS2SubYSize: 1228
OS2SubXOff: 0
OS2SubYOff: 153
OS2SupXSize: 1331
OS2SupYSize: 1228
OS2SupXOff: 0
OS2SupYOff: 716
OS2StrikeYSize: 102
OS2StrikeYPos: 1047
OS2Vendor: 'typm'
OS2CodePages: 00000001.00000000
OS2UnicodeRanges: 00000003.00000000.00000000.00000000
Lookup: 4 0 1 "'liga' Standard Ligatures in Latin lookup 0"  {"'liga' Standard Ligatures in Latin lookup 0 subtable"  } ['liga' ('DFLT' <'dflt' > 'latn' <'dflt' > ) ]
Lookup: 258 0 0 "'kern' Horizontal Kerning in Latin lookup 0"  {"'kern' Horizontal Kerning in Latin lookup 0 subtable"  } ['kern' ('DFLT' <'dflt' > 'latn' <'dflt' > ) ]
MarkAttachClasses: 1
DEI: 91125
KernClass2: 3 6 "'kern' Horizontal Kerning in Latin lookup 0 subtable" 
 3 T t
 3 A a
 11 C G O c g o
 3 Q q
 7 V W v w
 3 T t
 3 A a
 0 {} 0 {} 0 {} 0 {} 0 {} 0 {} 0 {} -52 {} 0 {} 0 {} 0 {} -205 {} 0 {} 0 {} 0 {} -191 {} -183 {} 0 {}
MacFeat: 0 0 0
MacName: 0 0 24 "All Typographic Features"
MacName: 0 1 24 "Fonctions typographiques"
MacName: 0 2 32 "Alle typografischen Mglichkeiten"
MacName: 0 3 21 "Funzioni Tipografiche"
MacName: 0 4 28 "Alle typografische kenmerken"
MacSetting: 0

StartChar: exclam
Encoding: 33 33 5
Width: 711
GlyphClass: 2
Flags: HW
LayerCount: 2
Fore
SplineSet
429 0 m 2
 286 0 l 2
 227.333333333 0 192.333333333 2.33333333333 181 7 c 128
 169.666666667 11.6666666667 164 28.6666666667 164 58 c 2
 164 292 l 2
 164 321.333333333 169.5 338.166666667 180.5 342.5 c 128
 191.5 346.833333333 226.666666667 349 286 349 c 2
 429 349 l 2
 488.333333333 349 523.666666667 346.833333333 535 342.5 c 128
 546.333333333 338.166666667 552 321.333333333 552 292 c 2
 552 58 l 2
 552 29.3333333333 546 12.5 534 7.5 c 128
 522 2.5 487 0 429 0 c 2
623 1352 m 1
 602.101390563 1331.10139056 584 1292.39246763 584 1252 c 1
 462 580 l 2
 456 546.666666667 469 514 501 482 c 1
 481 461 l 1
 455 487 421.666666667 500 381 500 c 2
 341 500 l 2
 301 500 268 487 242 461 c 1
 221 482 l 1
 253.666666667 514.666666667 266.666666667 547.333333333 260 580 c 2
 131 1252 l 1
 131 1292.70796993 112.069890162 1331.93010984 92 1352 c 1
 113 1372 l 1
 139 1346 172 1333 212 1333 c 2
 503 1333 l 2
 543 1333 576 1346 602 1372 c 1
 623 1352 l 1
EndSplineSet
EndChar

StartChar: quotedbl
Encoding: 34 34 6
Width: 925
GlyphClass: 2
Flags: HW
LayerCount: 2
Fore
SplineSet
539 1346 m 1
 539 1398.37207338 604.83089615 1403 667 1403 c 0
 755.666666667 1403 800 1384 800 1346 c 1
 765 866 l 2
 762.072430936 827.941602171 713.056514234 811 670 811 c 0
 626.212409683 811 575.958272095 828.542462763 573 867 c 2
 539 1346 l 1
135 1346 m 1
 135 1398.37207338 200.83089615 1403 263 1403 c 0
 351 1403 395 1384 395 1346 c 1
 361 866 l 2
 358.072430936 827.941602171 309.056514234 811 266 811 c 0
 222.212409683 811 171.958272095 828.542462763 169 867 c 2
 135 1346 l 1
EndSplineSet
EndChar

StartChar: numbersign
Encoding: 35 35 7
Width: 1768
GlyphClass: 2
Flags: HW
LayerCount: 2
Fore
SplineSet
707 827 m 1
 638 558 l 1
 1029 558 l 1
 1099 827 l 1
 707 827 l 1
1389 247 m 2
 1262 247 l 1
 1222 89 l 2
 1205.33333333 25 1195 -32 1191 -82 c 1
 836 -82 l 1
 859.333333333 -43.3333333333 883.666666667 13.6666666667 909 89 c 1
 949 247 l 1
 558 247 l 1
 516 89 l 2
 500 28.3333333333 490 -28.6666666667 486 -82 c 1
 130 -82 l 1
 153.333333333 -43.3333333333 177.666666667 13.6666666667 203 89 c 1
 244 247 l 1
 219 247 l 2
 180.333333333 247 137.666666667 244.333333333 91 239 c 1
 91 571 l 1
 125.666666667 562.333333333 182.666666667 558 262 558 c 2
 324 558 l 1
 394 827 l 1
 380 827 l 2
 329.333333333 827 286.666666667 825 252 821 c 1
 252 1152 l 1
 289.333333333 1142.66666667 346.333333333 1138 423 1138 c 2
 474 1138 l 1
 502 1247 l 1
 521.333333333 1335 531.333333333 1390.33333333 532 1413 c 1
 887 1413 l 1
 864.333333333 1375 840.666666667 1319.66666667 816 1247 c 1
 787 1138 l 1
 1180 1138 l 1
 1207 1247 l 1
 1226.33333333 1335 1236.33333333 1390.33333333 1237 1413 c 1
 1593 1413 l 1
 1569 1372.33333333 1545 1317 1521 1247 c 1
 1493 1138 l 1
 1508 1138 l 2
 1582 1138 1637.66666667 1142.66666667 1675 1152 c 1
 1675 821 l 1
 1640.33333333 825 1598.66666667 827 1550 827 c 2
 1413 827 l 1
 1343 558 l 1
 1347 558 l 2
 1423 558 1478.33333333 562.333333333 1513 571 c 1
 1513 239 l 1
 1466.33333333 244.333333333 1425 247 1389 247 c 2
EndSplineSet
EndChar

StartChar: dollar
Encoding: 36 36 8
Width: 1816
GlyphClass: 2
Flags: HW
LayerCount: 2
Fore
SplineSet
791 1017 m 1
 720.382278463 1017 644 993.131475942 644 921 c 128
 644 842.000311015 736.048733454 848.550542805 791 825 c 1
 791 1017 l 1
1186 417 m 0
 1186 482.333333333 1131.33333333 520.666666667 1022 532 c 1
 1022 361 l 2
 1022 328.333333333 1021.66666667 305 1021 291 c 1
 1052.27176432 289.04551473 1077.05752109 299.842920181 1102 304 c 1
 1158 323.333333333 1186 361 1186 417 c 0
489 419 m 2
 541.282339059 419 567.866611754 429.699876446 584 466 c 1
 625 448 l 1
 609 411.333333333 619.666666667 376.666666667 657 344 c 0
 677.596274977 327.265526581 734.155730214 304.35639554 764 296 c 2
 790 288 l 1
 789.333333333 321.333333333 789 347.666666667 789 367 c 2
 789 554 l 1
 610.531610294 580.439761438 413.502001374 592.584842999 282 664.5 c 128
 194.503411107 712.349697051 119 783.74608177 119 918 c 0
 119 1237.76125664 445.585244752 1296.05303141 744 1315 c 1
 766 1315 782.333333333 1314.66666667 793 1314 c 1
 793 1369 l 2
 793 1393.66666667 781.333333333 1417.66666667 758 1441 c 1
 771 1454 l 1
 795 1430 819.333333333 1418 844 1418 c 2
 975 1418 l 2
 999.666666667 1418 1024 1430 1048 1454 c 1
 1060 1440 l 1
 1036.66666667 1416.66666667 1025 1392.33333333 1025 1367 c 2
 1025 1310 l 1
 1077 1310 l 1
 1205.4403549 1298.14396724 1330.00943383 1277.89860786 1429.5 1232.5 c 128
 1537.56555887 1183.18853139 1625.48066589 1113.07733645 1657 987 c 0
 1667 947.666666667 1687.33333333 916.333333333 1718 893 c 1
 1702 872 l 1
 1672 895.333333333 1636.33333333 907 1595 907 c 2
 1259 907 l 2
 1213.06884113 907 1194.94690651 896.233315979 1181 862 c 1
 1147 878 l 1
 1182.59123327 964.842609167 1107.22560014 1033 1031 1033 c 1
 1031 819 l 1
 1298.47878614 814.077077556 1527.31601447 763.615377717 1650.5 625.5 c 128
 1705.77975144 563.519672628 1738 502.242257475 1738 400 c 0
 1738 238.579547419 1645.72746734 150.101532044 1538.5 92.5 c 128
 1404.88118602 20.7212982767 1222.55013666 -12.7065618576 1018 -6 c 1
 1020.66666667 -58 1022 -87 1022 -93 c 2
 1022 -94 l 2
 1022 -133.333333333 1034.66666667 -165.666666667 1060 -191 c 1
 1041 -212 l 1
 1015 -186 982.333333333 -173 943 -173 c 2
 867 -173 l 2
 827 -173 794 -186 768 -212 c 1
 748 -191 l 1
 774 -165 787 -132.666666667 787 -94 c 2
 787 -93 l 2
 787 -78.3701325654 785 -55.2895379256 785 -39 c 128
 785 -29 785.666666667 -18 787 -6 c 1
 595.666666667 0.666666666667 439.666666667 35 319 97 c 128
 198.333333333 159 126 239.666666667 102 339 c 0
 91.3333333333 381 72 413 44 435 c 1
 59 454 l 1
 89 430.666666667 124.666666667 419 166 419 c 2
 489 419 l 2
EndSplineSet
EndChar

StartChar: percent
Encoding: 37 37 9
Width: 2562
GlyphClass: 2
Flags: HW
LayerCount: 2
Fore
SplineSet
2027 556 m 128
 1910.68148329 556 1857 479.891606969 1857 360 c 0
 1857 221.333333333 1913.66666667 152 2027 152 c 128
 2140.33333333 152 2197 221.333333333 2197 360 c 0
 2197 479.919364505 2143.33617126 556 2027 556 c 128
2018 -44 m 0
 1743.5561251 -44 1541 89.530068306 1541 360 c 0
 1541 645.744680874 1743.9940677 757 2027 757 c 0
 2311.78018242 757 2512 646.358207408 2512 360 c 0
 2512 90.6666666667 2347.33333333 -44 2018 -44 c 0
566 1175 m 0
 449.697985979 1175 395 1097.85988309 395 978 c 0
 395 840 452 771 566 771 c 0
 679.333333333 771 736 840 736 978 c 0
 736 1097.32129364 681.433594347 1175 566 1175 c 0
1174 -1 m 1
 819 -1 l 1
 853.666666667 46.3333333333 885.333333333 103.333333333 914 170 c 2
 1346 1166 l 2
 1374.66666667 1232.66666667 1391.66666667 1288 1397 1332 c 1
 1753 1332 l 1
 1716.33333333 1282 1685 1226.66666667 1659 1166 c 2
 1228 170 l 2
 1198.66666667 101.333333333 1180.66666667 44.3333333333 1174 -1 c 1
557 575 m 0
 282.556125104 575 80 708.530068306 80 979 c 0
 80 1264.77374763 283.110829158 1375 566 1375 c 0
 850.461152541 1375 1051 1265.00492111 1051 979 c 0
 1051 709.666666667 886.333333333 575 557 575 c 0
EndSplineSet
EndChar

StartChar: ampersand
Encoding: 38 38 10
Width: 1862
GlyphClass: 2
Flags: HW
LayerCount: 2
Fore
SplineSet
1150 984 m 0
 1150 1045.63516749 1088.25052293 1082 1026 1082 c 0
 964.892811302 1082 909 1047.35895766 909 987 c 0
 909 977 918.333333333 956.666666667 937 926 c 0
 959.666666667 889.333333333 966 854.333333333 956 821 c 1
 987 812 l 1
 997.666666667 847.333333333 1021.66666667 873.666666667 1059 891 c 0
 1096.91640333 907.527662991 1150 937.400002374 1150 984 c 0
794 254 m 0
 809.333333333 254 840.833333333 259.333333333 888.5 270 c 128
 936.166666667 280.666666667 974.333333333 281.666666667 1003 273 c 1
 1008 295 l 1
 970 307 937.666666667 328 911 358 c 2
 735 556 l 2
 709 584.666666667 698.666666667 616.666666667 704 652 c 1
 673 657 l 1
 668.333333333 622.333333333 649.333333333 594.666666667 616 574 c 1
 567.333333333 546 543 505 543 451 c 0
 543 359.299736989 605.223876985 296.015748179 674.5 272.5 c 128
 710.833333333 260.166666667 750.666666667 254 794 254 c 0
1305 0 m 2
 1261.8710394 0 1246.69890868 -12.152364533 1232 -44 c 1
 1203 -30 l 1
 1218.35798716 9.09305822057 1213.26907296 23.4911451707 1191 51 c 0
 1169 77 1161 107 1167 141 c 1
 1140 147 l 1
 1133.33333333 113 1113.66666667 88 1081 72 c 0
 944.333333333 4.66666666667 782 -29 594 -29 c 0
 424.180973087 -29 280.269650114 31.5877535386 185 113 c 128
 118.23935252 170.050007847 62 263.172384555 62 382 c 0
 62 608.47196476 256.757663787 732.966673738 447 787 c 0
 482.333333333 797.666666667 518 796.333333333 554 783 c 1
 561 805 l 1
 479.767061891 835.134799621 431 911.39478315 431 1022 c 0
 431 1278.95079942 730.305071489 1330 984 1330 c 0
 1205.61181573 1330 1398.38953903 1268.33671686 1475 1121.5 c 128
 1495 1083.16666667 1505 1040.66666667 1505 994 c 0
 1505 926.666666667 1480.66666667 870.5 1432 825.5 c 128
 1383.33333333 780.5 1316.66666667 742 1232 710 c 0
 1196 696 1159.66666667 693.666666667 1123 703 c 1
 1117 682 l 1
 1186.58384209 664.909231768 1226.25394813 611.089308353 1269 563 c 1
 1297 534.333333333 1309 501.666666667 1305 465 c 1
 1336 462 l 1
 1339.33333333 498 1357.66666667 527.666666667 1391 551 c 0
 1452.33333333 593.666666667 1505 634 1549 672 c 0
 1579.66666667 697.333333333 1596.66666667 728.333333333 1600 765 c 1
 1628 763 l 1
 1624.66666667 727.666666667 1636.33333333 694 1663 662 c 2
 1728 587 l 2
 1754.66666667 556.333333333 1786 539.333333333 1822 536 c 1
 1820 507 l 1
 1783.33333333 510.333333333 1749.66666667 498.666666667 1719 472 c 0
 1678.33333333 438 1626.33333333 397 1563 349 c 1
 1530.33333333 325.666666667 1495.66666667 315.666666667 1459 319 c 1
 1457 292 l 1
 1493 288.666666667 1525.66666667 272.333333333 1555 243 c 1
 1730 58 l 1
 1760 28 1792 5.66666666667 1826 -9 c 1
 1820 -23 l 1
 1784.66666667 -7.66666666667 1746.33333333 0 1705 0 c 2
 1305 0 l 2
EndSplineSet
EndChar

StartChar: quotesingle
Encoding: 39 39 11
Width: 520
GlyphClass: 2
Flags: HW
LayerCount: 2
Fore
SplineSet
135 1346 m 1
 135 1398.37207338 200.83089615 1403 263 1403 c 0
 351 1403 395 1384 395 1346 c 1
 361 866 l 2
 358.072430936 827.941602171 309.056514234 811 266 811 c 0
 222.212409683 811 171.958272095 828.542462763 169 867 c 2
 135 1346 l 1
EndSplineSet
EndChar

StartChar: parenleft
Encoding: 40 40 12
Width: 1219
GlyphClass: 2
Flags: HW
LayerCount: 2
Fore
SplineSet
653 693 m 0
 653 541.182035412 666.116601312 401.714831238 734.5 321 c 128
 775.907716436 272.125318305 818.255942679 243.260013028 892 226.5 c 128
 973.816376761 207.905368918 1042.088654 204 1147 204 c 1
 1149 -138 l 1
 930.908159755 -138 851.403731298 -138.137843907 665.5 -113.5 c 128
 496.479682403 -91.0997169449 431.304471002 -54.4615259373 323.5 29 c 128
 214.613526063 113.299205629 176.162226452 228.7675603 143.5 394 c 128
 126.5 480 118 579.666666667 118 693 c 0
 118 856.622968911 137.543519546 1001.09570179 173 1121.5 c 128
 202.805643723 1222.71499847 270.378655711 1309.46873039 335 1370.5 c 128
 391.159133822 1423.53918194 508.927624348 1465.2646583 594.5 1487.5 c 128
 674.01382421 1508.16107243 844.433352787 1520.5077573 943.5 1523 c 128
 996.5 1524.33333333 1065 1525 1149 1525 c 1
 1147 1183 l 1
 1024.7597559 1183 948.25958898 1179.34339816 859.5 1151 c 128
 688.04003802 1096.24807937 653 923.393355747 653 693 c 0
EndSplineSet
EndChar

StartChar: parenright
Encoding: 41 41 13
Width: 1230
GlyphClass: 2
Flags: HW
LayerCount: 2
Fore
SplineSet
577 693 m 0
 577 923.180769527 542.070255892 1096.21285946 370.5 1151 c 128
 281.837767543 1179.31230952 205.166615478 1183 83 1183 c 1
 82 1525 l 1
 299.028675013 1525 380.195305389 1525.0584535 565.5 1500.5 c 128
 733.986028841 1478.1705263 800.674665614 1440.43321293 908 1357.5 c 128
 1016.4035475 1273.73362239 1055.95526612 1156.63806549 1088.5 992 c 128
 1105.5 906 1114 806.333333333 1114 693 c 128
 1114 488.095987141 1083.26296811 310.721569078 1024 177 c 128
 998 118.333333333 959.333333333 69 908 29 c 128
 800.84551586 -54.4970006285 734.205407114 -91.1414520693 565.5 -113.5 c 128
 379.688787703 -138.125582353 300.09624953 -138 82 -138 c 1
 83 204 l 1
 187.98034438 204 256.089530953 207.883984308 338 226.5 c 128
 535.115708785 271.299024724 577 448.201681339 577 693 c 0
EndSplineSet
EndChar

StartChar: asterisk
Encoding: 42 42 14
Width: 1165
GlyphClass: 2
Flags: HW
LayerCount: 2
Fore
SplineSet
672 970 m 1
 757.797091635 1032.12892843 894.645513346 1121.21923137 957 1192 c 1
 1073 1029 l 1
 1027.66666667 1003 987.666666667 977.666666667 953 953 c 2
 767 822 l 1
 953 689 l 2
 974.333333333 673.666666667 1015 649 1075 615 c 1
 957 450 l 1
 888.195775785 521.795712224 814.115411361 573.70967109 728 632.5 c 128
 693.333333333 656.166666667 674.666666667 669 672 671 c 1
 672 452 l 2
 672 430.666666667 675.333333333 383.333333333 682 310 c 1
 480 310 l 1
 490 352 495 399.666666667 495 453 c 2
 495 672 l 1
 318 547 l 1
 262.666666667 503.666666667 226.333333333 472.333333333 209 453 c 1
 92 615 l 1
 134 639 174.333333333 664.333333333 213 691 c 2
 399 823 l 1
 213 955 l 2
 186.43528013 973.595303909 118.691510094 1009.16977314 91 1028 c 1
 209 1193 l 1
 231.666666667 1167 268 1135.33333333 318 1098 c 1
 419.333333333 1025.33333333 478.333333333 983.333333333 495 972 c 1
 495 1190 l 2
 495 1243.33333333 490 1291 480 1333 c 1
 682 1333 l 1
 675.333333333 1261.66666667 672 1214.33333333 672 1191 c 2
 672 970 l 1
EndSplineSet
EndChar

StartChar: plus
Encoding: 43 43 15
Width: 1066
GlyphClass: 2
Flags: HW
LayerCount: 2
Fore
SplineSet
697 1029 m 2
 697 871 l 1
 807 871 l 2
 883.666666667 871 939.333333333 875.333333333 974 884 c 1
 974 553 l 1
 938.666666667 557 897 559 849 559 c 2
 697 559 l 1
 697 412 l 2
 697 367.333333333 699.333333333 324.666666667 704 284 c 1
 372 284 l 1
 381.333333333 321.333333333 386 378 386 454 c 2
 386 559 l 1
 233 559 l 2
 181.666666667 559 138.666666667 557 104 553 c 1
 104 884 l 1
 138.666666667 875.333333333 195.666666667 871 275 871 c 2
 386 871 l 1
 386 986 l 2
 386 1060 381.333333333 1115.66666667 372 1153 c 1
 704 1153 l 1
 699.333333333 1112.33333333 697 1071 697 1029 c 2
EndSplineSet
EndChar

StartChar: comma
Encoding: 44 44 16
Width: 725
GlyphClass: 2
Flags: HW
LayerCount: 2
Fore
SplineSet
591 246.5 m 128
 591 198.368190679 590 139.942142644 590 81 c 0
 590 -44.3872860671 534.473579663 -152.313523843 488.5 -232.5 c 128
 474.166666667 -257.5 459.333333333 -280.666666667 444 -302 c 1
 293 -290 l 1
 322.882553449 -228.174027347 361.090934247 -114.45439452 373 -43 c 2
 380 0 l 1
 219 0 l 2
 136.598521032 0 138 -1.405238224 138 81 c 2
 138 218 l 2
 138 268 140.5 298.333333333 145.5 309 c 128
 150.5 319.666666667 166.333333333 325 193 325 c 2
 489 325 l 2
 536.333333333 325 565.166666667 322.5 575.5 317.5 c 128
 585.833333333 312.5 591 297 591 271 c 0
 591 267 591 267 591 246.5 c 128
EndSplineSet
EndChar

StartChar: hyphen
Encoding: 45 45 17
Width: 1127
GlyphClass: 2
Flags: HW
LayerCount: 2
Fore
SplineSet
858 559 m 2
 290 559 l 2
 239.333333333 559 196.333333333 557 161 553 c 1
 161 884 l 1
 195.666666667 875.333333333 252.666666667 871 332 871 c 2
 815 871 l 2
 891 871 946.333333333 875.333333333 981 884 c 1
 981 553 l 1
 946.333333333 557 905.333333333 559 858 559 c 2
EndSplineSet
EndChar

StartChar: period
Encoding: 46 46 18
Width: 665
GlyphClass: 2
Flags: HW
LayerCount: 2
Fore
SplineSet
409 0 m 2
 265 0 l 2
 206.333333333 0 171.333333333 2.33333333333 160 7 c 128
 148.666666667 11.6666666667 143 28.6666666667 143 58 c 2
 143 292 l 2
 143 321.333333333 148.5 338.166666667 159.5 342.5 c 128
 170.5 346.833333333 205.666666667 349 265 349 c 2
 409 349 l 2
 468.333333333 349 503.5 346.833333333 514.5 342.5 c 128
 525.5 338.166666667 531 321.333333333 531 292 c 2
 531 58 l 2
 531 28.6666666667 525.333333333 11.6666666667 514 7 c 128
 502.666666667 2.33333333333 467.666666667 0 409 0 c 2
EndSplineSet
EndChar

StartChar: slash
Encoding: 47 47 19
Width: 801
GlyphClass: 2
Flags: HW
LayerCount: 2
Fore
SplineSet
373 -1 m 1
 18 -1 l 1
 39.3333333333 35 63.3333333333 92 90 170 c 1
 389 1166 l 1
 407.666666667 1250.66666667 417.333333333 1306 418 1332 c 1
 774 1332 l 1
 750 1291.33333333 726 1236 702 1166 c 1
 404 170 l 1
 385.333333333 95.3333333333 375 38.3333333333 373 -1 c 1
EndSplineSet
EndChar

StartChar: zero
Encoding: 48 48 20
Width: 1893
GlyphClass: 2
Flags: HW
LayerCount: 2
Fore
SplineSet
948 1022 m 0
 743.869985916 1022 649 887.041118768 649 676 c 0
 649 432 748.666666667 310 948 310 c 0
 1148 310 1248 432 1248 676 c 0
 1248 887.660754872 1153.05071989 1022 948 1022 c 0
749 -592 m 0
 749 -526.763827393 794 -320.903613111 794 -254 c 0
 794 -89.3333333333 763.666666667 -7 703 -7 c 0
 438.642719683 -7 255.548205682 139.537867866 166 326.5 c 128
 116.666666667 429.5 92 546.333333333 92 677 c 0
 92 996.599527505 236.44778716 1185.0545826 457 1284.5 c 128
 598.960589666 1348.50901588 749.506599539 1375 948 1375 c 128
 1351.07678544 1375 1642.81103064 1251.51380312 1756 956.5 c 128
 1787.33333333 874.833333333 1803 781.666666667 1803 677 c 0
 1803 239.183966098 1557.96272344 17.74425392 1166 -34 c 1
 1164 -37.3333333333 1163 -44.6666666667 1163 -56 c 0
 1163 -64.755637591 1167 -102.952102229 1167 -111 c 0
 1167 -131.823308841 1158.7664019 -162 1138 -162 c 0
 1120 -162 1111 -145.666666667 1111 -113 c 0
 1111 -103.002176434 1115 -65.6554068089 1115 -57 c 0
 1115 -36.5846442802 1091.37064547 -27 1071 -27 c 1
 1068.33333333 -33 1067 -44.3333333333 1067 -61 c 0
 1067 -75.3043609689 1073 -144.774409679 1073 -158 c 0
 1073 -194.522891447 1061.21848931 -244 1025 -244 c 0
 994.333333333 -244 979 -216.666666667 979 -162 c 0
 979 -145.626673362 985 -79.9354837096 985 -66 c 0
 985 -31.865485037 945.196047612 -14 911 -14 c 0
 873.351396592 -14 837 -34.2639956444 837 -72 c 2
 837 -302 l 2
 837 -358.739200653 879 -539.311556682 879 -596 c 0
 879 -638.23510826 854.112564472 -683 812 -683 c 0
 768.053355868 -683 749 -636.201977083 749 -592 c 0
EndSplineSet
EndChar

StartChar: one
Encoding: 49 49 21
Width: 1009
GlyphClass: 2
Flags: HW
LayerCount: 2
Fore
SplineSet
345 845 m 1
 266.01932273 805.509661365 151.686313075 809.581750767 101 742 c 1
 80 759 l 1
 104 788.333333333 116 823.333333333 116 864 c 2
 116 983 l 2
 116 1023.66666667 101.666666667 1053.66666667 73 1073 c 1
 91 1101 l 1
 119.666666667 1082.33333333 153 1080.66666667 191 1096 c 0
 281 1133.33333333 358.666666667 1176.33333333 424 1225 c 0
 452.769157109 1245.54939794 475.904103618 1262.63167763 461 1309 c 1
 500 1320 l 1
 512.010422966 1283.9687311 531.479796475 1276 579 1276 c 2
 743 1276 l 2
 783.666666667 1276 817 1289 843 1315 c 1
 864 1294 l 1
 837.333333333 1267.33333333 824 1234.33333333 824 1195 c 2
 824 81 l 2
 824 41 837.333333333 7.66666666667 864 -19 c 1
 843 -39 l 1
 817 -13 783.666666667 0 743 0 c 2
 426 0 l 2
 385.333333333 0 352 -13 326 -39 c 1
 306 -19 l 1
 332 7 345 40.3333333333 345 81 c 2
 345 765 l 2
 345 770.333333333 344.666666667 780.333333333 344 795 c 0
 344 816 344 816 344 828 c 0
 344 832.666666667 344.333333333 838.333333333 345 845 c 1
EndSplineSet
EndChar

StartChar: two
Encoding: 50 50 22
Width: 1914
GlyphClass: 2
Flags: HW
LayerCount: 2
Fore
SplineSet
723 775 m 1
 704.689079247 802.466381129 691.057565874 816 651 816 c 2
 225 816 l 2
 184.333333333 816 149 804.333333333 119 781 c 1
 103 801 l 1
 133.666666667 825 153.333333333 856.666666667 162 896 c 0
 202.147746743 1067.15618348 320.422344548 1162.03814766 468.5 1225.5 c 128
 605.540498328 1284.23164214 782.711651063 1306 973 1306 c 0
 1318.3472962 1306 1640.00170687 1254.41973647 1744.5 1010 c 128
 1764.16666667 964 1774 912.333333333 1774 855 c 0
 1774 764.932908918 1732.22198512 688.023896865 1688.5 640.5 c 128
 1646.38541704 594.723279387 1542.65166055 544.994252976 1480 521 c 128
 1431.72041258 502.509945243 1284.08386777 470.353736747 1227 462 c 128
 1197.33200114 457.65834163 1102.93963293 443.742454116 1057 438 c 0
 899.666666667 416 786.333333333 392.333333333 717 367 c 0
 660.333333333 347 614.666666667 334.333333333 580 329 c 1
 582 320 l 1
 628 328 675.333333333 332 724 332 c 0
 1086 332 1403.66666667 332.666666667 1677 334 c 0
 1717.66666667 334 1751 347 1777 373 c 1
 1796 353 l 1
 1770.66666667 327.666666667 1758 294.333333333 1758 253 c 2
 1758 81 l 2
 1758 39.6666666667 1770.66666667 6.33333333333 1796 -19 c 1
 1777 -39 l 1
 1751 -13 1717.66666667 0 1677 0 c 2
 200 0 l 2
 158 0 124.333333333 -12.3333333333 99 -37 c 1
 80 -17 l 1
 106.666666667 7.66666666667 122 40.3333333333 126 81 c 0
 161.403751594 532.397832824 501.0868008 677.475609802 904 760 c 1
 1011.27438596 779.50443381 1147.02888794 789.715379091 1208 855.5 c 128
 1220.66666667 869.166666667 1227 884.333333333 1227 901 c 128
 1227 974.255810469 1091.41125594 987 1018 987 c 0
 892.467392296 987 774.580137295 954.387224071 737 872 c 0
 724.333333333 844.666666667 727 817.333333333 745 790 c 1
 723 775 l 1
EndSplineSet
EndChar

StartChar: three
Encoding: 51 51 23
Width: 1855
GlyphClass: 2
Flags: HW
LayerCount: 2
Fore
SplineSet
1146 896 m 0
 1146 973.513775501 1007.87244926 984 929 984 c 0
 856.890511961 984 784.935504193 967.683717117 739.5 937 c 128
 713.833333333 919.666666667 703.666666667 899.333333333 709 876 c 1
 650 862 l 1
 640.892884193 904.499873767 607.823211218 909 551 909 c 2
 232 909 l 2
 190.666666667 909 155 897.333333333 125 874 c 1
 109 894 l 1
 138.333333333 916.666666667 158 948.333333333 168 989 c 0
 231.809775221 1263.87287787 601.003407623 1293 937 1293 c 0
 1193.43572921 1293 1448.30360138 1252.50333762 1600.5 1142.5 c 128
 1659.34571823 1099.96794623 1713 1031.0691551 1713 936 c 0
 1713 843.333333333 1676 771 1602 719 c 0
 1576 700.333333333 1544.66666667 690.666666667 1508 690 c 1
 1508 672 l 1
 1544 674 1575.66666667 666.333333333 1603 649 c 0
 1699 591 1747 502 1747 382 c 0
 1747 158.106318759 1575.6060488 61.5472338656 1399 13.5 c 128
 1272.23964906 -20.9862719479 1122.0219446 -35 965 -35 c 0
 807.499352766 -35 651.236846726 -31.9930109515 519 -1 c 128
 431.265107263 19.5628654853 315.208998475 62.8290012476 254.5 112.5 c 128
 188.208094291 166.738831944 130.31910196 254.627924652 112 358 c 0
 105.333333333 397.333333333 87 430 57 456 c 1
 74 476 l 1
 103.333333333 452 138.666666667 440 180 440 c 2
 553 440 l 2
 604.454756485 440 631.010292056 450.023157127 647 486 c 1
 685 467 l 1
 667.15392485 419.951256422 686.09402896 398.134687565 713 368 c 0
 759 316 837.333333333 290 948 290 c 0
 1040.13545507 290 1182 310.978087536 1182 403 c 0
 1182 477.666666667 1101.33333333 515 940 515 c 2
 607 515 l 2
 567 515 533.666666667 501.666666667 507 475 c 1
 487 496 l 1
 513 522 526 555.333333333 526 596 c 2
 526 754 l 2
 526 790 513 821 487 847 c 1
 506 866 l 1
 531.333333333 840.666666667 562.333333333 828 599 828 c 2
 941 828 l 2
 1013.6826505 828 1146 824.967256429 1146 896 c 0
EndSplineSet
EndChar

StartChar: four
Encoding: 52 52 24
Width: 1848
GlyphClass: 2
Flags: HW
LayerCount: 2
Fore
SplineSet
974 905 m 2
 686 609 l 2
 656 579 623.666666667 557 589 543 c 1
 595 528 l 1
 633 543.333333333 671.333333333 551 710 551 c 2
 950 551 l 2
 990.666666667 551 1024 538 1050 512 c 1
 1070 532 l 1
 1044 558 1031 591.333333333 1031 632 c 2
 1031 883 l 2
 1031 921.666666667 1038.66666667 960.333333333 1054 999 c 1
 1039 1004 l 1
 1023.66666667 966 1002 933 974 905 c 2
828 1305 m 1
 842.036617678 1271.82254003 862.596876777 1260 908 1260 c 2
 1427 1260 l 2
 1466.33333333 1260 1499.33333333 1273.33333333 1526 1300 c 1
 1546 1279 l 1
 1520.66666667 1253.66666667 1508 1220.33333333 1508 1179 c 2
 1508 632 l 2
 1508 592 1494.66666667 558.666666667 1468 532 c 1
 1489 512 l 1
 1515 538 1548.33333333 551 1589 551 c 2
 1656 551 l 2
 1696.66666667 551 1730 564 1756 590 c 1
 1776 570 l 1
 1750 544 1737 510.666666667 1737 470 c 2
 1737 270 l 2
 1737 229.333333333 1750 196 1776 170 c 1
 1756 149 l 1
 1729.33333333 175.666666667 1696 189 1656 189 c 2
 1580 189 l 2
 1540 189 1507 202 1481 228 c 1
 1460 207 l 1
 1486 181 1499 148 1499 108 c 2
 1499 58 l 2
 1499 17.3333333333 1512 -16 1538 -42 c 1
 1518 -62 l 1
 1492 -36 1458.66666667 -23 1418 -23 c 2
 1112 -23 l 2
 1072 -23 1039 -36 1013 -62 c 1
 992 -42 l 1
 1018 -16 1031 17.3333333333 1031 58 c 2
 1031 108 l 2
 1031 148 1044 181 1070 207 c 1
 1050 228 l 1
 1024 202 990.666666667 189 950 189 c 2
 183 191 l 2
 142.333333333 191 109 178 83 152 c 1
 63 173 l 1
 89 199 102 232 102 272 c 2
 104 450 l 2
 104 495.396572937 92.1806606692 514.962028178 59 529 c 1
 73 563 l 1
 119.340504178 547.553165274 132.029410759 560.029410759 160 588 c 2
 770 1202 l 2
 796.639946109 1228.63994611 810.832832289 1246.62253306 794 1291 c 1
 828 1305 l 1
EndSplineSet
EndChar

StartChar: five
Encoding: 53 53 25
Width: 1871
GlyphClass: 2
Flags: HW
LayerCount: 2
Fore
SplineSet
603 952 m 1
 644.333333333 900.666666667 637.666666667 847.666666667 583 793 c 1
 595 781 l 1
 621 807 646.666666667 822.333333333 672 827 c 0
 754.666666667 843 863 851 997 851 c 0
 1321.18272337 851 1619.86230693 789.484551939 1719.5 561.5 c 128
 1739.16666667 516.5 1749 466.333333333 1749 411 c 0
 1749 116.913947471 1522.30045828 7.63128900295 1271.5 -35.5 c 128
 1173.60560363 -52.3353420506 1095.10835966 -58 987 -58 c 0
 832.538923272 -58 673.55432759 -49.9405646251 543.5 -20 c 128
 331.314597418 28.8484380045 148.558380195 129.208099025 105 347 c 0
 97 388.333333333 79 421 51 445 c 1
 68 464 l 1
 96.6666666667 438.666666667 131.333333333 425.666666667 172 425 c 2
 487 413 l 2
 540.625282478 410.384132562 568.902512297 418.942530184 584 456 c 1
 630 438 l 1
 611.988030635 389.367682714 642.347598461 366.019213799 672 341 c 0
 778.121708607 250.68365225 1071.42755184 239.313062209 1162 348 c 128
 1178.66666667 368 1187 391.333333333 1187 418 c 0
 1187 510.666666667 1082.66666667 557 874 557 c 0
 799.882689083 557 708.503262554 546.970267784 668.5 516 c 128
 658.166666667 508 654 494.666666667 656 476 c 1
 605 471 l 1
 600.470502873 513.275306516 572.549145335 515.695388589 523 518 c 2
 268 527 l 2
 228.666666667 529 194.333333333 518 165 494 c 1
 148 515 l 1
 176 539 192.666666667 571 198 611 c 2
 277 1164 l 2
 282.333333333 1204.66666667 273.333333333 1238 250 1264 c 1
 274 1284 l 1
 296.666666667 1257.33333333 328.333333333 1244 369 1244 c 2
 1583 1243 l 2
 1623 1243 1656 1256 1682 1282 c 1
 1703 1261 l 1
 1677 1235 1664 1202 1664 1162 c 2
 1664 1008 l 2
 1664 968 1677 935 1703 909 c 1
 1682 888 l 1
 1656 914 1623 927 1583 927 c 2
 693 927 l 2
 665.666666667 927 641 940 619 966 c 1
 603 952 l 1
EndSplineSet
EndChar

StartChar: six
Encoding: 54 54 26
Width: 1950
GlyphClass: 2
Flags: HW
LayerCount: 2
Fore
SplineSet
991 311 m 0
 1181 311 1276 347.666666667 1276 421 c 0
 1276 505 1205 547 1063 547 c 0
 1046.33333333 547 911 541.333333333 657 530 c 1
 697.666666667 384 809 311 991 311 c 0
773 -496 m 0
 773 -400.223081506 791.684326383 -117.626944687 794 -25 c 1
 466.167753523 13.5684995855 221.515238599 142.509161965 128 418 c 128
 103.333333333 490.666666667 91 571.666666667 91 661 c 0
 91 1210.62354566 478.569507734 1365 1027 1365 c 0
 1275.31584965 1365 1485.21617957 1318.82810521 1643.5 1226 c 128
 1728.06385296 1176.40616142 1798.58965432 1097.90705613 1829 997 c 1
 1839 955 1857 923.666666667 1883 903 c 1
 1867 881 l 1
 1840.33333333 901.666666667 1806.33333333 912 1765 912 c 0
 1639.17636826 912 1481.06440772 894.638859102 1363 886 c 0
 1317.2697517 881.8427047 1293.01244024 870.024880485 1276 836 c 1
 1243 853 l 1
 1250.33333333 866.333333333 1254 879.666666667 1254 893 c 0
 1254 999.509670749 1089.56911505 1037 964 1037 c 0
 778.387422617 1037 675.520175904 920.870138337 648 757 c 1
 797.802838881 767.082883386 927.564798781 785 1064.5 785 c 128
 1088 785 1088 785 1151 785 c 0
 1431.98007643 785 1693.90782263 737.225547924 1800.5 560 c 128
 1828.16666667 514 1842 461.333333333 1842 402 c 0
 1842 149.483677308 1631.85429838 50.5422171344 1425 4 c 128
 1371.66666667 -8 1313.66666667 -17.3333333333 1251 -24 c 1
 1251 -127.010571896 1299 -468.323908492 1299 -571 c 0
 1299 -608.613031235 1279.75253255 -646 1242 -646 c 128
 1204.26883918 -646 1184 -608.612831586 1184 -571 c 0
 1184 -487.264146448 1217 -200.652697919 1217 -117 c 0
 1217 -74.6764932489 1208.91954994 -38.4798874851 1179 -31 c 128
 1163.55801805 -27.1395045114 1147.37243511 -24 1121 -24 c 128
 1117 -24 1117 -24 1095 -24 c 0
 1061.66444235 -24 972 -29.4237371507 972 -61 c 0
 972 -112.290057604 997 -281.999481032 997 -333 c 0
 997 -362.487533752 987.205421422 -399 958 -399 c 0
 930.511124172 -399 920 -364.504623328 920 -337 c 0
 920 -283.732742644 948 -113.219199879 948 -60 c 0
 948 -42.822980662 939.333333333 -28 922 -28 c 0
 896.300821158 -28 835 -34.1475083765 835 -59 c 0
 835 -139.791966958 847 -410.285788959 847 -491 c 0
 847 -512.795289308 830.664410988 -536 809 -536 c 128
 787.770875997 -536 773 -517.12418116 773 -496 c 0
EndSplineSet
EndChar

StartChar: seven
Encoding: 55 55 27
Width: 1315
GlyphClass: 2
Flags: HW
LayerCount: 2
Fore
SplineSet
616 -502 m 1
 622.769967671 -532.948423637 640 -655.521599289 640 -693 c 0
 640 -716.333333333 631.666666667 -728 615 -728 c 1
 617.666666667 -733.333333333 618.333333333 -735.666666667 617 -735 c 0
 610.098522705 -733.028149344 597.00278273 -708.007420615 591 -692 c 1
 591 -655.21305042 609.369054625 -532.312893143 616 -502 c 1
79 1073 m 0
 79 1094.09487038 84 1178.34646022 84 1201 c 0
 84 1273.66666667 69.3333333333 1324.33333333 40 1353 c 1
 60 1373 l 1
 86.6666666667 1347 120 1334 160 1334 c 2
 1149 1334 l 2
 1189.66666667 1334 1223 1347 1249 1373 c 1
 1268 1353 l 1
 1242.66666667 1327.66666667 1230 1294.33333333 1230 1253 c 0
 1230 1230.90735315 1225 1148.19841839 1225 1125 c 0
 1225 1101.91572337 1232.91181809 1038.7213623 1231 1011 c 128
 1229.66666667 991.666666667 1224.66666667 972.333333333 1216 953 c 1
 763 81 l 1
 758.924112277 -35.1628001003 785 -430.05848616 785 -540 c 0
 785 -569.175540807 774.123355397 -614 745 -614 c 0
 712.042814941 -614 703 -555.75577353 703 -522 c 0
 703 -443.135420325 731 -183.79060356 731 -105 c 0
 731 -66.2327318412 725.435998542 4 687 4 c 0
 657.896548505 4 642 -40.7503862997 642 -70 c 0
 642 -109.379484167 665 -239.657773876 665 -279 c 0
 665 -309.673441097 654.513328242 -351 624 -351 c 0
 595.175505832 -351 584 -314.813204451 584 -286 c 0
 584 -247.844546484 620 -130.458396034 620 -92 c 0
 620 -28.845036211 563.686391974 -4 500 -4 c 0
 445.333333333 -4 392.166666667 -21.3333333333 340.5 -56 c 128
 288.833333333 -90.6666666667 263 -135.666666667 263 -191 c 0
 263 -226.40658339 289 -342.338424318 289 -378 c 0
 289 -412 276.666666667 -429 252 -429 c 0
 224 -429 210 -411 210 -375 c 0
 210 -335.917079508 242 -208.743579303 242 -170 c 1
 261 90 l 1
 334.228903845 236.457807689 599.969100449 760.938200897 675 911 c 1
 697 952.333333333 727 985.666666667 765 1011 c 1
 756 1031 l 1
 712 1001 655.666666667 986 587 986 c 0
 505.772356738 986 290.172566154 999 209 999 c 0
 140.333333333 999 90.6666666667 983.666666667 60 953 c 1
 40 974 l 1
 66 1000 79 1033 79 1073 c 0
EndSplineSet
EndChar

StartChar: eight
Encoding: 56 56 28
Width: 1826
GlyphClass: 2
Flags: HW
LayerCount: 2
Fore
SplineSet
644 -730 m 0
 628 -730 620 -717.666666667 620 -693 c 0
 620 -648.333333333 628.333333333 -585.333333333 645 -504 c 1
 661 -584 669 -647.666666667 669 -695 c 0
 669 -718.333333333 660.666666667 -730 644 -730 c 0
1229 803 m 0
 1229 969.419017978 1091.08215171 1028 925 1028 c 0
 735 1028 640 991.333333333 640 918 c 0
 640 803.977577842 769.45626397 789 883 789 c 1
 987.312978303 782.270130432 1132.87692653 777.609954141 1227 761 c 1
 1228.33333333 770.333333333 1229 784.333333333 1229 803 c 0
1233 417 m 0
 1233 521.522822415 1096.74566993 543 972 543 c 0
 820.666666667 543 687.666666667 555.666666667 573 581 c 1
 571 570.333333333 570 555 570 535 c 0
 570 382.333333333 679.666666667 306 899 306 c 0
 1121.66666667 306 1233 343 1233 417 c 0
603 -356 m 0
 603 -317.234649059 635 -190.032289515 635 -151 c 1
 651 -29 l 1
 414.56352694 1.18337953957 215.799249638 83.4015007245 130.5 254 c 128
 108.833333333 297.333333333 98 342.333333333 98 389 c 0
 98 505.666666667 159.666666667 599 283 669 c 1
 181 732.333333333 130 821.333333333 130 936 c 0
 130 1170.03710253 312.035335868 1270.89870441 496 1322 c 128
 632.544030138 1359.92889726 796.468683941 1375 967 1375 c 0
 1230.81048832 1375 1442.49418104 1315.50581896 1571 1187 c 128
 1632.51588161 1125.48411839 1677 1052.95993428 1677 945 c 0
 1677 841 1631 755.333333333 1539 688 c 1
 1674.33333333 623.333333333 1742 526.666666667 1742 398 c 0
 1742 216.904444488 1626.86719357 120.807742801 1498.5 63 c 128
 1398.67084418 18.0438238688 1301.38331743 -5.51521946507 1175 -22 c 1
 1175 -115.693503778 1202 -428.194990568 1202 -522 c 0
 1202 -551.175540807 1191.1233554 -596 1162 -596 c 0
 1129.04281494 -596 1120 -537.75577353 1120 -504 c 0
 1120 -425.241031665 1140 -164.684452248 1140 -86 c 0
 1140 -14 1125.66666667 22 1097 22 c 0
 1066.92522624 22 1051 -22.0493760715 1051 -52 c 0
 1051 -91.3794841674 1075 -221.657773876 1075 -261 c 0
 1075 -291.732851635 1063.52086582 -332 1033 -332 c 0
 1004.17550583 -332 993 -295.813204451 993 -267 c 0
 993 -228.844546484 1029 -111.458396034 1029 -73 c 0
 1029 -9.83671598192 973.725226378 15 910 15 c 0
 822.096622092 15 746.557194183 -22.2308432971 699 -72 c 128
 670.333333333 -102 656 -135.666666667 656 -173 c 0
 656 -208.404154389 683 -324.335968223 683 -360 c 0
 683 -393.333333333 670.333333333 -410 645 -410 c 0
 617 -410 603 -392 603 -356 c 0
EndSplineSet
EndChar

StartChar: nine
Encoding: 57 57 29
Width: 1948
GlyphClass: 2
Flags: HW
LayerCount: 2
Fore
SplineSet
676 918 m 0
 676 818.903006448 775.909838885 791 888 791 c 0
 890.666666667 791 1026.33333333 797 1295 809 c 1
 1254.33333333 955 1143 1028 961 1028 c 0
 771 1028 676 991.333333333 676 918 c 0
697 446 m 0
 697 339.546322664 862.548176785 302 988 302 c 0
 1173.61257738 302 1276.4798241 418.129861663 1304 582 c 1
 1154.19716112 571.917116614 1024.43520122 554 887.5 554 c 128
 864 554 864 554 801 554 c 0
 564.542452951 554 359.871378442 591.485752248 224.5 694 c 128
 161.423483118 741.766682687 114.305989948 816.091571221 110 918 c 0
 110 920.601966969 109 933.541918376 109 936 c 0
 109 1170.03710253 291.035335868 1270.89870441 475 1322 c 128
 611.544030138 1359.92889726 775.468683941 1375 946 1375 c 0
 1394.26451971 1375 1736.77037179 1240.6954526 1834.5 888.5 c 128
 1852.16666667 824.833333333 1861 755 1861 679 c 0
 1861 251.231869416 1612.4120056 30.3367745597 1227 -24 c 1
 1228.21341001 -107.72529054 1246 -411.163608541 1246 -499 c 0
 1246 -520.150967005 1232.25490127 -538 1211 -538 c 128
 1189.33128221 -538 1173 -515.825504301 1173 -494 c 0
 1173 -413.313644382 1184 -141.608059729 1184 -61 c 0
 1184 -34.3406132877 1125.77532298 -30 1098 -30 c 0
 1080.66666667 -30 1072 -44.823530797 1072 -62 c 0
 1072 -115.372868697 1099 -284.674648808 1099 -338 c 0
 1099 -365.476834362 1088.48345343 -401 1061 -401 c 0
 1035.66666667 -401 1023 -379.333333333 1023 -336 c 0
 1023 -283.960464637 1047 -115.992017858 1047 -64 c 0
 1047 -32.6560304023 957.121181943 -27 924 -27 c 0
 921 -27 921 -27 915 -27 c 0
 875.360294725 -27 835.994568445 -23.4359428252 819 -46.5 c 128
 807.295869376 -62.3841772757 802 -88.5484591669 802 -119 c 0
 802 -203.601445688 835 -487.259615127 835 -572 c 0
 835 -609.555872347 814.725885514 -649 777 -649 c 128
 739.255525676 -649 720 -609.546137305 720 -572 c 0
 720 -469.031929117 769 -130.111318943 769 -27 c 1
 570.45309275 -3.6415403235 395.794356524 49.3904623031 265.5 143 c 128
 201.315998805 189.112777558 145.507391186 257.597283052 123 342 c 1
 113.666666667 383.333333333 95.3333333333 414.666666667 68 436 c 1
 84 457 l 1
 110 437 144 427 186 427 c 0
 306.728280398 427 474.234419638 444.572919973 588 453 c 0
 634.24206046 457.203823678 659.106922586 467.914377679 676 503 c 1
 708 486 l 1
 700.666666667 472.666666667 697 459.333333333 697 446 c 0
EndSplineSet
EndChar

StartChar: colon
Encoding: 58 58 30
Width: 790
GlyphClass: 2
Flags: HW
LayerCount: 2
Fore
SplineSet
502 1 m 2
 292 1 l 2
 232.666666667 1 197.5 3.16666666667 186.5 7.5 c 128
 175.5 11.8333333333 170 28.6666666667 170 58 c 2
 170 292 l 2
 170 321.333333333 175.666666667 338.333333333 187 343 c 128
 198.333333333 347.666666667 233.333333333 350 292 350 c 2
 502 350 l 2
 560.666666667 350 595.666666667 347.666666667 607 343 c 128
 618.333333333 338.333333333 624 321.333333333 624 292 c 2
 624 58 l 2
 624 28.6666666667 618.5 11.8333333333 607.5 7.5 c 128
 596.5 3.16666666667 561.333333333 1 502 1 c 2
502 677 m 2
 292 677 l 2
 232.666666667 677 197.5 679.166666667 186.5 683.5 c 128
 175.5 687.833333333 170 704.666666667 170 734 c 2
 170 968 l 2
 170 997.333333333 175.666666667 1014.33333333 187 1019 c 128
 198.333333333 1023.66666667 233.333333333 1026 292 1026 c 2
 502 1026 l 2
 560.666666667 1026 595.666666667 1023.66666667 607 1019 c 128
 618.333333333 1014.33333333 624 997.333333333 624 968 c 2
 624 734 l 2
 624 704.666666667 618.5 687.833333333 607.5 683.5 c 128
 596.5 679.166666667 561.333333333 677 502 677 c 2
EndSplineSet
EndChar

StartChar: semicolon
Encoding: 59 59 31
Width: 779
GlyphClass: 2
Flags: HW
LayerCount: 2
Fore
SplineSet
512 677 m 2
 265 677 l 2
 217 677 187.833333333 679.5 177.5 684.5 c 128
 167.166666667 689.5 162 706 162 734 c 2
 162 968 l 2
 162 996 167.333333333 1012.66666667 178 1018 c 128
 188.666666667 1023.33333333 219 1026 269 1026 c 2
 508 1026 l 2
 558.666666667 1026 589.333333333 1023.33333333 600 1018 c 128
 610.666666667 1012.66666667 616 996 616 968 c 2
 616 734 l 2
 616 706 610.833333333 689.5 600.5 684.5 c 128
 590.166666667 679.5 560.666666667 677 512 677 c 2
615 246.5 m 128
 615 198.368190679 614 139.942142644 614 81 c 0
 614 -43.3495313379 557.902091715 -154.119209388 511 -233 c 128
 496.333333333 -257.666666667 481.333333333 -280.666666667 466 -302 c 1
 316 -290 l 1
 345.882553449 -228.174027347 384.090934247 -114.45439452 396 -43 c 2
 403 0 l 1
 242 0 l 2
 159.598521032 0 161 -1.405238224 161 81 c 2
 161 218 l 2
 161 268 163.5 298.333333333 168.5 309 c 128
 173.5 319.666666667 189.333333333 325 216 325 c 2
 512 325 l 2
 560 325 589.166666667 322.5 599.5 317.5 c 128
 609.833333333 312.5 615 297 615 271 c 0
 615 267 615 267 615 246.5 c 128
EndSplineSet
EndChar

StartChar: less
Encoding: 60 60 32
Width: 968
GlyphClass: 2
Flags: HW
LayerCount: 2
Fore
SplineSet
100 491 m 0
 100 608.333333333 100 725.666666667 100 843 c 0
 100 856.333333333 110 869.333333333 130 882 c 2
 734 1252 l 2
 759.333333333 1266.66666667 779 1286.66666667 793 1312 c 1
 805 1305 l 1
 791.666666667 1282.33333333 785 1255 785 1223 c 2
 786 929 l 2
 786 899.666666667 796.666666667 879 818 867 c 1
 805 844 l 1
 790.333333333 850 780 853 774 853 c 0
 758.666666667 853 738.666666667 846.5 714 833.5 c 128
 631.965587045 790.265647227 558.629579592 723.33583641 471 684.5 c 128
 441.666666667 671.5 415.333333333 665 392 665 c 1
 392 650 l 1
 397 650 l 2
 463.254754979 650 552.913736973 588.153645838 598.5 555 c 128
 631.5 531 664.833333333 509.166666667 698.5 489.5 c 128
 732.166666667 469.833333333 757.333333333 460 774 460 c 0
 781.333333333 460 791.666666667 463.333333333 805 470 c 1
 818 447 l 1
 796.666666667 435 786 414 786 384 c 2
 785 108 l 2
 785 77.3333333333 791.666666667 50 805 26 c 1
 793 19 l 1
 779 44.3333333333 759.333333333 64.3333333333 734 79 c 2
 130 454 l 2
 114.80428631 464.130475793 100 468.662774681 100 491 c 0
EndSplineSet
EndChar

StartChar: equal
Encoding: 61 61 33
Width: 1147
GlyphClass: 2
Flags: HW
LayerCount: 2
Fore
SplineSet
860 370 m 2
 292 370 l 2
 230 370 187.333333333 368 164 364 c 1
 164 598 l 1
 198.666666667 589.333333333 255.666666667 585 335 585 c 2
 818 585 l 2
 894.666666667 585 950.333333333 589.333333333 985 598 c 1
 985 364 l 1
 949.666666667 368 908 370 860 370 c 2
860 774 m 2
 292 774 l 2
 230 774 187.333333333 772 164 768 c 1
 164 1002 l 1
 198.666666667 993.333333333 255.666666667 989 335 989 c 2
 818 989 l 2
 894.666666667 989 950.333333333 993.333333333 985 1002 c 1
 985 768 l 1
 949.666666667 772 908 774 860 774 c 2
EndSplineSet
EndChar

StartChar: greater
Encoding: 62 62 34
Width: 953
GlyphClass: 2
Flags: HW
LayerCount: 2
Fore
SplineSet
867 491 m 2
 867 469.147812462 851.938533025 464.246199802 836 454 c 2
 233 79 l 2
 209 65 189.666666667 45 175 19 c 1
 162 26 l 1
 176 51.3333333333 183 78.6666666667 183 108 c 2
 181 384 l 2
 181 414 170.333333333 435 149 447 c 1
 162 470 l 1
 175.333333333 463.333333333 185.666666667 460 193 460 c 0
 213.666666667 460 247.833333333 475.833333333 295.5 507.5 c 128
 343.166666667 539.166666667 393 570.833333333 445 602.5 c 128
 497 634.166666667 538.333333333 650 569 650 c 2
 574 650 l 1
 574 665 l 1
 504.222803678 665 414.616837667 725.030014503 369 759 c 128
 337.666666667 782.333333333 305.333333333 803.833333333 272 823.5 c 128
 238.666666667 843.166666667 212.333333333 853 193 853 c 0
 187 853 176.666666667 850 162 844 c 1
 149 867 l 1
 170.333333333 879 181 899.666666667 181 929 c 2
 183 1223 l 2
 183 1253.66666667 176 1281 162 1305 c 1
 175 1312 l 1
 189.666666667 1286 209 1266 233 1252 c 2
 836 882 l 2
 856.666666667 868.666666667 867 855.666666667 867 843 c 2
 867 491 l 2
EndSplineSet
EndChar

StartChar: question
Encoding: 63 63 35
Width: 1559
GlyphClass: 2
Flags: HW
LayerCount: 2
Fore
SplineSet
583 -181 m 2
 440 -181 l 2
 381.333333333 -181 346.166666667 -178.666666667 334.5 -174 c 128
 322.833333333 -169.333333333 317 -152.333333333 317 -123 c 2
 317 111 l 2
 317 140.333333333 322.666666667 157.166666667 334 161.5 c 128
 345.333333333 165.833333333 380.666666667 168 440 168 c 2
 583 168 l 2
 642.333333333 168 677.5 165.833333333 688.5 161.5 c 128
 699.5 157.166666667 705 140.333333333 705 111 c 2
 705 -123 l 2
 705 -152.333333333 699.333333333 -169.333333333 688 -174 c 128
 676.666666667 -178.666666667 641.666666667 -181 583 -181 c 2
618 953 m 1
 599.690250664 980.464624004 585.129675541 994 545 994 c 2
 119 994 l 2
 78.3333333333 994 43 982.333333333 13 959 c 1
 -2 979 l 1
 26 1001 45.3333333333 1033 56 1075 c 1
 116.423409526 1358.03597094 389.337443129 1452 730 1452 c 0
 1064.01393051 1452 1364.66306741 1395.86601247 1462 1156 c 128
 1480.66666667 1110 1490 1058.33333333 1490 1001 c 0
 1490 716.075378311 1248.29286176 650.697598368 1013 601.5 c 128
 976.333333333 593.833333333 950.333333333 588 935 584 c 1
 925.541102612 584 879.412901476 572.403127631 869.5 570 c 128
 805.167062874 554.404136454 740 513.409637557 740 434 c 0
 740.666666667 406 753.333333333 379.333333333 778 354 c 1
 757 334 l 1
 731 360 698.333333333 373 659 373 c 2
 361 373 l 2
 319.666666667 373 286.333333333 360.666666667 261 336 c 1
 242 356 l 1
 270 380 285 412.666666667 287 454 c 1
 308.656023563 750.996894584 510.054904216 861.903405929 783 905 c 1
 841 918.333333333 880.833333333 935.333333333 902.5 956 c 128
 924.166666667 976.666666667 935 1001.33333333 935 1030 c 128
 935 1101.43272109 856.576156042 1133 775 1133 c 0
 701 1133 653 1105.33333333 631 1050 c 0
 625.666666667 1036 623 1024.66666667 623 1016 c 0
 623 1000.66666667 628.666666667 984.666666667 640 968 c 1
 618 953 l 1
EndSplineSet
EndChar

StartChar: at
Encoding: 64 64 36
Width: 2148
GlyphClass: 2
Flags: HW
LayerCount: 2
Fore
SplineSet
1718 320 m 0
 1824.69209439 320 1876 448.351947256 1876 570 c 0
 1876 900.59952334 1741.8210021 1119.64367201 1541.5 1249.5 c 128
 1423.4489263 1326.02557039 1280.96989539 1373 1100 1373 c 0
 804.787528262 1373 590.089365464 1239.9815648 451.5 1073.5 c 128
 351.409780452 953.265836896 280 769.282986774 280 554 c 0
 280 252.097339739 434.290221525 55.8880354768 621.5 -64 c 128
 742.391653755 -141.418300434 900.585566982 -196 1087 -196 c 0
 1293 -196 1478.66666667 -132.666666667 1644 -6 c 1
 1757 -153 l 1
 1555 -300.333333333 1331.33333333 -374 1086 -374 c 0
 725.514933134 -374 464.81989249 -219.128703406 295 -19.5 c 128
 180.22294177 115.424095047 95 314.464331499 95 554 c 0
 95 897.557011045 228.587940216 1132.73148512 410.5 1297.5 c 128
 529.146651007 1404.96529123 676.60190832 1481.30701099 852 1523 c 128
 933.333333333 1542.33333333 1016 1552 1100 1552 c 0
 1448.5835476 1552 1700.60694898 1407.69852202 1861.5 1209 c 128
 1980.73803885 1061.7442799 2061 835.074536585 2061 570 c 0
 2061 356.07156766 1967.1881499 213.523582795 1817 153 c 128
 1772.33333333 135 1725.33333333 126 1676 126 c 0
 1499.32696119 126 1349.20373933 202.939841688 1287 321 c 1
 1271 323 l 1
 1249.62292492 171.716084068 1050.08359285 126 853 126 c 0
 668.116773104 126 513.087699998 176.136880004 449.5 301 c 128
 431.166666667 337 422 378.333333333 422 425 c 0
 422 605.666666667 638.333333333 696 1071 696 c 0
 1177.25825227 696 1248.09582202 700.776130063 1308 657 c 1
 1320 672 l 1
 1293.33333333 691.333333333 1273.33333333 719 1260 755 c 0
 1236.8021741 814.651552326 1168.01468395 815 1070 815 c 0
 948.666666667 815 835.333333333 801.333333333 730 774 c 0
 695.527863178 764.34780169 678.192064361 750.660954467 665 719 c 1
 642 729 l 1
 646 741.666666667 648 753.333333333 648 764 c 0
 648 797.859135754 629.329505482 819.01729708 611.5 849.5 c 128
 582.998510154 898.228353607 560.192564351 941.685414679 506 964 c 1
 514 985 l 1
 534.666666667 977.666666667 552 974 566 974 c 0
 579.333333333 974 593.666666667 976 609 980 c 0
 723.118798008 1013.28464942 936.197553385 1040 1081 1040 c 0
 1207 1040 1301.66666667 1034.33333333 1365 1023 c 0
 1568.33333333 984.333333333 1670.33333333 881.666666667 1671 715 c 2
 1671 530 l 2
 1671 457.896168263 1674.235609 385.923695003 1694.5 342.5 c 128
 1701.5 327.5 1709.33333333 320 1718 320 c 0
1218 535 m 0
 1202.60319386 535 1150.33760173 537 1134 537 c 0
 946.666666667 537 853 499 853 423 c 0
 853 361 906.666666667 330 1014 330 c 0
 1129.03075276 330 1225.37149265 366.635074906 1260 450 c 0
 1276.66666667 489.333333333 1299.66666667 518.666666667 1329 538 c 1
 1317 561 l 1
 1290.33333333 543.666666667 1257.33333333 535 1218 535 c 0
EndSplineSet
EndChar

StartChar: A
Encoding: 65 65 37
Width: 1768
GlyphClass: 2
Flags: HW
LayerCount: 2
Fore
SplineSet
1434 -367 m 128
 1416.64045529 -367 1407 -350.109567627 1407 -331 c 0
 1407 -285 1415.66666667 -227.333333333 1433 -158 c 1
 1452.33333333 -238 1462 -296.666666667 1462 -334 c 0
 1462 -352.566253062 1451.06638457 -367 1434 -367 c 128
758 429 m 2
 949 429 l 2
 989 429 1025 418.333333333 1057 397 c 1
 1070 416 l 1
 1038.66666667 437.333333333 1016 467 1002 505 c 2
 875 830 l 2
 860.333333333 868 852.666666667 906.666666667 852 946 c 1
 839 946 l 1
 837.666666667 902 831 863.333333333 819 830 c 2
 704 506 l 2
 690 467.333333333 667.666666667 437.333333333 637 416 c 1
 650 396 l 1
 681.333333333 418 717.333333333 429 758 429 c 2
84 -223 m 0
 84 -269.569200623 71.1301618678 -320 33 -320 c 0
 5 -320 -9 -290 -9 -230 c 0
 -9 -152.131082899 25.0176657649 24.2435755534 46 76 c 2
 526 1257 l 2
 532.666666667 1274.33333333 536 1290.66666667 536 1306 c 0
 536 1324 530.333333333 1341 519 1357 c 1
 547 1375 l 1
 566.333333333 1346.33333333 596.333333333 1332 637 1332 c 2
 1097 1332 l 2
 1137 1332 1166.66666667 1346.33333333 1186 1375 c 1
 1215 1357 l 1
 1203.66666667 1341 1198 1324.33333333 1198 1307 c 0
 1198 1295 1202 1278.66666667 1210 1258 c 2
 1704 75 l 2
 1719.33333333 37.6666666667 1743 8.33333333333 1775 -13 c 1
 1763 -32 l 1
 1730.33333333 -10.6666666667 1694 0 1654 0 c 2
 1458 0 l 1
 1459.33333333 -14.6666666667 1460 -25 1460 -31 c 0
 1460 -49.5212274511 1450.01928042 -64 1433 -64 c 0
 1415.08430302 -64 1402 -48.0528098619 1402 -29 c 0
 1402 -16.3333333333 1402.66666667 -6.66666666667 1404 0 c 1
 1283 0 l 2
 1224.73576317 0 1221.58614191 -55.8833369854 1215 -114.5 c 128
 1211.66666667 -144.166666667 1210 -180.333333333 1210 -223 c 0
 1210 -256.32360835 1230 -376.655357287 1230 -406 c 0
 1230 -436.050249443 1217.05557017 -462 1190 -462 c 128
 1164.13848116 -462 1149 -437.856027221 1149 -410 c 0
 1149 -378.594196411 1174 -237.792126541 1174 -204 c 2
 1174 77 l 1
 1167.33333333 95 1164 110 1164 122 c 0
 1164 140.666666667 1170 158.666666667 1182 176 c 1
 1156 195 l 1
 1136 166.333333333 1106 152 1066 152 c 2
 655 152 l 2
 615 152 585 166 565 194 c 1
 539 176 l 1
 551.666666667 158 558 139 558 119 c 0
 558 108.333333333 555.666666667 94.3333333333 551 77 c 1
 551 76 l 1
 545 53.3333333333 542 39 542 33 c 0
 542 15 548.666666667 -3.66666666667 562 -23 c 1
 536 -42 l 1
 516 -14 486 0 446 0 c 2
 84 0 l 1
 82 -12.6666666667 81 -34 81 -64 c 0
 81 -92.0649939705 84 -195.116327442 84 -223 c 0
EndSplineSet
EndChar

StartChar: B
Encoding: 66 66 38
Width: 1979
GlyphClass: 2
Flags: HW
LayerCount: 2
Fore
SplineSet
362 -797 m 0
 362 -821.487779178 351.461831033 -844 327 -844 c 0
 305 -844 294 -827.666666667 294 -795 c 0
 294 -727.656355482 315.363765937 -670.757014274 328 -616 c 1
 338.145938379 -666.729691896 362 -736.464145226 362 -797 c 0
1252 929 m 0
 1252 978.73451683 1183.11888336 995 1133 995 c 2
 772 994 l 2
 735.333333333 994 703.666666667 1006.66666667 677 1032 c 1
 658 1012 l 1
 684 986 697 954.666666667 697 918 c 0
 697 880 684 847.333333333 658 820 c 1
 677 801 l 1
 706.333333333 829.666666667 763.666666667 844 849 844 c 0
 891.985491236 844 1040.24242162 834 1083 834 c 0
 1166.46492258 834 1252 844.848987803 1252 929 c 0
1327 419 m 0
 1327 476.29769056 1269.47799377 503 1212 503 c 2
 772 500 l 2
 731.333333333 500 698 513 672 539 c 1
 652 519 l 1
 678 493 691 459.666666667 691 419 c 0
 691 377 678 343 652 317 c 1
 672 296 l 1
 698.666666667 322.666666667 732 336 772 336 c 2
 1165 336 l 2
 1251.45811251 336 1327 329.628669827 1327 419 c 0
205 -46 m 0
 205 -113.871380403 234 -339.964698568 234 -408 c 0
 234 -446.666666667 219.666666667 -466 191 -466 c 0
 159.666666667 -466 144 -444.666666667 144 -402 c 0
 144 -344.666745397 176 -154.278717466 176 -97 c 2
 177 1251 l 2
 177 1292.33333333 164 1325.66666667 138 1351 c 1
 158 1372 l 1
 186 1345.33333333 219.333333333 1332 258 1332 c 2
 1150 1332 l 1
 1296.84198387 1338.52631039 1449.14012514 1325.96496872 1567 1296.5 c 128
 1694.42971933 1264.64257017 1804 1185.10379272 1804 1027 c 0
 1804 966.333333333 1788.33333333 910.833333333 1757 860.5 c 128
 1725.66666667 810.166666667 1681.66666667 782.666666667 1625 778 c 1
 1627 758 l 1
 1717.08079645 765.633965801 1784.52798991 703.896906029 1819.5 644.5 c 128
 1854.55350536 584.964681376 1887 502.86696797 1887 417 c 0
 1887 234.962020135 1786.89386481 142.396833449 1666 80 c 128
 1555.24237576 22.8347745875 1401.18228786 0 1240 0 c 2
 305 0 l 1
 305 -34.3659404524 327 -148.934576657 327 -183 c 0
 327 -223.666666667 312.666666667 -244 284 -244 c 0
 256 -244 242 -224 242 -184 c 0
 242 -152.988902982 266 -49.6903363214 266 -19 c 0
 266 19 258 38 242 38 c 0
 214.762397004 38 205 -18.2276678134 205 -46 c 0
EndSplineSet
EndChar

StartChar: C
Encoding: 67 67 39
Width: 1951
GlyphClass: 2
Flags: HW
LayerCount: 2
Fore
SplineSet
693 -499 m 0
 693 -410.806132212 710.784083903 -107.898210672 712 -24 c 1
 326.492150406 30.3502869919 78 251.162568125 78 679 c 0
 78 1198.82118065 475.729555418 1375 993 1375 c 0
 1489.66666667 1375 1767.33333333 1232.33333333 1826 947 c 0
 1834 905.666666667 1851.66666667 874 1879 852 c 1
 1862 830 l 1
 1830 854 1795.33333333 864.333333333 1758 861 c 1
 1373 837 l 2
 1328.33333333 833.666666667 1299.33333333 817.333333333 1286 788 c 1
 1253 804 l 1
 1259.66666667 818.666666667 1263 831.333333333 1263 842 c 0
 1263 959.522785501 1138.21916325 1000.05005011 1037.5 1018 c 128
 1003.83333333 1024 971.666666667 1027 941 1027 c 0
 743.133059238 1027 628 873.544726211 628 676 c 0
 628 449.901731075 758.124115641 302 984 302 c 0
 1076.7883189 302 1169.1037283 353.158959514 1222.5 405 c 128
 1256.83333333 438.333333333 1274 473.666666667 1274 511 c 0
 1274 521.666666667 1270.33333333 535 1263 551 c 1
 1296 568 l 1
 1312 538 1341 521.333333333 1383 518 c 0
 1503.53287189 509.781849644 1667.90913542 491 1795 491 c 0
 1828.33333333 491 1859 501.333333333 1887 522 c 1
 1903 501 l 1
 1878.33333333 482.333333333 1860.33333333 451 1849 407 c 0
 1821.90148851 291.83132618 1741.884725 195.921127629 1656.5 137.5 c 128
 1529.0887019 50.3238486651 1355.16957446 -1.597300075 1171 -27 c 1
 1171 -130.22242549 1219 -469.112308053 1219 -572 c 0
 1219 -609.551280059 1199.74587977 -649 1162 -649 c 128
 1124.27551124 -649 1104 -609.550755356 1104 -572 c 0
 1104 -487.162346592 1137 -203.535618448 1137 -119 c 0
 1137 -37.4791693736 1106.72028463 -27 1024 -27 c 0
 1018 -27 1018 -27 1015 -27 c 0
 981.664442353 -27 892 -32.4237371507 892 -64 c 0
 892 -116.039535363 916 -284.007982142 916 -336 c 0
 916 -379.333333333 903.333333333 -401 878 -401 c 0
 850.518771333 -401 840 -365.466758135 840 -338 c 0
 840 -284.627131303 867 -115.325351192 867 -62 c 0
 867 -44.822980662 858.333333333 -30 841 -30 c 0
 813.219045969 -30 755 -34.3399231776 755 -61 c 0
 755 -141.686355618 766 -413.391940271 766 -494 c 0
 766 -515.829542492 749.670368406 -538 728 -538 c 128
 706.744823664 -538 693 -520.150325181 693 -499 c 0
EndSplineSet
EndChar

StartChar: D
Encoding: 68 68 40
Width: 1968
GlyphClass: 2
Flags: HW
LayerCount: 2
Fore
SplineSet
718 -418 m 1
 730.9717533 -474.210930965 752 -530.22805213 752 -598 c 0
 752 -630.666666667 741 -647 719 -647 c 0
 696.333333333 -647 685 -631.333333333 685 -600 c 0
 685 -539.801077726 708.743419064 -468.911195148 718 -418 c 1
1326 698 m 0
 1326 810.768511779 1286.13116098 895.726549852 1216 935 c 128
 1152.81142073 970.385604389 1070.85555627 989.398756203 977 991.5 c 128
 892.650619022 993.388418977 814.070281091 991.207349404 743 1004 c 128
 709.666666667 1010 685.333333333 1020.66666667 670 1036 c 1
 650 1016 l 1
 675.333333333 991.333333333 688 958 688 916 c 2
 688 686 l 2
 688 532.666666667 688.666666667 418 690 342 c 1
 917 342 l 2
 1068.87403032 342 1196.05086752 356.738008753 1261.5 441.5 c 128
 1306.79989905 500.167082376 1326 588.427442164 1326 698 c 0
688 -247 m 0
 688 -219.858121666 709 -132.117039638 709 -105 c 0
 709 -7 604.333333333 42 395 42 c 0
 316.470837555 42 299 7.68941273442 299 -76 c 0
 299 -133.185159039 335 -335.129854105 335 -392 c 0
 335 -433.333333333 319.333333333 -454 288 -454 c 0
 259.333333333 -454 245 -434.666666667 245 -396 c 0
 245 -327.779631432 273 -102.929208319 273 -35 c 0
 273 -7.23974656904 263.226887763 50 236 50 c 0
 220 50 212 31 212 -7 c 0
 212 -37.6008673 236 -142.140734389 236 -173 c 0
 236 -212.333333333 222 -232 194 -232 c 0
 165.333333333 -232 151 -212 151 -172 c 0
 151 -138.023851474 174 -22.2132838744 174 12 c 0
 174 24.6517080237 173 165.246874172 173 178 c 2
 173 1251 l 2
 173 1292.33333333 160 1325.66666667 134 1351 c 1
 154 1372 l 1
 181.333333333 1345.33333333 214.666666667 1332 254 1332 c 2
 1080 1332 l 2
 1540.29442507 1332 1862 1153.84679369 1862 693 c 0
 1862 556.826814116 1841.38470175 434.206973679 1807 337.5 c 128
 1776.83985172 252.674582976 1713.76585152 180.498568485 1652.5 130.5 c 128
 1598.74441655 86.6305008599 1495.63547156 49.8873485262 1418 31.5 c 128
 1347.78497516 14.8701256964 1207.57061219 4.56274582401 1123 2 c 128
 1079 0.666666666667 1024 0 958 0 c 2
 813 0 l 2
 748.58929073 0 729 -58.4443237253 729 -120 c 0
 729 -145.108879711 745 -222.912719155 745 -248 c 0
 745 -273.333333333 736.333333333 -286 719 -286 c 0
 698.333333333 -286 688 -273 688 -247 c 0
EndSplineSet
EndChar

StartChar: E
Encoding: 69 69 41
Width: 1792
GlyphClass: 2
Flags: HW
LayerCount: 2
Fore
SplineSet
721 166 m 0
 721 188.019767682 705 268.003991071 705 290 c 2
 705 301 l 1
 719 325.666666667 738 338 762 338 c 2
 1578 337 l 2
 1618.66666667 337 1651.66666667 350 1677 376 c 1
 1697 356 l 1
 1659.66666667 287.333333333 1641 163 1641 -17 c 0
 1641 -59.719900517 1678 -303.319191371 1678 -347 c 0
 1678 -380.734320752 1663.74156339 -417 1634 -417 c 128
 1602.5207865 -417 1589 -375.021227566 1589 -338 c 0
 1589 -302.067523085 1605 -153.681054044 1605 -117 c 0
 1605 -20.9223189587 1575.16190119 60 1490 60 c 0
 1410.66666667 60 1371 0.333333333333 1371 -119 c 0
 1371 -165 1377.83333333 -231.666666667 1391.5 -319 c 128
 1405.16666667 -406.333333333 1412 -462 1412 -486 c 0
 1412 -520.074684895 1393.2245051 -551 1362 -551 c 0
 1332.54238654 -551 1314 -522.004703321 1314 -490 c 0
 1314 -441.466380086 1332 -221.716950907 1332 -171 c 0
 1332 -54.3333333333 1307 4 1257 4 c 0
 1242.55227153 4 1196.46174041 2 1181 2 c 2
 395 2 l 2
 308.651912709 2 254.185310247 -16.9890249391 233.5 -82 c 128
 216.517862908 -135.372430861 216 -181.708065634 216 -258 c 0
 216 -342.260480889 262 -616.072299358 262 -700 c 0
 262 -771.333333333 236.666666667 -807 186 -807 c 0
 131.333333333 -807 104 -770.333333333 104 -697 c 0
 104 -647 115 -573 137 -475 c 128
 159 -377 170 -302.666666667 170 -252 c 0
 170 -189.056192136 165 20.1161289893 165 83 c 2
 165 1249 l 2
 165 1290.33333333 152.333333333 1323.33333333 127 1348 c 1
 147 1369 l 1
 174.333333333 1343 207.666666667 1330 247 1330 c 2
 1531 1330 l 2
 1571.66666667 1330 1605 1343 1631 1369 c 1
 1651 1348 l 1
 1615.29138209 1312.29138209 1607 1246.76082222 1607 1175.5 c 130
 1607 1131 l 2
 1607 1055.66666667 1621.66666667 1004 1651 976 c 1
 1631 957 l 1
 1597.66666667 991 1519.33333333 1008 1396 1008 c 0
 1302.75920453 1008 992.151700151 985 899 985 c 0
 776.333333333 985 698.333333333 1002 665 1036 c 1
 644 1016 l 1
 670 990.666666667 683 957.666666667 683 917 c 0
 683 874.333333333 670 840.333333333 644 815 c 1
 665 796 l 1
 697 829.333333333 764.333333333 846 867 846 c 0
 945.653356994 846 1207.42169906 823 1286 823 c 0
 1389.33333333 823 1457.66666667 839.666666667 1491 873 c 1
 1512 853 l 1
 1482.66666667 823.666666667 1468 762.333333333 1468 669 c 2
 1468 630.5 l 130
 1468 565.303149142 1479.29797804 511.702021959 1512 479 c 1
 1491 458 l 1
 1459 491.333333333 1391.33333333 508 1288 508 c 0
 1209.34664301 508 947.578300935 486 869 486 c 0
 766.333333333 486 698.333333333 502.666666667 665 536 c 1
 645 516 l 1
 673 487.333333333 687 437.333333333 687 366 c 0
 687 351.01211576 685 302.292764213 685 288 c 0
 685 265.557786956 668 190.420614178 668 168 c 0
 668 144 677 132 695 132 c 0
 712.333333333 132 721 143.333333333 721 166 c 0
EndSplineSet
EndChar

StartChar: F
Encoding: 70 70 42
Width: 1765
GlyphClass: 2
Flags: HW
LayerCount: 2
Fore
SplineSet
681 -399 m 0
 681 -345.943965325 716 -173.006897255 716 -120 c 0
 716 -61.3503694893 666.651396513 0 608 0 c 0
 541.333333333 0 508 -81 508 -243 c 0
 508 -307.606575382 538 -521.217414557 538 -586 c 0
 538 -619.073234967 521.854343882 -652 489 -652 c 0
 455.274937588 -652 437 -616.603269668 437 -583 c 0
 437 -521.983579419 472 -323.96026353 472 -263 c 0
 472 -140.336807252 447.025719425 21 324 21 c 0
 252.651308314 21 191 -47.8366086952 191 -119 c 0
 191 -145.653435725 219 -222.367083198 219 -249 c 0
 219 -278.333333333 208.333333333 -293 187 -293 c 0
 165 -293 154 -278.333333333 154 -249 c 0
 154 -218.49178971 178 -119.480131765 178 -89 c 2
 177 1184 l 2
 177 1262.66666667 153 1328.33333333 105 1381 c 1
 125 1401 l 1
 178.333333333 1353.66666667 244 1330 322 1330 c 2
 1476 1330 l 2
 1554 1330 1619.66666667 1353.66666667 1673 1401 c 1
 1693 1381 l 1
 1645.66666667 1327.66666667 1622 1262 1622 1184 c 0
 1622 1065.02796458 1634.7891447 1005.97230267 1693 940 c 1
 1673 920 l 1
 1645.97011397 956.039848044 1599.25595595 991 1541 991 c 2
 782 991 l 2
 744.666666667 991 712.666666667 1003.66666667 686 1029 c 1
 667 1010 l 1
 692.333333333 983.333333333 705 951.333333333 705 914 c 0
 705 875.333333333 692.333333333 842.666666667 667 816 c 1
 686 797 l 1
 730.158369109 839.820236712 789.692804889 847 876 847 c 128
 948.237527103 847 1183.82942938 826 1256 826 c 0
 1384.1665354 826 1476.37296866 842.985793417 1543 907 c 1
 1563 887 l 1
 1513 832.333333333 1488 750 1488 640 c 0
 1488 556.666666667 1511 491 1557 443 c 1
 1536 423 l 1
 1475.33333333 477 1377.33333333 504 1242 504 c 0
 1172.64036225 504 937.291601328 483 868 483 c 0
 787.397204194 483 722.395663641 491.604336359 681 533 c 1
 662 513 l 1
 686.666666667 487.666666667 699 454.333333333 699 413 c 0
 699 374.848237825 691 247.115044103 691 209 c 0
 691 146.755857426 744 -53.8125544493 744 -116 c 0
 744 -170.494979349 778 -343.553618099 778 -398 c 0
 778 -441.333333333 762 -463 730 -463 c 0
 697.333333333 -463 681 -441.666666667 681 -399 c 0
EndSplineSet
EndChar

StartChar: G
Encoding: 71 71 43
Width: 1991
GlyphClass: 2
Flags: HW
LayerCount: 2
Fore
SplineSet
1857 251 m 2
 1857 204.977255193 1867.85862619 186.306893592 1900 169 c 1
 1884 140 l 1
 1872 146 1859 149 1845 149 c 0
 1829 149 1811.33333333 142.666666667 1792 130 c 0
 1637.33333333 26.6666666667 1417.33333333 -31.3333333333 1132 -44 c 1
 1132 -140 l 2
 1132 -162.673884722 1148 -228.647898105 1148 -251 c 0
 1148 -276.271671954 1137.00833387 -301 1115 -301 c 0
 1094.62384819 -301 1083 -278.302236887 1083 -255 c 0
 1083 -227.156106029 1099 -175.053774978 1099 -142 c 0
 1099 -76.6666666667 1096 -44 1090 -44 c 0
 959.333333333 -44 822 -35 678 -17 c 1
 673.020915853 -15.3403052842 669 -148.474110949 669 -175 c 0
 669 -241.415751161 706 -460.64688555 706 -527 c 0
 706 -567.380430994 688.971799383 -607 649 -607 c 0
 613.312627991 -607 583 -573.607839674 583 -538 c 0
 583 -494 594 -432.166666667 616 -352.5 c 128
 638 -272.833333333 649 -210.666666667 649 -166 c 2
 649 -10 l 1
 300.46223892 68.3908459177 78 277.037709387 78 679 c 0
 78 989.305079577 219.299938653 1174.7902929 429.5 1276.5 c 128
 567.902218559 1343.46881543 726.447804082 1375 926 1375 c 0
 1230.15613479 1375 1481.75439629 1314.40785775 1652.5 1189.5 c 128
 1736.38003769 1128.13809323 1797.17848066 1061.40506448 1827 962 c 128
 1839 922 1860.33333333 891.333333333 1891 870 c 1
 1876 850 l 1
 1848.66666667 870 1812.66666667 880 1768 880 c 1
 1346 866 l 1
 1299.74283223 863.196535287 1277.85640402 851.712808049 1261 818 c 1
 1228 834 l 1
 1233.33333333 845.333333333 1236 857.333333333 1236 870 c 0
 1236 886.666666667 1227.33333333 907 1210 931 c 0
 1149.27643936 1010.51894845 1079.84828882 1033 934 1033 c 0
 725.982718093 1033 626 891.200790964 626 685 c 0
 626 442.0485879 775.361599093 292 1019 292 c 0
 1121.66666667 292 1202.33333333 299.333333333 1261 314 c 0
 1271.66666667 316.666666667 1279.33333333 318 1284 318 c 0
 1299.33333333 318 1317.33333333 310 1338 294 c 1
 1350 310 l 1
 1324.69953036 329.800367545 1312 342.45475879 1312 380 c 2
 1312 388 l 2
 1312 414.666666667 1324 440 1348 464 c 1
 1334 477 l 1
 1310 453 1285 441 1259 441 c 2
 1162 441 l 2
 1121.33333333 441 1088 428 1062 402 c 1
 1041 423 l 1
 1067.66666667 449.666666667 1081 482.666666667 1081 522 c 2
 1081 670 l 2
 1081 710 1067.66666667 743.333333333 1041 770 c 1
 1062 790 l 1
 1087.33333333 764.666666667 1120.66666667 752 1162 752 c 2
 1776 752 l 2
 1817.33333333 752 1850.66666667 764.666666667 1876 790 c 1
 1895 770 l 1
 1869.66666667 744.666666667 1857 711.333333333 1857 670 c 2
 1857 251 l 2
EndSplineSet
EndChar

StartChar: H
Encoding: 72 72 44
Width: 1960
GlyphClass: 2
Flags: HW
LayerCount: 2
Fore
SplineSet
1257 974 m 0
 1257 1014.11856308 1273 1162.13246186 1273 1202 c 0
 1273 1270 1257.33333333 1319.66666667 1226 1351 c 1
 1246 1372 l 1
 1273.33333333 1345.33333333 1306.66666667 1332 1346 1332 c 2
 1699 1332 l 2
 1739 1332 1772.33333333 1345.33333333 1799 1372 c 1
 1819 1351 l 1
 1793 1325 1780 1291.66666667 1780 1251 c 2
 1780 81 l 2
 1780 41 1793 7.66666666667 1819 -19 c 1
 1799 -39 l 1
 1773 -13 1739.66666667 0 1699 0 c 2
 1346 0 l 2
 1305.33333333 0 1272 -13 1246 -39 c 1
 1226 -19 l 1
 1251.33333333 6.33333333333 1264 39.6666666667 1264 81 c 2
 1262 417 l 2
 1262 457 1274.66666667 490 1300 516 c 1
 1280 536 l 1
 1254.66666667 510.666666667 1221.33333333 498 1180 498 c 2
 770 498 l 2
 729.333333333 498 696 510.666666667 670 536 c 1
 650 516 l 1
 651.333333333 500.666666667 652 420 652 274 c 2
 652 -177 l 2
 652 -282.280409567 698 -587.801666123 698 -693 c 0
 698 -740.475492275 682.204823454 -790 642 -790 c 128
 602.937425724 -790 586 -742.236820176 586 -697 c 0
 586 -692.333333333 589.333333333 -659.166666667 596 -597.5 c 128
 607.33403817 -492.66014693 626 -291.84574848 626 -180 c 0
 626 -82.3988408259 553.712733255 -13.0209954873 481.5 15.5 c 128
 441.833333333 31.1666666667 401 39 359 39 c 0
 268.946827605 39 187 -3.5572266356 187 -91 c 0
 187 -157.415751161 226 -376.64688555 226 -443 c 0
 226 -483.272141694 208.4835555 -522 168 -522 c 0
 132.286575658 -522 103 -489.633983696 103 -454 c 0
 103 -410 113.833333333 -348 135.5 -268 c 128
 157.166666667 -188 168 -125.666666667 168 -81 c 2
 168 1251 l 2
 168 1293 155.333333333 1326.33333333 130 1351 c 1
 149 1372 l 1
 176.333333333 1345.33333333 209.666666667 1332 249 1332 c 2
 608 1332 l 2
 647.333333333 1332 680.333333333 1345.33333333 707 1372 c 1
 728 1351 l 1
 697.333333333 1320.33333333 682 1270.33333333 682 1201 c 0
 682 1161.09631224 697 1010.65916266 697 971 c 0
 697 902.333333333 681.333333333 852.333333333 650 821 c 1
 670 800 l 1
 696 826 729.333333333 839 770 839 c 2
 1184 839 l 2
 1224.66666667 839 1257.66666667 826 1283 800 c 1
 1304 821 l 1
 1272.66666667 853 1257 904 1257 974 c 0
EndSplineSet
EndChar

StartChar: I
Encoding: 73 73 45
Width: 882
GlyphClass: 2
Flags: HW
LayerCount: 2
Fore
SplineSet
638 -539 m 0
 638 -488.082575289 649 -323.870987149 649 -273 c 0
 649 -209.497433913 650.184387583 -148.32738884 636 -97.5 c 128
 627.635288626 -67.5264509112 613.655811763 -27.6558117633 594 -8 c 128
 557.0872179 28.9127821002 509.83762204 50 434 50 c 0
 300.274132626 50 211 -64.2759860241 211 -198 c 0
 211 -240.745816124 241 -382.294681749 241 -425 c 0
 241 -473 224.333333333 -497 191 -497 c 0
 156.333333333 -497 139 -473.666666667 139 -427 c 0
 139 -382.613028251 170 -236.626174641 170 -192 c 0
 170 -142.263794181 177 26.1436855788 177 76 c 2
 177 1251 l 2
 177 1292.33333333 164 1325.66666667 138 1351 c 1
 158 1372 l 1
 186 1345.33333333 219.333333333 1332 258 1332 c 2
 620 1332 l 2
 660 1332 693.333333333 1345.33333333 720 1372 c 1
 740 1351 l 1
 714 1325 701 1291.66666667 701 1251 c 2
 701 81 l 2
 701 16.6889240829 678.992359249 -225.868197037 683 -295 c 1
 682 -295 l 1
 706.666666667 -405.666666667 719 -492.666666667 719 -556 c 0
 719 -608.666666667 708 -635 686 -635 c 0
 640.620551744 -635 638 -583.762281812 638 -539 c 0
EndSplineSet
EndChar

StartChar: J
Encoding: 74 74 46
Width: 1650
GlyphClass: 2
Flags: HW
LayerCount: 2
Fore
SplineSet
1192 -814 m 128
 1175.33333333 -814 1167 -802 1167 -778 c 0
 1167 -722 1175.33333333 -658.333333333 1192 -587 c 1
 1208.66666667 -657 1217 -720.333333333 1217 -777 c 0
 1217 -801.666666667 1208.66666667 -814 1192 -814 c 128
760 297 m 0
 905.203071671 297 983 387.111115036 983 532 c 2
 984 1251 l 2
 984 1293 971.333333333 1326.33333333 946 1351 c 1
 966 1372 l 1
 992.666666667 1345.33333333 1026 1332 1066 1332 c 2
 1414 1332 l 2
 1454.66666667 1332 1488 1345.33333333 1514 1372 c 1
 1534 1351 l 1
 1508 1325.66666667 1495 1292.33333333 1495 1251 c 2
 1495 473 l 2
 1495 255 1395.33333333 104.666666667 1196 22 c 1
 1195 22 l 1
 1195 -195 l 2
 1195 -234.085038131 1228 -361.258631382 1228 -400 c 0
 1228 -436 1213.66666667 -454 1185 -454 c 0
 1160.33333333 -454 1148 -437 1148 -403 c 0
 1148 -367.290829746 1174 -251.388249216 1174 -216 c 0
 1174 -132.261853307 1098.26424865 -72.9985326964 1033.5 -49.5 c 128
 995.833333333 -35.8333333333 958.666666667 -29 922 -29 c 0
 874.457670453 -29 850 -69.2026920558 850 -117 c 0
 850 -170.478480037 886 -338.568497496 886 -392 c 0
 886 -419.428642724 873.450306415 -457 846 -457 c 0
 815.492272267 -457 804 -415.676711485 804 -385 c 0
 804 -329.59413268 828 -150.355109985 828 -95 c 0
 828 -50.7464924175 778.042041545 -21 734 -21 c 0
 704.666666667 -21 690 -57.3333333333 690 -130 c 0
 690 -158.963654276 710 -259.065504193 710 -288 c 0
 710 -315.52129224 701.023043952 -364 674 -364 c 0
 654 -364 644 -339.333333333 644 -290 c 0
 644 -254.89773576 672 -142.070405913 672 -107 c 0
 672 -59.6182912975 651.553841766 -41.1239813843 608 -36 c 1
 402.288229894 -5.46465912489 238.418712665 53.3103534973 142 181 c 128
 97.9756528493 239.302513794 84.0601583725 295.006529968 71 375 c 128
 58.3621763556 452.406669822 70.0626298191 543.996594372 22 587 c 1
 31 597 l 1
 50.3333333333 579 67.6666666667 570 83 570 c 0
 208.919923898 570 360.910850674 607.863856334 474 622 c 0
 513.333333333 626 545 643 569 673 c 1
 591 656 l 1
 569.666666667 629.333333333 559 599.333333333 559 566 c 0
 559 421.443390993 614.704159991 297 760 297 c 0
EndSplineSet
EndChar

StartChar: K
Encoding: 75 75 47
Width: 1978
GlyphClass: 2
Flags: HW
LayerCount: 2
Fore
SplineSet
651 376 m 1
 683.636772688 359.681613656 696 340.33506557 696 294 c 2
 696 81 l 2
 696 40.3333333333 709 7 735 -19 c 1
 715 -39 l 1
 689 -13 655.666666667 0 615 0 c 2
 268 0 l 2
 227.333333333 0 194 -13 168 -39 c 1
 148 -19 l 1
 174 7 187 40.3333333333 187 81 c 2
 187 1251 l 2
 187 1291.66666667 174 1325 148 1351 c 1
 168 1372 l 1
 194.666666667 1345.33333333 228 1332 268 1332 c 2
 615 1332 l 2
 655 1332 688.333333333 1345.33333333 715 1372 c 1
 735 1351 l 1
 709 1325 696 1291.66666667 696 1251 c 2
 696 940 l 2
 696 900 688 861.666666667 672 825 c 1
 687 819 l 1
 702.333333333 855 724.666666667 887 754 915 c 2
 1131 1276 l 2
 1158.08397494 1301.90641081 1169.78699221 1318.0433593 1156 1364 c 1
 1191 1377 l 1
 1205.04025647 1343.81393924 1224.59444596 1332 1270 1332 c 2
 1772 1332 l 2
 1809.33333333 1332 1848 1339.33333333 1888 1354 c 1
 1893 1340 l 1
 1855.66666667 1326 1822 1305.66666667 1792 1279 c 2
 1386 926 l 2
 1356.66666667 899.333333333 1323.66666667 888.333333333 1287 893 c 1
 1283 862 l 1
 1319 858.666666667 1348.33333333 840 1371 806 c 2
 1889 67 l 2
 1911.66666667 33.6666666667 1940.33333333 7.66666666667 1975 -11 c 1
 1966 -27 l 1
 1932 -9 1894.66666667 0 1854 0 c 2
 1371 0 l 2
 1324.21146963 0 1304.41684206 -12.6544361753 1287 -45 c 1
 1255 -28 l 1
 1275.125863 13.6892876472 1267.72436263 32.6509914567 1245 68 c 1
 959 490 l 2
 937 524 928.333333333 559.333333333 933 596 c 1
 906 599 l 1
 901.333333333 563 883 532 851 506 c 1
 759 427 l 1
 727.80273696 401.802210622 710.922591634 392.339706621 667 409 c 1
 651 376 l 1
EndSplineSet
EndChar

StartChar: L
Encoding: 76 76 48
Width: 1672
GlyphClass: 2
Flags: HW
LayerCount: 2
Fore
SplineSet
1174 -263 m 1
 1184.95055833 -317.752791643 1208 -373.697241246 1208 -438 c 0
 1208 -469.333333333 1196.66666667 -485 1174 -485 c 128
 1151.33333333 -485 1140 -468.666666667 1140 -436 c 0
 1140 -372.807174689 1163.4680925 -315.659537521 1174 -263 c 1
118 -611 m 0
 118 -532.135420325 172 -272.79060356 172 -194 c 2
 171 1251 l 2
 171 1291.66666667 157.666666667 1325 131 1351 c 1
 152 1372 l 1
 179.333333333 1345.33333333 212.666666667 1332 252 1332 c 2
 610 1332 l 2
 650.666666667 1332 684 1345.33333333 710 1372 c 1
 731 1351 l 1
 704.333333333 1325 691 1291.66666667 691 1251 c 2
 691 426 l 2
 691 386 678 353 652 327 c 1
 673 306 l 1
 707 340 781.333333333 357 896 357 c 0
 974.11206935 357 1291.98620549 333 1370 333 c 0
 1484 333 1558 350 1592 384 c 1
 1613 364 l 1
 1586.33333333 338 1573 304.666666667 1573 264 c 0
 1573 241.266487775 1569 157.957945744 1569 134 c 0
 1569 61.3333333333 1583.66666667 10.3333333333 1613 -19 c 1
 1592 -39 l 1
 1566.66666667 -13 1533.33333333 0 1492 0 c 2
 1201 0 l 1
 1201.66666667 -9.33333333333 1202 -21.6666666667 1202 -37 c 0
 1202 -74.3333333333 1192.66666667 -93 1174 -93 c 128
 1155.33333333 -93 1146 -72 1146 -30 c 0
 1146 -17.3333333333 1146.33333333 -7.33333333333 1147 0 c 1
 252 0 l 2
 217.455920239 0 193 -175.667010435 193 -209 c 0
 193 -285.620358371 241 -537.451457858 241 -614 c 0
 241 -669.333333333 221.333333333 -697 182 -697 c 0
 139.333333333 -697 118 -668.333333333 118 -611 c 0
EndSplineSet
EndChar

StartChar: M
Encoding: 77 77 49
Width: 2417
GlyphClass: 2
Flags: HW
LayerCount: 2
Fore
SplineSet
1191 56 m 0
 1117.8072349 56 1033 16.8982591326 1033 -52 c 0
 1033 -72.092380399 1045 -140.927598552 1045 -161 c 0
 1045 -185.666666667 1036.66666667 -198 1020 -198 c 0
 1000.66666667 -198 991 -184.666666667 991 -158 c 0
 991 -122.573124197 1009 -6.64107159558 1009 29 c 0
 1009 64.3333333333 994.166666667 124.333333333 964.5 209 c 128
 900.81949135 390.739878618 824.13047718 558.272025508 756 745 c 128
 720 843.666666667 697 920.666666667 687 976 c 1
 632 976 l 1
 660 938.666666667 674 898.666666667 674 856 c 2
 674 -132 l 2
 674 -155.911521247 694 -275.213844025 694 -300 c 0
 694 -335.333333333 681.666666667 -353 657 -353 c 0
 633.666666667 -353 622 -336 622 -302 c 0
 622 -278.679134374 644 -160.803809114 644 -138 c 0
 644 -75.0448104783 620.266370693 -67.0804087401 556 -56 c 128
 517.333333333 -49.3333333333 456.666666667 -46 374 -46 c 0
 266 -46 212 -46.6666666667 212 -48 c 0
 212 -48.1055326098 217 -179.948464555 217 -180 c 0
 217 -195.333333333 209.333333333 -203 194 -203 c 128
 178.666666667 -203 171 -196 171 -182 c 0
 171 -180.521963944 177 -44.0378289415 177 -43 c 2
 177 1186 l 2
 177 1264.66666667 153 1330.33333333 105 1383 c 1
 126 1404 l 1
 180.666666667 1356 246.333333333 1332 323 1332 c 2
 834 1332 l 2
 921.333333333 1332 984 1357.33333333 1022 1408 c 1
 1048 1389 l 1
 1014 1339.66666667 997 1289.33333333 997 1238 c 0
 997 1206 1007.66666667 1164.83333333 1029 1114.5 c 128
 1073.81640168 1008.7613023 1126.78986224 929.546358165 1169.5 818.5 c 128
 1191.16666667 762.166666667 1202 712.666666667 1202 670 c 1
 1216 670 l 1
 1216 771.219764028 1277.90726751 900.310182192 1318 971 c 128
 1343.33333333 1015.66666667 1366.5 1063 1387.5 1113 c 128
 1408.5 1163 1419 1204.33333333 1419 1237 c 0
 1419 1289.66666667 1402.33333333 1340.33333333 1369 1389 c 1
 1395 1408 l 1
 1433 1357.33333333 1495.66666667 1332 1583 1332 c 2
 2095 1332 l 2
 2172.33333333 1332 2238 1356 2292 1404 c 1
 2312 1383 l 1
 2264.66666667 1329.66666667 2241 1264 2241 1186 c 2
 2241 81 l 2
 2241 50.3333333333 2240.33333333 17 2239 -19 c 1
 2219 -39 l 1
 2205.66666667 -13 2186 0 2160 0 c 2
 1823 0 l 2
 1793.56743326 0 1765 -47.784705335 1765 -77 c 0
 1765 -100.775546377 1782 -177.246052489 1782 -201 c 0
 1782 -225 1773 -237 1755 -237 c 0
 1738.33333333 -237 1730 -222.666666667 1730 -194 c 0
 1730 -173.384625707 1744 -103.868501606 1744 -83 c 2
 1742 81 l 1
 1742 856 l 2
 1742 897.333333333 1756.66666667 937.666666667 1786 977 c 1
 1731 977 l 1
 1703.04044792 838.94971162 1605.77443896 601.454552402 1551 469 c 128
 1514.33333333 380.333333333 1481.33333333 293.333333333 1452 208 c 128
 1422.66666667 122.666666667 1408 63 1408 29 c 2
 1410 -191 l 2
 1410 -232.116148028 1443 -365.620431122 1443 -407 c 0
 1443 -445 1428.66666667 -464 1400 -464 c 0
 1370 -464 1355 -444.666666667 1355 -406 c 0
 1355 -363.042961195 1391 -223.917620875 1391 -181 c 0
 1391 -42.0804640826 1317.72656234 56 1191 56 c 0
EndSplineSet
EndChar

StartChar: N
Encoding: 78 78 50
Width: 2009
GlyphClass: 2
Flags: HW
LayerCount: 2
Fore
SplineSet
1800 -45 m 0
 1800 -19.8490329946 1765.78430888 0 1741 0 c 2
 1346 0 l 2
 1290 0 1262 -51 1262 -153 c 0
 1262 -223.819102593 1309 -445.808702016 1309 -516 c 0
 1309 -574 1287.66666667 -603 1245 -603 c 0
 1201 -603 1179 -573.666666667 1179 -515 c 0
 1179 -451.854248287 1229.8622789 -252.436939576 1231 -191 c 2
 1233 -58 l 1
 1235 4 1228.66666667 44.3333333333 1214 63 c 2
 735 670 l 2
 722.333333333 686.666666667 708.333333333 721.333333333 693 774 c 1
 632 772 l 1
 666.666666667 736 684 696 684 652 c 2
 684 81 l 2
 684 -13.0460721033 703 -331.045723077 703 -425 c 0
 703 -446.150967005 689.254901268 -464 668 -464 c 0
 645.463594996 -464 629 -442.405226449 629 -420 c 0
 629 -348.184918259 641 -107.74596537 641 -36 c 0
 641 -20.2084186605 626.84313587 -4 611 -4 c 0
 593.666666667 -4 585 -19.8496748187 585 -37 c 0
 585 -90.3728686966 612 -259.674648808 612 -313 c 0
 612 -339.777464098 601.495577679 -376 575 -376 c 0
 545.796850453 -376 537 -339.45376939 537 -310 c 0
 537 -258.605505184 561 -90.1078450454 561 -39 c 0
 561 7.5816422073 492.923650513 33.3199005777 451.5 40.5 c 128
 426.5 44.8333333333 403 47 381 47 c 0
 306.867854747 47 205 29.4909246395 205 -45 c 0
 205 -101.950423334 251 -280.099254057 251 -337 c 0
 251 -374.582119358 231.749181128 -413 194 -413 c 128
 156.272200131 -413 136 -374.581756917 136 -337 c 0
 136 -279.53579628 185 -97.0992240066 185 -40 c 2
 184 1186 l 2
 184 1264.66666667 160 1330.33333333 112 1383 c 1
 133 1404 l 1
 187 1356 252.666666667 1332 330 1332 c 2
 629 1332 l 2
 719.41140475 1332 774.366904077 1349.9954662 809 1409 c 1
 842 1393 l 1
 824.666666667 1351.66666667 816 1312.66666667 816 1276 c 0
 816 1259.33333333 831 1230.5 861 1189.5 c 128
 971.275105379 1038.79068932 1127.55373805 885.088905227 1239.5 732 c 128
 1278.5 678.666666667 1304 635.333333333 1316 602 c 1
 1376 602 l 1
 1343.33333333 650 1327 717.666666667 1327 805 c 0
 1327 873.554361124 1357 1101.51097544 1357 1170 c 0
 1357 1279.33333333 1322.33333333 1350.33333333 1253 1383 c 1
 1274 1404 l 1
 1328 1356 1393.66666667 1332 1471 1332 c 2
 1676 1332 l 2
 1753.33333333 1332 1819 1356 1873 1404 c 1
 1893 1383 l 1
 1845.66666667 1329.66666667 1822 1264 1822 1186 c 2
 1820 -35 l 2
 1820 -83.356369385 1860 -243.689528205 1860 -292 c 0
 1860 -334.666666667 1843.66666667 -356 1811 -356 c 128
 1778.33333333 -356 1762 -334.666666667 1762 -292 c 0
 1762 -244.343295905 1800 -92.614046335 1800 -45 c 0
EndSplineSet
EndChar

StartChar: O
Encoding: 79 79 51
Width: 1986
GlyphClass: 2
Flags: HW
LayerCount: 2
Fore
SplineSet
981 1022 m 128
 757.312627991 1022 633 899.738559783 633 676 c 0
 633 432 749 310 981 310 c 128
 1213 310 1329 432 1329 676 c 0
 1329 899.739476674 1204.68627174 1022 981 1022 c 128
494 -410 m 0
 494 -329.181025408 552 -69.0335554894 552 12 c 1
 262.391919064 103.648126879 76 314.285182412 76 677 c 0
 76 1194.9327195 465.451272063 1375 981 1375 c 0
 1398.10996414 1375 1712.76160629 1255.9840646 1835 956.5 c 128
 1868.33333333 874.833333333 1885 781.666666667 1885 677 c 0
 1885 228.901959098 1609.43607524 16.3602546312 1199 -34 c 1
 1196.33333333 -38.6666666667 1195 -46 1195 -56 c 0
 1195 -64.7865660167 1200 -102.997589641 1200 -111 c 0
 1200 -131.823308841 1191.7664019 -162 1171 -162 c 0
 1153 -162 1144 -145.666666667 1144 -113 c 0
 1144 -103.049975625 1147 -65.7414138896 1147 -57 c 0
 1147 -36.578943803 1124.40530427 -27 1104 -27 c 1
 1101.33333333 -33 1100 -44.3333333333 1100 -61 c 0
 1100 -75.2721832749 1105 -144.726409799 1105 -158 c 0
 1105 -194.522891447 1093.21848931 -244 1057 -244 c 0
 1026.33333333 -244 1011 -216.666666667 1011 -162 c 0
 1011 -145.574120838 1018 -79.8327800398 1018 -66 c 0
 1018 -31.872217693 977.159980078 -14 943 -14 c 0
 905.320337806 -14 870 -34.260519615 870 -72 c 2
 870 -302 l 2
 870 -358.739200653 912 -539.311556682 912 -596 c 0
 912 -638.23510826 887.112564472 -683 845 -683 c 0
 801.063198755 -683 781 -636.214317578 781 -592 c 0
 781 -526.772116295 827 -320.911664951 827 -254 c 0
 827 -89.3333333333 796.333333333 -7 735 -7 c 0
 652.333333333 -7 611 -3.66666666667 611 3 c 2
 611 1 l 2
 611 -76.7613603102 672 -325.609372913 672 -403 c 0
 672 -463.7729766 646.402659688 -526 586 -526 c 0
 528.363621846 -526 494 -467.32983204 494 -410 c 0
EndSplineSet
EndChar

StartChar: P
Encoding: 80 80 52
Width: 1901
GlyphClass: 2
Flags: HW
LayerCount: 2
Fore
SplineSet
1280 895 m 0
 1280 987.224277136 1196.83064392 1002 1105 1002 c 2
 777 1002 l 2
 735.666666667 1002 702.333333333 1014.66666667 677 1040 c 1
 656 1021 l 1
 682.666666667 994.333333333 696 961 696 921 c 2
 696 862 l 2
 696 822.666666667 682.666666667 789.666666667 656 763 c 1
 677 742 l 1
 703 768 736.333333333 781 777 781 c 2
 1101 781 l 2
 1206.12920707 781 1280 789.200172789 1280 895 c 0
1812 931 m 0
 1812 620.990769078 1644.21027383 480 1328 480 c 2
 777 480 l 2
 735.666666667 480 702.333333333 492.666666667 677 518 c 1
 656 499 l 1
 682.666666667 472.333333333 696 439 696 399 c 2
 696 81 l 2
 696 29.6666666667 695.333333333 -33.3333333333 694 -108 c 1
 649 -112 l 1
 640.333333333 -37.3333333333 629 0 615 0 c 2
 462 0 l 1
 458.499346663 -21.0039200205 456 -42.2484355016 456 -68 c 0
 456 -102.666587936 482 -270.3879492 482 -305 c 0
 482 -345.666666667 467.666666667 -366 439 -366 c 0
 408.333333333 -366 393 -345.333333333 393 -304 c 0
 393 -266.665473759 430 -89.53551989 430 -52 c 0
 430 -36 430 -36 430 0 c 1
 257 0 l 2
 234.164874059 0 230 -109.389860835 230 -144 c 0
 230 -186.91676653 268 -399.917765596 268 -443 c 0
 268 -504.333333333 246.333333333 -535 203 -535 c 0
 157 -535 134 -503.666666667 134 -441 c 0
 134 -394.933679366 178 -168.238706267 178 -122 c 0
 178 -81.9854108036 176 38.2980519776 176 81 c 2
 176 1255 l 2
 176 1295.66666667 163.333333333 1328.66666667 138 1354 c 1
 158 1374 l 1
 183.333333333 1348.66666667 216.333333333 1336 257 1336 c 2
 1120 1336 l 2
 1485.94774337 1336 1812 1296.47105147 1812 931 c 0
EndSplineSet
EndChar

StartChar: Q
Encoding: 81 81 53
Width: 2032
GlyphClass: 2
Flags: HW
LayerCount: 2
Fore
SplineSet
989 1053 m 128
 766.586735415 1053 636 932.444914127 636 706 c 0
 636 463.333333333 753.666666667 342 989 342 c 0
 1223.66666667 342 1341 463.333333333 1341 706 c 0
 1341 932.456791297 1211.44717618 1053 989 1053 c 128
83 701 m 0
 83 1219.01006893 469.006817962 1400 987 1400 c 128
 1412.32793405 1400 1731.04697103 1278.60525692 1847.5 968.5 c 128
 1877.16666667 889.5 1892 800.333333333 1892 701 c 0
 1892 517.666666667 1844 374 1748 270 c 0
 1719.33333333 239.333333333 1687.33333333 222.333333333 1652 219 c 1
 1655 193 l 1
 1692.33333333 197 1727.33333333 188 1760 166 c 2
 1887 80 l 1
 1922.33333333 57.3333333333 1958 47.3333333333 1994 50 c 1
 1996 25 l 1
 1957.33333333 22.3333333333 1923.33333333 7.66666666667 1894 -19 c 1
 1710 -177 l 2
 1679.33333333 -204.333333333 1665.33333333 -235.333333333 1668 -270 c 1
 1636 -272 l 1
 1632.66666667 -236.666666667 1614.33333333 -208.333333333 1581 -187 c 2
 1327 -22 l 2
 1297.09732266 -2.77685027846 1275.30044613 12.7354152957 1285 58 c 1
 1248 67 l 1
 1239.77342372 28.6093106835 1218.93361439 17.2417017991 1177 12 c 1
 1107.66666667 1.33333333333 1044.33333333 -4 987 -4 c 0
 465.145925113 -4 83 177.040085122 83 701 c 0
EndSplineSet
EndChar

StartChar: R
Encoding: 82 82 54
Width: 2066
GlyphClass: 2
Flags: HW
LayerCount: 2
Fore
SplineSet
1102 1004 m 0
 1060.20468594 1004 907.749956441 997 866 997 c 0
 769.333333333 997 706.333333333 1011.33333333 677 1040 c 1
 656 1021 l 1
 682.666666667 995 696 961.666666667 696 921 c 2
 696 854 l 2
 696 814 682.666666667 780.666666667 656 754 c 1
 677 734 l 1
 705.666666667 763.333333333 765 778 855 778 c 0
 898.51147866 778 1064.5387387 769 1108 769 c 0
 1223.16171895 769 1320 786.88915356 1320 893 c 0
 1320 955.724727806 1268.71492625 987.173592117 1214 996.5 c 128
 1184.66666667 1001.5 1147.33333333 1004 1102 1004 c 0
1768 -328 m 0
 1768 -289.421579896 1790 -159.795258581 1790 -121 c 0
 1790 -37 1752.66666667 29.3333333333 1678 78 c 0
 1550.11167296 160.50859809 1291 155.318901262 1291 -24 c 128
 1291 -74.7062020299 1286 -241.341315475 1286 -292 c 0
 1286 -354.032919892 1320 -557.024857074 1320 -619 c 0
 1320 -683.666666667 1301.33333333 -716 1264 -716 c 0
 1228 -716 1210 -684.666666667 1210 -622 c 0
 1210 -554.777352766 1245.66835048 -336.954536924 1248 -274 c 0
 1250 -230 1251 -142.666666667 1251 -12 c 0
 1251 22.6666666667 1240.33333333 62.6666666667 1219 108 c 128
 1174.2020956 203.195546844 1052.91688589 405.899167814 1005 505 c 1
 975 522 l 1
 959 492.666666667 930.666666667 478 890 478 c 0
 874.481497133 478 821.864570421 475 806 475 c 0
 748.666666667 475 705.666666667 489 677 517 c 1
 656 497 l 1
 658 472.333333333 659 419.666666667 659 339 c 0
 659 297.349174519 658 135.728980338 658 94 c 0
 658 20.6666666667 659.333333333 -33.3333333333 662 -68 c 1
 662 -88.3437755681 681 -194.458359808 681 -215 c 0
 681 -242.333333333 671.333333333 -256 652 -256 c 0
 634 -256 625 -243.333333333 625 -218 c 0
 625 -200.495558434 641 -111.710678336 641 -94 c 0
 641 -36.8728225332 603.581142042 4 548 4 c 0
 475.013950231 4 438 -63.1474672785 438 -145 c 0
 438 -193.771979886 482 -392.563366001 482 -441 c 0
 482 -503.666666667 459 -535 413 -535 c 0
 369.666666667 -535 348 -504.333333333 348 -443 c 0
 348 -399.829079993 387 -186.862850735 387 -144 c 0
 387 -58.2551159908 360.164824934 21 288 21 c 0
 241.861714055 21 203 -20.3812946446 203 -68 c 0
 203 -102.666587936 230 -270.3879492 230 -305 c 0
 230 -345.666666667 215.333333333 -366 186 -366 c 0
 155.333333333 -366 140 -345.333333333 140 -304 c 0
 140 -266.667310195 178 -89.537390741 178 -52 c 1
 176.666666667 -10 176 425.666666667 176 1255 c 0
 176 1296.33333333 163.333333333 1329.33333333 138 1354 c 1
 158 1374 l 1
 184 1348.66666667 217 1336 257 1336 c 2
 1153 1336 l 2
 1518.52670072 1336 1845 1296.32989857 1845 931 c 0
 1845 695.82369998 1743.50921992 549 1504 549 c 1
 1496 526 l 1
 1526.84535218 513.661859127 1566.36293817 485.637829853 1580 457 c 0
 1623.39236624 362.07919884 1619.35299449 369.665536466 1664.5 286.5 c 128
 1721.00256216 182.416332861 1779.11313241 121.438503924 1891 68 c 128
 1935.66666667 46.6666666667 1964 32.3333333333 1976 25 c 1
 1982.66666667 19.6666666667 1986 15 1986 11 c 0
 1986 -55.6666666667 1995 -141.333333333 2013 -246 c 128
 2031 -350.666666667 2040 -426.666666667 2040 -474 c 0
 2040 -513.135960728 2028.77264792 -572 1990 -572 c 0
 1951.86187868 -572 1940 -511.734283647 1940 -473 c 0
 1940 -401.778972209 1966 -171.155691222 1966 -100 c 0
 1966 -16.6666666667 1939 25 1885 25 c 0
 1833.31426764 25 1806 10.9167194186 1806 -40 c 0
 1806 -94.6541847332 1842 -272.495999793 1842 -326 c 0
 1842 -360 1829.33333333 -377 1804 -377 c 0
 1780 -377 1768 -360.666666667 1768 -328 c 0
EndSplineSet
EndChar

StartChar: S
Encoding: 83 83 55
Width: 1887
GlyphClass: 2
Flags: HW
LayerCount: 2
Fore
SplineSet
1098 967 m 0
 1098 1037.81897391 957.477334898 1070 876 1070 c 0
 764 1070 708 1048 708 1004 c 0
 708 960.438887834 788.403195668 943.960404027 838.5 935 c 128
 947.291355583 915.541383554 1091.21132206 906.665094159 1204 891 c 1
 1490.67686464 848.424228024 1719.47611274 796.060343913 1775 580 c 0
 1782.33333333 550 1786 517.333333333 1786 482 c 0
 1786 248.825151305 1634.87789223 129.392981543 1461 66 c 128
 1342.51149511 22.8010659246 1219.34501072 3 1066 3 c 0
 1026 3 1002.33333333 3.33333333333 995 4 c 0
 951.740529692 4 941 -35.3917530434 941 -79 c 130
 941 -103 l 2
 941 -133.006400795 968 -231.336989232 968 -261 c 0
 968 -286.692618272 956.779215176 -314 931 -314 c 128
 905.718771332 -314 891 -287.993461051 891 -263 c 0
 891 -229.734931365 916 -122.528707223 916 -89 c 0
 916 -34.1213094941 915.656768351 10 861 10 c 0
 804.02686972 10 794 -38.7214039835 794 -98 c 0
 794 -137.206978754 800 -213.165428664 800 -262 c 0
 800 -306 794.333333333 -328 783 -328 c 0
 769 -328 762 -316 762 -292 c 0
 762 -272.818507572 772 -210.163673364 772 -191 c 2
 772 -4 l 1
 623.125735381 3.83548761154 480.838222436 19.9144794367 370 69.5 c 128
 248.725513503 123.754375538 157.652605009 203.948955687 115 338 c 0
 101.666666667 381.333333333 79.3333333333 414 48 436 c 1
 63 457 l 1
 93 437 127 427 165 427 c 0
 295.431698724 427 502.332772995 442.638865541 631 448 c 0
 681.969368373 450.548468419 709.351151383 459.648026525 722 499 c 1
 767 484 l 1
 765 478.666666667 764 471.666666667 764 463 c 0
 764 441 780.666666667 417.333333333 814 392 c 0
 854 361.333333333 922 346 1018 346 c 0
 1075.90473385 346 1174 357.294418923 1174 415 c 0
 1174 487.231330535 1067.27962895 495.807637478 989.5 507.5 c 128
 665.892669528 556.1468536 262.934278025 547.466872166 136.5 794.5 c 128
 114.833333333 836.833333333 104 885 104 939 c 128
 104 1230.57215193 338.268089801 1339.96754413 585.5 1384.5 c 128
 687.370618546 1402.84936607 780.518451603 1410 896 1410 c 0
 1059.46746935 1410 1224.90547737 1402.07038093 1356.5 1362.5 c 128
 1512.6657822 1315.5410585 1643.24197665 1241.24350465 1703 1097 c 1
 1719 1063 1741 1031.33333333 1769 1002 c 1
 1756 979 l 1
 1728 998.333333333 1695.66666667 1008 1659 1008 c 2
 1646 1008 l 1
 1576.96350897 1005.41113159 1288.61176215 988.871633873 1224 986 c 0
 1173.38207185 983.469103592 1150.37208877 975.802310688 1139 936 c 1
 1095 948 l 1
 1097 954 1098 960.333333333 1098 967 c 0
EndSplineSet
EndChar

StartChar: T
Encoding: 84 84 56
Width: 1667
GlyphClass: 2
Flags: HW
LayerCount: 2
Fore
SplineSet
954 -502 m 1
 960.769967671 -532.948423637 978 -655.521599289 978 -693 c 0
 978 -716.333333333 969.666666667 -728 953 -728 c 128
 936.333333333 -728 928 -716 928 -692 c 0
 928 -654.433629046 946.464800223 -532.140799106 954 -502 c 1
92 1073 m 0
 92 1094.09487038 97 1178.34646022 97 1201 c 0
 97 1274.33333333 82.6666666667 1325 54 1353 c 1
 74 1373 l 1
 100.666666667 1347 133.666666667 1334 173 1334 c 2
 1486 1334 l 2
 1526.66666667 1334 1560 1347 1586 1373 c 1
 1606 1353 l 1
 1580.66666667 1327.66666667 1568 1294.33333333 1568 1253 c 0
 1568 1230.90735315 1563 1148.19841839 1563 1125 c 0
 1563 1053 1577.33333333 1002.66666667 1606 974 c 1
 1586 953 l 1
 1556 983.666666667 1507.33333333 999 1440 999 c 0
 1402.09923705 999 1257.25015383 985 1219 985 c 0
 1149 985 1098.66666667 1000.33333333 1068 1031 c 1
 1047 1011 l 1
 1073 985.666666667 1086 952.333333333 1086 911 c 2
 1086 81 l 2
 1086 -36.7818822279 1123 -422.118470818 1123 -540 c 0
 1123 -569.194172518 1111.12096057 -614 1082 -614 c 0
 1047.26032962 -614 1041 -556.797975295 1041 -522 c 0
 1041 -443.135420325 1068 -183.79060356 1068 -105 c 0
 1068 -32.3333333333 1053.66666667 4 1025 4 c 0
 995.896548505 4 980 -40.7503862997 980 -70 c 0
 980 -109.379484167 1003 -239.657773876 1003 -279 c 0
 1003 -309.673441097 992.513328242 -351 962 -351 c 0
 933.185155503 -351 921 -314.825987098 921 -286 c 0
 921 -247.844546484 957 -130.458396034 957 -92 c 0
 957 -28.8367159819 901.725226378 -4 838 -4 c 0
 749.501737375 -4 674.957479177 -40.8695855025 627 -90.5 c 128
 598.333333333 -120.166666667 584 -153.666666667 584 -191 c 0
 584 -226.404154389 611 -342.335968223 611 -378 c 0
 611 -412 598.666666667 -429 574 -429 c 0
 546 -429 532 -411 532 -375 c 0
 532 -335.917079508 564 -208.743579303 564 -170 c 2
 564 90 l 1
 565.333333333 455.333333333 566 729 566 911 c 0
 566 953 578.666666667 986.333333333 604 1011 c 1
 584 1031 l 1
 554.666666667 1001 506 986 438 986 c 0
 401.009962572 986 259.947379668 999 223 999 c 0
 154.333333333 999 104.666666667 983.666666667 74 953 c 1
 54 974 l 1
 79.3333333333 999.333333333 92 1032.33333333 92 1073 c 0
EndSplineSet
EndChar

StartChar: U
Encoding: 85 85 57
Width: 1887
GlyphClass: 2
Flags: HW
LayerCount: 2
Fore
SplineSet
1140 -602 m 0
 1118.66666667 -602 1108 -585.666666667 1108 -553 c 0
 1108 -522.750372898 1119.68398973 -478.043273751 1129 -456.5 c 128
 1134.33333333 -444.166666667 1138.33333333 -438 1141 -438 c 0
 1156.67775919 -438 1174 -533.000229461 1174 -554 c 0
 1174 -586 1162.66666667 -602 1140 -602 c 0
1732 1130 m 0
 1732 1010.58659219 1741 730.176872742 1741 619 c 0
 1741 465.55798183 1728.80678611 329.405096898 1675 228 c 128
 1583.67663965 55.8905901108 1397.11167909 -14.7376865681 1150 -37 c 1
 1150 -224 l 2
 1150 -242.970269747 1160 -308.048629261 1160 -327 c 0
 1160 -349.666666667 1153 -361 1139 -361 c 0
 1127.66666667 -361 1122 -339 1122 -295 c 0
 1122 -245.629529281 1128 -171.665745679 1128 -132 c 0
 1128 -74.8994507111 1117.41711613 -24 1061 -24 c 0
 1026.33333333 -24 1009 -52.3333333333 1009 -109 c 0
 1009 -123.668967181 1014 -182.687732558 1014 -196 c 0
 1014 -229.573436383 1039 -336.750734275 1039 -370 c 0
 1039 -394.99465301 1025.30718931 -421 1000 -421 c 128
 974.238982495 -421 962 -393.694925132 962 -368 c 0
 962 -338.323183448 989 -239.963990426 989 -210 c 0
 989 -207 989 -207 989 -201 c 0
 989 -146.101553519 990.014755919 -70 935 -70 c 0
 869.325852215 -70 861 -150.619967432 861 -215.5 c 130
 861 -262 l 2
 861 -302.935445445 897 -435.729919125 897 -476 c 0
 897 -511.613861972 882.547032274 -549 847 -549 c 0
 813.310083509 -549 793 -514.644891618 793 -481 c 0
 793 -435.283541161 826 -287.963513197 826 -242 c 2
 826 -43 l 1
 551.141366845 -30.3628214642 322.454956221 21.1939026864 216 202.5 c 128
 128.538108274 351.458534347 143 517.816974193 143 773 c 0
 143 859.402520219 145 1148.68063541 145 1235 c 0
 145 1274.33333333 132 1307.33333333 106 1334 c 1
 127 1354 l 1
 151.666666667 1328.66666667 184.666666667 1316 226 1316 c 2
 580 1316 l 2
 620.666666667 1316 653.666666667 1328.66666667 679 1354 c 1
 700 1334 l 1
 674.666666667 1308 662 1275 662 1235 c 2
 664 721 l 2
 664 620.559537275 667.348445872 536.613375085 689.5 458.5 c 128
 719.152098579 353.93733659 803.427365606 300 939 300 c 0
 1037.26616094 300 1114.22421753 328.10654445 1152.5 387.5 c 128
 1172.45169148 418.459521267 1186.67013981 439.888359099 1195.5 482 c 128
 1210.54643318 553.759912077 1215 631.14044779 1215 721 c 2
 1217 1235 l 2
 1217 1275.66666667 1204.66666667 1308.66666667 1180 1334 c 1
 1199 1354 l 1
 1224.33333333 1328.66666667 1257.66666667 1316 1299 1316 c 2
 1653 1316 l 2
 1695 1316 1728.33333333 1328.66666667 1753 1354 c 1
 1773 1334 l 1
 1745.66666667 1306 1732 1238 1732 1130 c 0
EndSplineSet
EndChar

StartChar: V
Encoding: 86 86 58
Width: 1760
GlyphClass: 2
Flags: HW
LayerCount: 2
Fore
SplineSet
1083 -500 m 0
 1083 -425.286531037 1133 -188.211326928 1133 -113 c 0
 1133 -16.3333333333 1124.33333333 32 1107 32 c 2
 623 32 l 2
 612.333333333 32 607 7.33333333333 607 -42 c 0
 607 -82.9669696889 622 -221.287375535 622 -262 c 0
 622 -280.536405004 610.614378623 -295 592 -295 c 0
 572.078156998 -295 559 -278.84313587 559 -259 c 0
 559 -210.432407934 587 -52.5227744194 587 -4 c 0
 587 52 576 105 554 155 c 2
 58 1296 l 2
 43.3333333333 1332 19.6666666667 1361 -13 1383 c 1
 0 1402 l 1
 31.3333333333 1381.33333333 67.3333333333 1371 108 1371 c 2
 457 1371 l 2
 497.666666667 1371 527 1385 545 1413 c 1
 574 1395 l 1
 562.666666667 1380.33333333 557 1363.66666667 557 1345 c 0
 557 1336.33333333 566.166666667 1308 584.5 1260 c 128
 670.053800874 1036.00459407 783.799808714 785.480459087 874 569 c 1
 963.382072628 783.516974307 1079.82857713 1040.93300194 1163.5 1260 c 128
 1181.83333333 1308 1191 1336.33333333 1191 1345 c 0
 1191 1365 1185.66666667 1381.66666667 1175 1395 c 1
 1203 1413 l 1
 1221 1385 1250.33333333 1371 1291 1371 c 2
 1641 1371 l 2
 1682.33333333 1371 1718.66666667 1381.33333333 1750 1402 c 1
 1762 1383 l 1
 1729.33333333 1361 1705.66666667 1332 1691 1296 c 2
 1188 106 l 2
 1179.33333333 86 1175 25.3333333333 1175 -76 c 0
 1175 -158.867726954 1222 -418.322611447 1222 -499 c 0
 1222 -563.666666667 1198.66666667 -596 1152 -596 c 0
 1106 -596 1083 -564 1083 -500 c 0
EndSplineSet
EndChar

StartChar: W
Encoding: 87 87 59
Width: 2587
GlyphClass: 2
Flags: HW
LayerCount: 2
Fore
SplineSet
462 -261 m 0
 462 -203.244300035 490 -17.7033227151 490 40 c 0
 490 62 488 80.3333333333 484 95 c 2
 78 1276 l 2
 63.3333333333 1316.66666667 41.3333333333 1347 12 1367 c 1
 26 1387 l 1
 58 1365 93.6666666667 1354 133 1354 c 2
 500 1354 l 2
 541.333333333 1354 572 1368 592 1396 c 1
 618 1376 l 1
 604 1358 597 1338.66666667 597 1318 c 0
 597 1280 607.333333333 1229.16666667 628 1165.5 c 128
 671.33448674 1032.00182311 722.190807399 928.541110184 763 789 c 128
 783.666666667 718.333333333 794 657.666666667 794 607 c 1
 807 607 l 1
 807 726.062109388 881.198326909 892.40779578 925.5 983.5 c 128
 955.166666667 1044.5 982.333333333 1107.33333333 1007 1172 c 128
 1031.66666667 1236.66666667 1044 1287.33333333 1044 1324 c 0
 1044 1342 1038 1359.66666667 1026 1377 c 1
 1052 1397 l 1
 1072 1368.33333333 1102.33333333 1354 1143 1354 c 2
 1426 1354 l 2
 1466 1354 1496 1368.33333333 1516 1397 c 1
 1543 1377 l 1
 1530.33333333 1360.33333333 1524 1342.66666667 1524 1324 c 0
 1524 1289.33333333 1536.16666667 1239.83333333 1560.5 1175.5 c 128
 1611.58740575 1040.43329712 1673.58761207 930.019842413 1722.5 788.5 c 128
 1747.5 716.166666667 1760.33333333 655.666666667 1761 607 c 1
 1774 607 l 1
 1774 726.824062968 1832.88658978 889.002070417 1872 981.5 c 128
 1896.66666667 1039.83333333 1919.16666667 1100.83333333 1939.5 1164.5 c 128
 1959.83333333 1228.16666667 1970 1279.33333333 1970 1318 c 0
 1970 1340 1963.66666667 1359.33333333 1951 1376 c 1
 1977 1396 l 1
 1997 1368 2027.66666667 1354 2069 1354 c 2
 2436 1354 l 2
 2475.33333333 1354 2511 1365 2543 1387 c 1
 2556 1367 l 1
 2526.66666667 1347 2505 1316.66666667 2491 1276 c 0
 2456.1089653 1171.32689591 2366.55906124 928.16325742 2322 801.5 c 128
 2259.78951627 624.660939758 2168.26160371 362.817255026 2114 190.5 c 128
 2089.33333333 112.166666667 2077 65.6666666667 2077 51 c 0
 2077 31 2083.33333333 12.6666666667 2096 -4 c 1
 2069 -24 l 1
 2049 4.66666666667 2018.66666667 19 1978 19 c 2
 1607 20 l 2
 1565.66666667 20 1535.33333333 6 1516 -22 c 1
 1489 -4 l 1
 1501 12 1507 30.3333333333 1507 51 c 0
 1507 87 1495.66666667 135.833333333 1473 197.5 c 128
 1425.78975924 325.939625589 1368.82551777 427.682645495 1324 561.5 c 128
 1301.33333333 629.166666667 1290 686.333333333 1290 733 c 1
 1278 733 l 1
 1278 617.419301939 1210.94373032 460.968022976 1169 373.5 c 128
 1141.66666667 316.5 1116.66666667 257.333333333 1094 196 c 128
 1071.33333333 134.666666667 1060 86.3333333333 1060 51 c 0
 1060 29.6666666667 1066.33333333 11.3333333333 1079 -4 c 1
 1052 -22 l 1
 1032.66666667 6 1002.33333333 20 961 20 c 2
 591 19 l 2
 551.666666667 19 532 7.33333333333 532 -16 c 0
 532 -62.1121480806 549 -214.931589623 549 -261 c 0
 549 -292.620651004 533.492668646 -328 502 -328 c 0
 472.809443714 -328 462 -290.450090876 462 -261 c 0
EndSplineSet
EndChar

StartChar: X
Encoding: 88 88 60
Width: 1832
GlyphClass: 2
Flags: HW
LayerCount: 2
Fore
SplineSet
1122 -742 m 0
 1076.84502757 -742 1050 -701.290759961 1050 -652 c 0
 1050 -602.666666667 1061.5 -512.333333333 1084.5 -381 c 128
 1107.5 -249.666666667 1119 -159.333333333 1119 -110 c 2
 1120 80 l 1
 961 306 l 2
 937 341.333333333 925 376.666666667 925 412 c 1
 900 412 l 1
 900 374 888.333333333 338.666666667 865 306 c 2
 702 80 l 2
 686.666666667 58 679 39.3333333333 679 24 c 0
 679 14 682.666666667 1.66666666667 690 -13 c 1
 657 -30 l 1
 639.537934872 2.42954952332 619.874839946 14 573 14 c 2
 101 14 l 2
 61 14 23 5.66666666667 -13 -11 c 1
 -21 4 l 1
 17 22.6666666667 48 47 72 77 c 2
 555 660 l 2
 581 690.666666667 612 706 648 706 c 1
 648 737 l 1
 612.666666667 737 582.666666667 753.333333333 558 786 c 2
 166 1288 l 2
 141.333333333 1320 111.333333333 1344.66666667 76 1362 c 1
 84 1378 l 1
 118.666666667 1360.66666667 156.333333333 1352 197 1352 c 2
 643 1350 l 2
 683.666666667 1350 711.333333333 1365 726 1395 c 1
 758 1379 l 1
 751.333333333 1363.66666667 748 1351.33333333 748 1342 c 0
 747.333333333 1326 755.666666667 1307 773 1285 c 2
 889 1135 l 2
 913 1104.33333333 925 1069.33333333 925 1030 c 1
 950 1030 l 1
 950 1068.66666667 962.333333333 1103.66666667 987 1135 c 2
 1103 1285 l 2
 1119 1306.33333333 1127 1325.33333333 1127 1342 c 0
 1127 1352.66666667 1124 1365 1118 1379 c 1
 1150 1395 l 1
 1164.66666667 1365 1192.33333333 1350 1233 1350 c 2
 1668 1352 l 2
 1708 1352 1746 1360.33333333 1782 1377 c 1
 1789 1362 l 1
 1753.66666667 1344.66666667 1723.33333333 1320.33333333 1698 1289 c 2
 1287 785 l 2
 1261.66666667 753.666666667 1231 738 1195 738 c 1
 1195 706 l 1
 1231 706 1261.33333333 690.333333333 1286 659 c 2
 1745 77 l 2
 1768.33333333 47 1798.66666667 22.6666666667 1836 4 c 1
 1828 -12 l 1
 1793.33333333 5.33333333333 1755.66666667 14 1715 14 c 2
 1253 14 l 2
 1177.81565473 14 1159 -37.7232848525 1159 -127 c 0
 1159 -197.659699157 1201 -568.170452432 1201 -640 c 0
 1201 -694.646454546 1171.99016507 -742 1122 -742 c 0
EndSplineSet
EndChar

StartChar: Y
Encoding: 89 89 61
Width: 1780
GlyphClass: 2
Flags: HW
LayerCount: 2
Fore
SplineSet
720 -354 m 0
 720 -315.993524347 731 -196.183034761 731 -158 c 0
 731 -46 717 10 689 10 c 0
 649.349287114 10 647 -55.2642744743 647 -96 c 130
 647 -125 l 2
 647 -174.076771006 686 -332.667312082 686 -382 c 0
 686 -427.333333333 669 -450 635 -450 c 0
 601.666666667 -450 585 -427.333333333 585 -382 c 0
 585 -329.538019274 627 -166.416623107 627 -114 c 2
 625 294 l 2
 625 337.614956255 634.144254479 356.672371697 669 367 c 1
 659 405 l 1
 649.666666667 402.333333333 642 401 636 401 c 0
 607.369980391 401 594.958122859 425.398475553 583 444 c 2
 76 1270 l 2
 56 1302.66666667 28.6666666667 1329.33333333 -6 1350 c 1
 3 1367 l 1
 36.3333333333 1348.33333333 74 1339 116 1339 c 2
 519 1341 l 2
 559 1341 587.333333333 1355.33333333 604 1384 c 1
 635 1367 l 1
 626.333333333 1351 622 1337 622 1325 c 0
 622 1299 635.5 1263 662.5 1217 c 128
 718.825551145 1121.0379499 787.801185983 1041.79521746 840.5 939 c 128
 867.5 886.333333333 881 840.666666667 881 802 c 1
 902 802 l 1
 902 810 l 2
 902 843.333333333 915.5 886 942.5 938 c 128
 995.140127374 1039.38098605 1065.76388013 1125.85406591 1121.5 1221.5 c 128
 1148.5 1267.83333333 1162 1302.33333333 1162 1325 c 0
 1162 1335.66666667 1157.33333333 1349.66666667 1148 1367 c 1
 1179 1384 l 1
 1195.66666667 1355.33333333 1224.33333333 1341 1265 1341 c 2
 1644 1339 l 2
 1685.33333333 1339 1722.66666667 1348.33333333 1756 1367 c 1
 1765 1350 l 1
 1729 1328.66666667 1701.33333333 1302 1682 1270 c 2
 1170 444 l 2
 1156.04087946 421.06715912 1146.26111661 401 1117 401 c 0
 1109.66666667 401 1102 402.333333333 1094 405 c 1
 1082 368 l 1
 1114 358 1130 324.666666667 1130 268 c 0
 1130 243.646628651 1124 154.230512761 1124 129 c 0
 1124 65 1138 19 1166 -9 c 1
 1145 -29 l 1
 1119 -3 1086 10 1046 10 c 2
 812 10 l 2
 769.333333333 10 748 -50.3333333333 748 -171 c 0
 748 -206.787884887 763 -321.477511211 763 -357 c 0
 763 -380.333333333 756 -392 742 -392 c 0
 727.333333333 -392 720 -379.333333333 720 -354 c 0
EndSplineSet
EndChar

StartChar: Z
Encoding: 90 90 62
Width: 1881
GlyphClass: 2
Flags: HW
LayerCount: 2
Fore
SplineSet
1735 1096 m 2
 1735 1049.67871133 1747.37028923 1030.31485539 1780 1014 c 1
 1765 981 l 1
 1721.08921743 997.655814078 1704.18789748 988.190224887 1673 963 c 2
 996 395 l 2
 965.333333333 370.333333333 931.333333333 351 894 337 c 1
 899 323 l 1
 937 337 975.666666667 344 1015 344 c 2
 1624 344 l 2
 1665.33333333 344 1698.66666667 356.666666667 1724 382 c 1
 1744 362 l 1
 1718.66666667 336.666666667 1706 303.666666667 1706 263 c 2
 1706 81 l 2
 1706 39.6666666667 1718.66666667 6.33333333333 1744 -19 c 1
 1724 -39 l 1
 1698 -13 1664.66666667 0 1624 0 c 2
 210 0 l 2
 169.333333333 0 136 -13 110 -39 c 1
 89 -19 l 1
 115.666666667 7.66666666667 129 41 129 81 c 2
 129 211 l 2
 129 256.875366128 116.87086076 276.828833496 84 292 c 1
 99 326 l 1
 141.187722868 307.919547342 160.291937586 319.045227572 190 344 c 2
 890 946 l 2
 922 972.666666667 956 992.666666667 992 1006 c 1
 987 1020 l 1
 949 1006 910 999 870 999 c 2
 277 999 l 2
 237.666666667 999 204.666666667 985.666666667 178 959 c 1
 158 980 l 1
 183.333333333 1005.33333333 196 1038.66666667 196 1080 c 2
 196 1251 l 2
 196 1292.33333333 183.333333333 1325.66666667 158 1351 c 1
 178 1372 l 1
 204.666666667 1345.33333333 237.666666667 1332 277 1332 c 2
 1654 1332 l 2
 1694 1332 1727.33333333 1345.33333333 1754 1372 c 1
 1774 1351 l 1
 1748 1325 1735 1291.66666667 1735 1251 c 2
 1735 1096 l 2
EndSplineSet
EndChar

StartChar: bracketleft
Encoding: 91 91 63
Width: 1128
GlyphClass: 2
Flags: HW
LayerCount: 2
Fore
SplineSet
1050 -98 m 0
 1050 -121.312804997 1055 -203.832513295 1055 -226 c 0
 1055 -266.666666667 1068 -300 1094 -326 c 1
 1074 -346 l 1
 1048 -320 1014.66666667 -307 974 -307 c 2
 257 -307 l 2
 217.666666667 -307 184.666666667 -320 158 -346 c 1
 138 -326 l 1
 166.666666667 -298 181 -247.333333333 181 -174 c 2
 181 1418 l 2
 181 1491.33333333 166.666666667 1542 138 1570 c 1
 158 1590 l 1
 184 1564.66666667 217 1552 257 1552 c 2
 974 1552 l 2
 1015.33333333 1552 1048.66666667 1564.66666667 1074 1590 c 1
 1094 1570 l 1
 1068 1544 1055 1511 1055 1471 c 0
 1055 1449.00178931 1050 1365.0843316 1050 1342 c 0
 1050 1270.66666667 1064.66666667 1220.33333333 1094 1191 c 1
 1074 1170 l 1
 1044 1200.66666667 995 1216 927 1216 c 0
 909.55513651 1216 853.733455015 1202 836 1202 c 0
 766 1202 715.666666667 1217.33333333 685 1248 c 1
 665 1228 l 1
 691 1202.66666667 704 1169.66666667 704 1129 c 2
 704 116 l 2
 704 74.6666666667 691 41.3333333333 665 16 c 1
 685 -4 l 1
 715.666666667 26.6666666667 766 42 836 42 c 0
 853.758629878 42 909.551490239 29 927 29 c 0
 995.666666667 29 1044.66666667 44 1074 74 c 1
 1094 53 l 1
 1064.66666667 23.6666666667 1050 -26.6666666667 1050 -98 c 0
EndSplineSet
EndChar

StartChar: backslash
Encoding: 92 92 64
Width: 801
GlyphClass: 2
Flags: HW
LayerCount: 2
Fore
SplineSet
792 -1 m 1
 436 -1 l 1
 434 38.3333333333 423.666666667 95.3333333333 405 170 c 1
 106 1166 l 1
 81.3333333333 1238.66666667 57.6666666667 1294 35 1332 c 1
 391 1332 l 1
 391.666666667 1306 401.333333333 1250.66666667 420 1166 c 1
 719 170 l 1
 744.333333333 94.6666666667 768.666666667 37.6666666667 792 -1 c 1
EndSplineSet
EndChar

StartChar: bracketright
Encoding: 93 93 65
Width: 1131
GlyphClass: 2
Flags: HW
LayerCount: 2
Fore
SplineSet
83 1342 m 0
 83 1365.19963799 78 1448.9270234 78 1471 c 0
 78 1511 65 1544 39 1570 c 1
 59 1590 l 1
 84.3333333333 1564.66666667 117.666666667 1552 159 1552 c 2
 875 1552 l 2
 915.666666667 1552 949 1564.66666667 975 1590 c 1
 995 1570 l 1
 966.333333333 1542 952 1491.33333333 952 1418 c 2
 952 -174 l 2
 952 -247.333333333 966.333333333 -298 995 -326 c 1
 975 -346 l 1
 948.333333333 -320 915 -307 875 -307 c 2
 159 -307 l 2
 118.333333333 -307 85 -320 59 -346 c 1
 39 -326 l 1
 65 -300 78 -266.666666667 78 -226 c 0
 78 -203.907353151 83 -121.198418395 83 -98 c 0
 83 -26.6666666667 68.3333333333 23.6666666667 39 53 c 1
 59 74 l 1
 88.3333333333 44 137.333333333 29 206 29 c 0
 223.449827112 29 279.271476262 42 297 42 c 0
 367 42 417.333333333 26.6666666667 448 -4 c 1
 469 16 l 1
 442.333333333 42 429 75.3333333333 429 116 c 2
 429 1129 l 2
 429 1169 442.333333333 1202 469 1228 c 1
 448 1248 l 1
 417.333333333 1217.33333333 367 1202 297 1202 c 0
 279.236576767 1202 223.443410013 1216 206 1216 c 0
 138 1216 89 1200.66666667 59 1170 c 1
 39 1191 l 1
 68.3333333333 1220.33333333 83 1270.66666667 83 1342 c 0
EndSplineSet
EndChar

StartChar: asciicircum
Encoding: 94 94 66
Width: 1399
GlyphClass: 2
Flags: HW
LayerCount: 2
Fore
SplineSet
530 1023 m 2
 882 1023 l 2
 894 1023 906.666666667 1012.66666667 920 992 c 2
 1290 389 l 2
 1304.66666667 364.333333333 1325 344.666666667 1351 330 c 1
 1344 318 l 1
 1321.33333333 331.333333333 1294 338 1262 338 c 2
 967 337 l 2
 937.666666667 337 917 326.333333333 905 305 c 1
 883 318 l 1
 889 333.333333333 892 343.666666667 892 349 c 0
 892 368.333333333 882.166666667 394.666666667 862.5 428 c 128
 821.316749114 497.802120146 771.781098261 555.735467825 733.5 631 c 128
 713.833333333 669.666666667 704 703 704 731 c 1
 688 731 l 1
 688 725 l 2
 688 694.333333333 672.166666667 653 640.5 601 c 128
 608.833333333 549 577.166666667 499.166666667 545.5 451.5 c 128
 513.833333333 403.833333333 498 369.666666667 498 349 c 0
 498 341.666666667 501.333333333 331.333333333 508 318 c 1
 486 305 l 1
 474 326.333333333 453 337 423 337 c 2
 146 338 l 2
 116 338 89 331.333333333 65 318 c 1
 57 330 l 1
 83 344.666666667 103.333333333 364.333333333 118 389 c 2
 492 992 l 2
 502.185843661 1007.27876549 507.493519451 1023 530 1023 c 2
EndSplineSet
EndChar

StartChar: underscore
Encoding: 95 95 67
Width: 1034
GlyphClass: 2
Flags: HW
LayerCount: 2
Fore
SplineSet
807 -325 m 2
 239 -325 l 2
 187.666666667 -325 144.666666667 -327 110 -331 c 1
 110 0 l 1
 144.666666667 -8.66666666667 201.666666667 -13 281 -13 c 2
 765 -13 l 2
 841 -13 896.333333333 -8.66666666667 931 0 c 1
 931 -331 l 1
 895.666666667 -327 854.333333333 -325 807 -325 c 2
EndSplineSet
EndChar

StartChar: grave
Encoding: 96 96 68
Width: 858
GlyphClass: 2
Flags: HW
LayerCount: 2
Fore
SplineSet
677 965 m 0
 677 980.389719705 682 1051.30941955 682 1067 c 0
 682 1075 659 1085 613 1097 c 128
 567 1109 411.666666667 1145.66666667 147 1207 c 0
 119.546137677 1212.49077246 86.7027613371 1218 61.5 1218 c 128
 56.5 1218 54 1218.66666667 54 1220 c 0
 54 1220.66666667 56 1223.5 60 1228.5 c 128
 73.0742543195 1244.8428179 88.157516344 1275.39379086 98 1300 c 2
 173 1492 l 2
 183.242678984 1518.07227378 191.810198464 1549.48158771 195 1575 c 128
 195.666666667 1580.33333333 196.333333333 1583 197 1583 c 128
 197.666666667 1583 200.166666667 1580.66666667 204.5 1576 c 128
 219.750326984 1559.57657094 247.708923241 1539.60300298 272 1526 c 2
 702 1276 l 2
 749.333333333 1248 773 1233 773 1231 c 128
 773 1225.01972201 751.972997044 1211.97299704 746 1206 c 128
 727.866171217 1187.86617122 719 1145.08894777 719 1104 c 0
 719 1080.0185346 730 990.878982266 730 968 c 0
 730 949.604059762 718.986064535 933 702 933 c 0
 686.37780967 933 677 947.930857529 677 965 c 0
EndSplineSet
EndChar

StartChar: a
Encoding: 97 97 69
Width: 1768
GlyphClass: 2
Flags: HW
LayerCount: 2
Fore
SplineSet
1434 -367 m 128
 1416.64045529 -367 1407 -350.109567627 1407 -331 c 0
 1407 -285 1415.66666667 -227.333333333 1433 -158 c 1
 1452.33333333 -238 1462 -296.666666667 1462 -334 c 0
 1462 -352.566253062 1451.06638457 -367 1434 -367 c 128
758 429 m 2
 949 429 l 2
 989 429 1025 418.333333333 1057 397 c 1
 1070 416 l 1
 1038.66666667 437.333333333 1016 467 1002 505 c 2
 875 830 l 2
 860.333333333 868 852.666666667 906.666666667 852 946 c 1
 839 946 l 1
 837.666666667 902 831 863.333333333 819 830 c 2
 704 506 l 2
 690 467.333333333 667.666666667 437.333333333 637 416 c 1
 650 396 l 1
 681.333333333 418 717.333333333 429 758 429 c 2
84 -223 m 0
 84 -269.569200623 71.1301618678 -320 33 -320 c 0
 5 -320 -9 -290 -9 -230 c 0
 -9 -152.131082899 25.0176657649 24.2435755534 46 76 c 2
 526 1257 l 2
 532.666666667 1274.33333333 536 1290.66666667 536 1306 c 0
 536 1324 530.333333333 1341 519 1357 c 1
 547 1375 l 1
 566.333333333 1346.33333333 596.333333333 1332 637 1332 c 2
 1097 1332 l 2
 1137 1332 1166.66666667 1346.33333333 1186 1375 c 1
 1215 1357 l 1
 1203.66666667 1341 1198 1324.33333333 1198 1307 c 0
 1198 1295 1202 1278.66666667 1210 1258 c 2
 1704 75 l 2
 1719.33333333 37.6666666667 1743 8.33333333333 1775 -13 c 1
 1763 -32 l 1
 1730.33333333 -10.6666666667 1694 0 1654 0 c 2
 1458 0 l 1
 1459.33333333 -14.6666666667 1460 -25 1460 -31 c 0
 1460 -49.5212274511 1450.01928042 -64 1433 -64 c 0
 1415.08430302 -64 1402 -48.0528098619 1402 -29 c 0
 1402 -16.3333333333 1402.66666667 -6.66666666667 1404 0 c 1
 1283 0 l 2
 1224.73576317 0 1221.58614191 -55.8833369854 1215 -114.5 c 128
 1211.66666667 -144.166666667 1210 -180.333333333 1210 -223 c 0
 1210 -256.32360835 1230 -376.655357287 1230 -406 c 0
 1230 -436.050249443 1217.05557017 -462 1190 -462 c 128
 1164.13848116 -462 1149 -437.856027221 1149 -410 c 0
 1149 -378.594196411 1174 -237.792126541 1174 -204 c 2
 1174 77 l 1
 1167.33333333 95 1164 110 1164 122 c 0
 1164 140.666666667 1170 158.666666667 1182 176 c 1
 1156 195 l 1
 1136 166.333333333 1106 152 1066 152 c 2
 655 152 l 2
 615 152 585 166 565 194 c 1
 539 176 l 1
 551.666666667 158 558 139 558 119 c 0
 558 108.333333333 555.666666667 94.3333333333 551 77 c 1
 551 76 l 1
 545 53.3333333333 542 39 542 33 c 0
 542 15 548.666666667 -3.66666666667 562 -23 c 1
 536 -42 l 1
 516 -14 486 0 446 0 c 2
 84 0 l 1
 82 -12.6666666667 81 -34 81 -64 c 0
 81 -92.0649939705 84 -195.116327442 84 -223 c 0
EndSplineSet
EndChar

StartChar: b
Encoding: 98 98 70
Width: 1979
GlyphClass: 2
Flags: HW
LayerCount: 2
Fore
SplineSet
362 -797 m 0
 362 -821.487779178 351.461831033 -844 327 -844 c 0
 305 -844 294 -827.666666667 294 -795 c 0
 294 -727.656355482 315.363765937 -670.757014274 328 -616 c 1
 338.145938379 -666.729691896 362 -736.464145226 362 -797 c 0
1252 929 m 0
 1252 978.73451683 1183.11888336 995 1133 995 c 2
 772 994 l 2
 735.333333333 994 703.666666667 1006.66666667 677 1032 c 1
 658 1012 l 1
 684 986 697 954.666666667 697 918 c 0
 697 880 684 847.333333333 658 820 c 1
 677 801 l 1
 706.333333333 829.666666667 763.666666667 844 849 844 c 0
 891.985491236 844 1040.24242162 834 1083 834 c 0
 1166.46492258 834 1252 844.848987803 1252 929 c 0
1327 419 m 0
 1327 476.29769056 1269.47799377 503 1212 503 c 2
 772 500 l 2
 731.333333333 500 698 513 672 539 c 1
 652 519 l 1
 678 493 691 459.666666667 691 419 c 0
 691 377 678 343 652 317 c 1
 672 296 l 1
 698.666666667 322.666666667 732 336 772 336 c 2
 1165 336 l 2
 1251.45811251 336 1327 329.628669827 1327 419 c 0
205 -46 m 0
 205 -113.871380403 234 -339.964698568 234 -408 c 0
 234 -446.666666667 219.666666667 -466 191 -466 c 0
 159.666666667 -466 144 -444.666666667 144 -402 c 0
 144 -344.666745397 176 -154.278717466 176 -97 c 2
 177 1251 l 2
 177 1292.33333333 164 1325.66666667 138 1351 c 1
 158 1372 l 1
 186 1345.33333333 219.333333333 1332 258 1332 c 2
 1150 1332 l 1
 1296.84198387 1338.52631039 1449.14012514 1325.96496872 1567 1296.5 c 128
 1694.42971933 1264.64257017 1804 1185.10379272 1804 1027 c 0
 1804 966.333333333 1788.33333333 910.833333333 1757 860.5 c 128
 1725.66666667 810.166666667 1681.66666667 782.666666667 1625 778 c 1
 1627 758 l 1
 1717.08079645 765.633965801 1784.52798991 703.896906029 1819.5 644.5 c 128
 1854.55350536 584.964681376 1887 502.86696797 1887 417 c 0
 1887 234.962020135 1786.89386481 142.396833449 1666 80 c 128
 1555.24237576 22.8347745875 1401.18228786 0 1240 0 c 2
 305 0 l 1
 305 -34.3659404524 327 -148.934576657 327 -183 c 0
 327 -223.666666667 312.666666667 -244 284 -244 c 0
 256 -244 242 -224 242 -184 c 0
 242 -152.988902982 266 -49.6903363214 266 -19 c 0
 266 19 258 38 242 38 c 0
 214.762397004 38 205 -18.2276678134 205 -46 c 0
EndSplineSet
EndChar

StartChar: c
Encoding: 99 99 71
Width: 1951
GlyphClass: 2
Flags: HW
LayerCount: 2
Fore
SplineSet
693 -499 m 0
 693 -410.806132212 710.784083903 -107.898210672 712 -24 c 1
 326.492150406 30.3502869919 78 251.162568125 78 679 c 0
 78 1198.82118065 475.729555418 1375 993 1375 c 0
 1489.66666667 1375 1767.33333333 1232.33333333 1826 947 c 0
 1834 905.666666667 1851.66666667 874 1879 852 c 1
 1862 830 l 1
 1830 854 1795.33333333 864.333333333 1758 861 c 1
 1373 837 l 2
 1328.33333333 833.666666667 1299.33333333 817.333333333 1286 788 c 1
 1253 804 l 1
 1259.66666667 818.666666667 1263 831.333333333 1263 842 c 0
 1263 959.522785501 1138.21916325 1000.05005011 1037.5 1018 c 128
 1003.83333333 1024 971.666666667 1027 941 1027 c 0
 743.133059238 1027 628 873.544726211 628 676 c 0
 628 449.901731075 758.124115641 302 984 302 c 0
 1076.7883189 302 1169.1037283 353.158959514 1222.5 405 c 128
 1256.83333333 438.333333333 1274 473.666666667 1274 511 c 0
 1274 521.666666667 1270.33333333 535 1263 551 c 1
 1296 568 l 1
 1312 538 1341 521.333333333 1383 518 c 0
 1503.53287189 509.781849644 1667.90913542 491 1795 491 c 0
 1828.33333333 491 1859 501.333333333 1887 522 c 1
 1903 501 l 1
 1878.33333333 482.333333333 1860.33333333 451 1849 407 c 0
 1821.90148851 291.83132618 1741.884725 195.921127629 1656.5 137.5 c 128
 1529.0887019 50.3238486651 1355.16957446 -1.597300075 1171 -27 c 1
 1171 -130.22242549 1219 -469.112308053 1219 -572 c 0
 1219 -609.551280059 1199.74587977 -649 1162 -649 c 128
 1124.27551124 -649 1104 -609.550755356 1104 -572 c 0
 1104 -487.162346592 1137 -203.535618448 1137 -119 c 0
 1137 -37.4791693736 1106.72028463 -27 1024 -27 c 0
 1018 -27 1018 -27 1015 -27 c 0
 981.664442353 -27 892 -32.4237371507 892 -64 c 0
 892 -116.039535363 916 -284.007982142 916 -336 c 0
 916 -379.333333333 903.333333333 -401 878 -401 c 0
 850.518771333 -401 840 -365.466758135 840 -338 c 0
 840 -284.627131303 867 -115.325351192 867 -62 c 0
 867 -44.822980662 858.333333333 -30 841 -30 c 0
 813.219045969 -30 755 -34.3399231776 755 -61 c 0
 755 -141.686355618 766 -413.391940271 766 -494 c 0
 766 -515.829542492 749.670368406 -538 728 -538 c 128
 706.744823664 -538 693 -520.150325181 693 -499 c 0
EndSplineSet
EndChar

StartChar: d
Encoding: 100 100 72
Width: 1982
GlyphClass: 2
Flags: HW
LayerCount: 2
Fore
SplineSet
1337 698 m 0
 1337 810.768511779 1297.13116098 895.726549852 1227 935 c 128
 1164.01519298 970.271491933 1081.90769866 989.393059429 988.5 991.5 c 128
 904.604751848 993.392374018 825.79736984 991.256473429 755 1004 c 128
 721.666666667 1010 697.333333333 1020.66666667 682 1036 c 1
 662 1016 l 1
 688 990.666666667 701 957.333333333 701 916 c 0
 701 618 701.666666667 426.666666667 703 342 c 1
 930 342 l 2
 1081.06538441 342 1208.50994261 356.588091102 1273 441.5 c 128
 1317.71530098 500.375146288 1337 588.664786261 1337 698 c 0
721 -105 m 128
 721 -80.461199482 709.483337931 0 685 0 c 2
 265 0 l 2
 225.666666667 0 192.666666667 -13 166 -39 c 1
 146 -19 l 1
 171.333333333 6.33333333333 184 39.6666666667 184 81 c 2
 184 1251 l 2
 184 1293 171.333333333 1326.33333333 146 1351 c 1
 166 1372 l 1
 193.333333333 1345.33333333 226.333333333 1332 265 1332 c 2
 1092 1332 l 2
 1552.29442507 1332 1874 1153.84679369 1874 693 c 0
 1874 220.13606996 1665.88185713 41.4401389687 1219 8 c 0
 1143 2 1022 -0.666666666667 856 0 c 0
 807 0 807 0 782 0 c 0
 757.612304949 0 741 -95.9905967038 741 -120 c 0
 741 -145.108879711 758 -222.912719155 758 -248 c 0
 758 -273.333333333 749 -286 731 -286 c 0
 711 -286 701 -273 701 -247 c 0
 701 -219.858121666 721 -132.117039638 721 -105 c 128
EndSplineSet
EndChar

StartChar: e
Encoding: 101 101 73
Width: 1789
GlyphClass: 2
Flags: HW
LayerCount: 2
Fore
SplineSet
721 166 m 0
 721 188.019767682 705 268.003991071 705 290 c 2
 705 301 l 1
 719 325.666666667 738 338 762 338 c 2
 1578 337 l 2
 1618.66666667 337 1651.66666667 350 1677 376 c 1
 1697 356 l 1
 1662.15061148 321.150611483 1653 256.724497835 1653 187.5 c 130
 1653 130 l 2
 1653 62.6666666667 1667.66666667 13.6666666667 1697 -17 c 1
 1677 -37 l 1
 1651 -11 1618 2 1578 2 c 2
 395 2 l 2
 308.651912709 2 254.185310247 -16.9890249391 233.5 -82 c 128
 216.517862908 -135.372430861 216 -181.708065634 216 -258 c 0
 216 -342.260480889 262 -616.072299358 262 -700 c 0
 262 -771.333333333 236.666666667 -807 186 -807 c 0
 131.333333333 -807 104 -770.333333333 104 -697 c 0
 104 -647 115 -573 137 -475 c 128
 159 -377 170 -302.666666667 170 -252 c 0
 170 -189.056192136 165 20.1161289893 165 83 c 2
 165 1249 l 2
 165 1290.33333333 152.333333333 1323.33333333 127 1348 c 1
 147 1369 l 1
 174.333333333 1343 207.666666667 1330 247 1330 c 2
 1531 1330 l 2
 1571.66666667 1330 1605 1343 1631 1369 c 1
 1651 1348 l 1
 1616.52943259 1313.52943259 1607 1251.03230097 1607 1182.5 c 130
 1607 1126 l 2
 1607 1054.66666667 1621.66666667 1004.66666667 1651 976 c 1
 1631 957 l 1
 1597.66666667 991 1519.33333333 1008 1396 1008 c 0
 1302.75920453 1008 992.151700151 985 899 985 c 0
 776.333333333 985 698.333333333 1002 665 1036 c 1
 644 1016 l 1
 670 990.666666667 683 957.666666667 683 917 c 0
 683 874.333333333 670 840.333333333 644 815 c 1
 665 796 l 1
 697 829.333333333 764.333333333 846 867 846 c 0
 945.653356994 846 1207.42169906 823 1286 823 c 0
 1389.33333333 823 1457.66666667 839.666666667 1491 873 c 1
 1512 853 l 1
 1477.15061148 818.150611483 1468 753.724497835 1468 684.5 c 130
 1468 628 l 2
 1468 559.333333333 1482.66666667 509.666666667 1512 479 c 1
 1491 458 l 1
 1459 491.333333333 1391.33333333 508 1288 508 c 0
 1209.34664301 508 947.578300935 486 869 486 c 0
 766.333333333 486 698.333333333 502.666666667 665 536 c 1
 645 516 l 1
 691.684701003 469.315298997 685 378.411790061 685 288 c 0
 685 265.557786956 668 190.420614178 668 168 c 0
 668 144 677 132 695 132 c 0
 712.333333333 132 721 143.333333333 721 166 c 0
EndSplineSet
EndChar

StartChar: f
Encoding: 102 102 74
Width: 1765
GlyphClass: 2
Flags: HW
LayerCount: 2
Fore
SplineSet
681 -399 m 0
 681 -345.943965325 716 -173.006897255 716 -120 c 0
 716 -61.3503694893 666.651396513 0 608 0 c 0
 541.333333333 0 508 -81 508 -243 c 0
 508 -307.606575382 538 -521.217414557 538 -586 c 0
 538 -619.073234967 521.854343882 -652 489 -652 c 0
 455.274937588 -652 437 -616.603269668 437 -583 c 0
 437 -521.983579419 472 -323.96026353 472 -263 c 0
 472 -140.336807252 447.025719425 21 324 21 c 0
 252.651308314 21 191 -47.8366086952 191 -119 c 0
 191 -145.653435725 219 -222.367083198 219 -249 c 0
 219 -278.333333333 208.333333333 -293 187 -293 c 0
 165 -293 154 -278.333333333 154 -249 c 0
 154 -218.49178971 178 -119.480131765 178 -89 c 2
 177 1184 l 2
 177 1262.66666667 153 1328.33333333 105 1381 c 1
 125 1401 l 1
 178.333333333 1353.66666667 244 1330 322 1330 c 2
 1476 1330 l 2
 1554 1330 1619.66666667 1353.66666667 1673 1401 c 1
 1693 1381 l 1
 1645.66666667 1327.66666667 1622 1262 1622 1184 c 0
 1622 1065.02796458 1634.7891447 1005.97230267 1693 940 c 1
 1673 920 l 1
 1645.97011397 956.039848044 1599.25595595 991 1541 991 c 2
 782 991 l 2
 744.666666667 991 712.666666667 1003.66666667 686 1029 c 1
 667 1010 l 1
 692.333333333 983.333333333 705 951.333333333 705 914 c 0
 705 875.333333333 692.333333333 842.666666667 667 816 c 1
 686 797 l 1
 730.158369109 839.820236712 789.692804889 847 876 847 c 128
 948.237527103 847 1183.82942938 826 1256 826 c 0
 1384.1665354 826 1476.37296866 842.985793417 1543 907 c 1
 1563 887 l 1
 1513 832.333333333 1488 750 1488 640 c 0
 1488 556.666666667 1511 491 1557 443 c 1
 1536 423 l 1
 1475.33333333 477 1377.33333333 504 1242 504 c 0
 1172.64036225 504 937.291601328 483 868 483 c 0
 787.397204194 483 722.395663641 491.604336359 681 533 c 1
 662 513 l 1
 686.666666667 487.666666667 699 454.333333333 699 413 c 0
 699 374.848237825 691 247.115044103 691 209 c 0
 691 146.755857426 744 -53.8125544493 744 -116 c 0
 744 -170.494979349 778 -343.553618099 778 -398 c 0
 778 -441.333333333 762 -463 730 -463 c 0
 697.333333333 -463 681 -441.666666667 681 -399 c 0
EndSplineSet
EndChar

StartChar: g
Encoding: 103 103 75
Width: 1991
GlyphClass: 2
Flags: HW
LayerCount: 2
Fore
SplineSet
1857 251 m 2
 1857 204.977255193 1867.85862619 186.306893592 1900 169 c 1
 1884 140 l 1
 1872 146 1859 149 1845 149 c 0
 1829 149 1811.33333333 142.666666667 1792 130 c 0
 1637.33333333 26.6666666667 1417.33333333 -31.3333333333 1132 -44 c 1
 1132 -140 l 2
 1132 -162.673884722 1148 -228.647898105 1148 -251 c 0
 1148 -276.271671954 1137.00833387 -301 1115 -301 c 0
 1094.62384819 -301 1083 -278.302236887 1083 -255 c 0
 1083 -227.156106029 1099 -175.053774978 1099 -142 c 0
 1099 -76.6666666667 1096 -44 1090 -44 c 0
 959.333333333 -44 822 -35 678 -17 c 1
 673.020915853 -15.3403052842 669 -148.474110949 669 -175 c 0
 669 -241.415751161 706 -460.64688555 706 -527 c 0
 706 -567.380430994 688.971799383 -607 649 -607 c 0
 613.312627991 -607 583 -573.607839674 583 -538 c 0
 583 -494 594 -432.166666667 616 -352.5 c 128
 638 -272.833333333 649 -210.666666667 649 -166 c 2
 649 -10 l 1
 300.46223892 68.3908459177 78 277.037709387 78 679 c 0
 78 989.305079577 219.299938653 1174.7902929 429.5 1276.5 c 128
 567.902218559 1343.46881543 726.447804082 1375 926 1375 c 0
 1230.15613479 1375 1481.75439629 1314.40785775 1652.5 1189.5 c 128
 1736.38003769 1128.13809323 1797.17848066 1061.40506448 1827 962 c 128
 1839 922 1860.33333333 891.333333333 1891 870 c 1
 1876 850 l 1
 1848.66666667 870 1812.66666667 880 1768 880 c 1
 1346 866 l 1
 1299.74283223 863.196535287 1277.85640402 851.712808049 1261 818 c 1
 1228 834 l 1
 1233.33333333 845.333333333 1236 857.333333333 1236 870 c 0
 1236 886.666666667 1227.33333333 907 1210 931 c 0
 1149.27643936 1010.51894845 1079.84828882 1033 934 1033 c 0
 725.982718093 1033 626 891.200790964 626 685 c 0
 626 442.0485879 775.361599093 292 1019 292 c 0
 1121.66666667 292 1202.33333333 299.333333333 1261 314 c 0
 1271.66666667 316.666666667 1279.33333333 318 1284 318 c 0
 1299.33333333 318 1317.33333333 310 1338 294 c 1
 1350 310 l 1
 1324.69953036 329.800367545 1312 342.45475879 1312 380 c 2
 1312 388 l 2
 1312 414.666666667 1324 440 1348 464 c 1
 1334 477 l 1
 1310 453 1285 441 1259 441 c 2
 1162 441 l 2
 1121.33333333 441 1088 428 1062 402 c 1
 1041 423 l 1
 1067.66666667 449.666666667 1081 482.666666667 1081 522 c 2
 1081 670 l 2
 1081 710 1067.66666667 743.333333333 1041 770 c 1
 1062 790 l 1
 1087.33333333 764.666666667 1120.66666667 752 1162 752 c 2
 1776 752 l 2
 1817.33333333 752 1850.66666667 764.666666667 1876 790 c 1
 1895 770 l 1
 1869.66666667 744.666666667 1857 711.333333333 1857 670 c 2
 1857 251 l 2
EndSplineSet
EndChar

StartChar: h
Encoding: 104 104 76
Width: 1960
GlyphClass: 2
Flags: HW
LayerCount: 2
Fore
SplineSet
1257 974 m 0
 1257 1014.11856308 1273 1162.13246186 1273 1202 c 0
 1273 1270 1257.33333333 1319.66666667 1226 1351 c 1
 1246 1372 l 1
 1273.33333333 1345.33333333 1306.66666667 1332 1346 1332 c 2
 1699 1332 l 2
 1739 1332 1772.33333333 1345.33333333 1799 1372 c 1
 1819 1351 l 1
 1793 1325 1780 1291.66666667 1780 1251 c 2
 1780 81 l 2
 1780 41 1793 7.66666666667 1819 -19 c 1
 1799 -39 l 1
 1773 -13 1739.66666667 0 1699 0 c 2
 1346 0 l 2
 1305.33333333 0 1272 -13 1246 -39 c 1
 1226 -19 l 1
 1251.33333333 6.33333333333 1264 39.6666666667 1264 81 c 2
 1262 417 l 2
 1262 457 1274.66666667 490 1300 516 c 1
 1280 536 l 1
 1254.66666667 510.666666667 1221.33333333 498 1180 498 c 2
 770 498 l 2
 729.333333333 498 696 510.666666667 670 536 c 1
 650 516 l 1
 651.333333333 500.666666667 652 420 652 274 c 2
 652 -177 l 2
 652 -282.280409567 698 -587.801666123 698 -693 c 0
 698 -740.475492275 682.204823454 -790 642 -790 c 128
 602.937425724 -790 586 -742.236820176 586 -697 c 0
 586 -692.333333333 589.333333333 -659.166666667 596 -597.5 c 128
 607.33403817 -492.66014693 626 -291.84574848 626 -180 c 0
 626 -82.3988408259 553.712733255 -13.0209954873 481.5 15.5 c 128
 441.833333333 31.1666666667 401 39 359 39 c 0
 268.946827605 39 187 -3.5572266356 187 -91 c 0
 187 -157.415751161 226 -376.64688555 226 -443 c 0
 226 -483.272141694 208.4835555 -522 168 -522 c 0
 132.286575658 -522 103 -489.633983696 103 -454 c 0
 103 -410 113.833333333 -348 135.5 -268 c 128
 157.166666667 -188 168 -125.666666667 168 -81 c 2
 168 1251 l 2
 168 1293 155.333333333 1326.33333333 130 1351 c 1
 149 1372 l 1
 176.333333333 1345.33333333 209.666666667 1332 249 1332 c 2
 608 1332 l 2
 647.333333333 1332 680.333333333 1345.33333333 707 1372 c 1
 728 1351 l 1
 697.333333333 1320.33333333 682 1270.33333333 682 1201 c 0
 682 1161.09631224 697 1010.65916266 697 971 c 0
 697 902.333333333 681.333333333 852.333333333 650 821 c 1
 670 800 l 1
 696 826 729.333333333 839 770 839 c 2
 1184 839 l 2
 1224.66666667 839 1257.66666667 826 1283 800 c 1
 1304 821 l 1
 1272.66666667 853 1257 904 1257 974 c 0
EndSplineSet
EndChar

StartChar: i
Encoding: 105 105 77
Width: 882
GlyphClass: 2
Flags: HW
LayerCount: 2
Fore
SplineSet
638 -539 m 0
 638 -488.082575289 649 -323.870987149 649 -273 c 0
 649 -209.497433913 650.184387583 -148.32738884 636 -97.5 c 128
 627.635288626 -67.5264509112 613.655811763 -27.6558117633 594 -8 c 128
 557.0872179 28.9127821002 509.83762204 50 434 50 c 0
 300.274132626 50 211 -64.2759860241 211 -198 c 0
 211 -240.745816124 241 -382.294681749 241 -425 c 0
 241 -473 224.333333333 -497 191 -497 c 0
 156.333333333 -497 139 -473.666666667 139 -427 c 0
 139 -382.613028251 170 -236.626174641 170 -192 c 0
 170 -142.263794181 177 26.1436855788 177 76 c 2
 177 1251 l 2
 177 1292.33333333 164 1325.66666667 138 1351 c 1
 158 1372 l 1
 186 1345.33333333 219.333333333 1332 258 1332 c 2
 620 1332 l 2
 660 1332 693.333333333 1345.33333333 720 1372 c 1
 740 1351 l 1
 714 1325 701 1291.66666667 701 1251 c 2
 701 81 l 2
 701 16.6889240829 678.992359249 -225.868197037 683 -295 c 1
 682 -295 l 1
 706.666666667 -405.666666667 719 -492.666666667 719 -556 c 0
 719 -608.666666667 708 -635 686 -635 c 0
 640.620551744 -635 638 -583.762281812 638 -539 c 0
EndSplineSet
EndChar

StartChar: j
Encoding: 106 106 78
Width: 1650
GlyphClass: 2
Flags: HW
LayerCount: 2
Fore
SplineSet
1192 -814 m 128
 1175.33333333 -814 1167 -802 1167 -778 c 0
 1167 -722 1175.33333333 -658.333333333 1192 -587 c 1
 1208.66666667 -657 1217 -720.333333333 1217 -777 c 0
 1217 -801.666666667 1208.66666667 -814 1192 -814 c 128
760 297 m 0
 905.203071671 297 983 387.111115036 983 532 c 2
 984 1251 l 2
 984 1293 971.333333333 1326.33333333 946 1351 c 1
 966 1372 l 1
 992.666666667 1345.33333333 1026 1332 1066 1332 c 2
 1414 1332 l 2
 1454.66666667 1332 1488 1345.33333333 1514 1372 c 1
 1534 1351 l 1
 1508 1325.66666667 1495 1292.33333333 1495 1251 c 2
 1495 473 l 2
 1495 255 1395.33333333 104.666666667 1196 22 c 1
 1195 22 l 1
 1195 -195 l 2
 1195 -234.085038131 1228 -361.258631382 1228 -400 c 0
 1228 -436 1213.66666667 -454 1185 -454 c 0
 1160.33333333 -454 1148 -437 1148 -403 c 0
 1148 -367.290829746 1174 -251.388249216 1174 -216 c 0
 1174 -132.261853307 1098.26424865 -72.9985326964 1033.5 -49.5 c 128
 995.833333333 -35.8333333333 958.666666667 -29 922 -29 c 0
 874.457670453 -29 850 -69.2026920558 850 -117 c 0
 850 -170.478480037 886 -338.568497496 886 -392 c 0
 886 -419.428642724 873.450306415 -457 846 -457 c 0
 815.492272267 -457 804 -415.676711485 804 -385 c 0
 804 -329.59413268 828 -150.355109985 828 -95 c 0
 828 -50.7464924175 778.042041545 -21 734 -21 c 0
 704.666666667 -21 690 -57.3333333333 690 -130 c 0
 690 -158.963654276 710 -259.065504193 710 -288 c 0
 710 -315.52129224 701.023043952 -364 674 -364 c 0
 654 -364 644 -339.333333333 644 -290 c 0
 644 -254.89773576 672 -142.070405913 672 -107 c 0
 672 -59.6182912975 651.553841766 -41.1239813843 608 -36 c 1
 402.288229894 -5.46465912489 238.418712665 53.3103534973 142 181 c 128
 97.9756528493 239.302513794 84.0601583725 295.006529968 71 375 c 128
 58.3621763556 452.406669822 70.0626298191 543.996594372 22 587 c 1
 31 597 l 1
 50.3333333333 579 67.6666666667 570 83 570 c 0
 208.919923898 570 360.910850674 607.863856334 474 622 c 0
 513.333333333 626 545 643 569 673 c 1
 591 656 l 1
 569.666666667 629.333333333 559 599.333333333 559 566 c 0
 559 421.443390993 614.704159991 297 760 297 c 0
EndSplineSet
EndChar

StartChar: k
Encoding: 107 107 79
Width: 1978
GlyphClass: 2
Flags: HW
LayerCount: 2
Fore
SplineSet
651 376 m 1
 683.636772688 359.681613656 696 340.33506557 696 294 c 2
 696 81 l 2
 696 40.3333333333 709 7 735 -19 c 1
 715 -39 l 1
 689 -13 655.666666667 0 615 0 c 2
 268 0 l 2
 227.333333333 0 194 -13 168 -39 c 1
 148 -19 l 1
 174 7 187 40.3333333333 187 81 c 2
 187 1251 l 2
 187 1291.66666667 174 1325 148 1351 c 1
 168 1372 l 1
 194.666666667 1345.33333333 228 1332 268 1332 c 2
 615 1332 l 2
 655 1332 688.333333333 1345.33333333 715 1372 c 1
 735 1351 l 1
 709 1325 696 1291.66666667 696 1251 c 2
 696 940 l 2
 696 900 688 861.666666667 672 825 c 1
 687 819 l 1
 702.333333333 855 724.666666667 887 754 915 c 2
 1131 1276 l 2
 1158.08397494 1301.90641081 1169.78699221 1318.0433593 1156 1364 c 1
 1191 1377 l 1
 1205.04025647 1343.81393924 1224.59444596 1332 1270 1332 c 2
 1772 1332 l 2
 1809.33333333 1332 1848 1339.33333333 1888 1354 c 1
 1893 1340 l 1
 1855.66666667 1326 1822 1305.66666667 1792 1279 c 2
 1386 926 l 2
 1356.66666667 899.333333333 1323.66666667 888.333333333 1287 893 c 1
 1283 862 l 1
 1319 858.666666667 1348.33333333 840 1371 806 c 2
 1889 67 l 2
 1911.66666667 33.6666666667 1940.33333333 7.66666666667 1975 -11 c 1
 1966 -27 l 1
 1932 -9 1894.66666667 0 1854 0 c 2
 1371 0 l 2
 1324.21146963 0 1304.41684206 -12.6544361753 1287 -45 c 1
 1255 -28 l 1
 1275.125863 13.6892876472 1267.72436263 32.6509914567 1245 68 c 1
 959 490 l 2
 937 524 928.333333333 559.333333333 933 596 c 1
 906 599 l 1
 901.333333333 563 883 532 851 506 c 1
 759 427 l 1
 727.80273696 401.802210622 710.922591634 392.339706621 667 409 c 1
 651 376 l 1
EndSplineSet
EndChar

StartChar: l
Encoding: 108 108 80
Width: 1672
GlyphClass: 2
Flags: HW
LayerCount: 2
Fore
SplineSet
1174 -263 m 1
 1184.95055833 -317.752791643 1208 -373.697241246 1208 -438 c 0
 1208 -469.333333333 1196.66666667 -485 1174 -485 c 128
 1151.33333333 -485 1140 -468.666666667 1140 -436 c 0
 1140 -372.807174689 1163.4680925 -315.659537521 1174 -263 c 1
118 -611 m 0
 118 -532.135420325 172 -272.79060356 172 -194 c 2
 171 1251 l 2
 171 1291.66666667 157.666666667 1325 131 1351 c 1
 152 1372 l 1
 179.333333333 1345.33333333 212.666666667 1332 252 1332 c 2
 610 1332 l 2
 650.666666667 1332 684 1345.33333333 710 1372 c 1
 731 1351 l 1
 704.333333333 1325 691 1291.66666667 691 1251 c 2
 691 426 l 2
 691 386 678 353 652 327 c 1
 673 306 l 1
 707 340 781.333333333 357 896 357 c 0
 974.11206935 357 1291.98620549 333 1370 333 c 0
 1484 333 1558 350 1592 384 c 1
 1613 364 l 1
 1586.33333333 338 1573 304.666666667 1573 264 c 0
 1573 241.266487775 1569 157.957945744 1569 134 c 0
 1569 61.3333333333 1583.66666667 10.3333333333 1613 -19 c 1
 1592 -39 l 1
 1566.66666667 -13 1533.33333333 0 1492 0 c 2
 1201 0 l 1
 1201.66666667 -9.33333333333 1202 -21.6666666667 1202 -37 c 0
 1202 -74.3333333333 1192.66666667 -93 1174 -93 c 128
 1155.33333333 -93 1146 -72 1146 -30 c 0
 1146 -17.3333333333 1146.33333333 -7.33333333333 1147 0 c 1
 252 0 l 2
 217.455920239 0 193 -175.667010435 193 -209 c 0
 193 -285.620358371 241 -537.451457858 241 -614 c 0
 241 -669.333333333 221.333333333 -697 182 -697 c 0
 139.333333333 -697 118 -668.333333333 118 -611 c 0
EndSplineSet
EndChar

StartChar: m
Encoding: 109 109 81
Width: 2407
GlyphClass: 2
Flags: HW
LayerCount: 2
Fore
SplineSet
1187 56 m 0
 1113.8072349 56 1029 16.8982591326 1029 -52 c 0
 1029 -72.092380399 1041 -140.927598552 1041 -161 c 0
 1041 -185.666666667 1032.33333333 -198 1015 -198 c 0
 996.333333333 -198 987 -184.666666667 987 -158 c 0
 987 -122.570474777 1004 -6.63839647284 1004 29 c 0
 1004 73.6666666667 979.5 156.5 930.5 277.5 c 128
 881.5 398.5 828.333333333 528 771 666 c 128
 713.666666667 804 678.666666667 907.666666667 666 977 c 1
 660 976 l 1
 666.666666667 938 670 898 670 856 c 2
 670 -132 l 2
 670 -143.333333333 675.166666667 -188.333333333 685.5 -267 c 128
 695.833333333 -345.666666667 701 -402.333333333 701 -437 c 0
 701 -487.334166191 677.150900516 -536 632 -536 c 0
 589.560867381 -536 567 -489.63880739 567 -442 c 0
 567 -399.372742741 598 -180.348559161 598 -138 c 0
 598 -132.026601091 599 -114.608119457 599 -109 c 0
 599 -63.2515422294 576.098946885 -59.2784317297 525 -52.5 c 128
 492.333333333 -48.1666666667 441 -46 371 -46 c 0
 263 -46 209 -46.6666666667 209 -48 c 0
 209 -48.2163672487 212 -179.976383536 212 -180 c 0
 212 -195.333333333 204.333333333 -203 189 -203 c 0
 174.333333333 -203 167 -196 167 -182 c 0
 167 -180.521963944 173 -44.0378289415 173 -43 c 2
 173 1251 l 2
 173 1292.33333333 160 1325.66666667 134 1351 c 1
 154 1372 l 1
 182 1345.33333333 215.333333333 1332 254 1332 c 2
 895 1332 l 2
 935.666666667 1332 965.666666667 1346.33333333 985 1375 c 1
 1011 1356 l 1
 999 1340.66666667 993 1322.66666667 993 1302 c 0
 993 1207.11063954 1058.07568633 1075.86278111 1095 1002.5 c 128
 1135.22686007 922.57558065 1198 779.511299651 1198 670 c 1
 1212 670 l 1
 1212 780.407798409 1273.59494516 923.314828236 1314.5 1003 c 128
 1352.16438986 1076.37218804 1416 1205.52217214 1416 1301 c 0
 1416 1321 1409.66666667 1339.33333333 1397 1356 c 1
 1424 1375 l 1
 1443.33333333 1346.33333333 1473.33333333 1332 1514 1332 c 2
 2155 1332 l 2
 2195 1332 2228.33333333 1345.33333333 2255 1372 c 1
 2275 1351 l 1
 2249 1325 2236 1291.66666667 2236 1251 c 2
 2236 81 l 2
 2236 32.3333333333 2235.66666667 -1 2235 -19 c 1
 2215 -39 l 1
 2201.66666667 -13 2181.66666667 0 2155 0 c 2
 1820 0 l 2
 1786.66666667 0 1770 -69 1770 -207 c 0
 1770 -247.30321872 1799 -377.02155266 1799 -417 c 0
 1799 -450.344497688 1785.48597242 -482 1756 -482 c 128
 1727.22793842 -482 1711 -449.845511526 1711 -418 c 0
 1711 -382.131767844 1736 -251.567604908 1736 -216 c 2
 1739 81 l 1
 1739 856 l 2
 1739 898 1742.33333333 938 1749 976 c 1
 1742 977 l 1
 1728.66666667 911.666666667 1693.33333333 809.333333333 1636 670 c 128
 1578.66666667 530.666666667 1525.66666667 399.666666667 1477 277 c 128
 1428.33333333 154.333333333 1404 71.6666666667 1404 29 c 2
 1408 -198 l 2
 1409.15288728 -267.173237013 1455 -491.70945148 1455 -563 c 0
 1455 -605.290564707 1436.00979044 -655 1399 -655 c 0
 1361.56007383 -655 1349 -607.227267549 1349 -562 c 0
 1349 -489.110453874 1377 -254.048640559 1377 -181 c 0
 1377 -49.1185607759 1350.48802101 47.3444986868 1228 55 c 128
 1217.33333333 55.6666666667 1203.66666667 56 1187 56 c 0
EndSplineSet
EndChar

StartChar: n
Encoding: 110 110 82
Width: 2009
GlyphClass: 2
Flags: HW
LayerCount: 2
Fore
SplineSet
1800 -45 m 0
 1800 -19.8490329946 1765.78430888 0 1741 0 c 2
 1346 0 l 2
 1290 0 1262 -51 1262 -153 c 0
 1262 -223.819102593 1309 -445.808702016 1309 -516 c 0
 1309 -574 1287.66666667 -603 1245 -603 c 0
 1201 -603 1179 -573.666666667 1179 -515 c 0
 1179 -451.854248287 1229.8622789 -252.436939576 1231 -191 c 2
 1233 -58 l 1
 1235 4 1228.66666667 44.3333333333 1214 63 c 2
 735 670 l 2
 722.333333333 686.666666667 708.333333333 721.333333333 693 774 c 1
 632 772 l 1
 666.666666667 736 684 696 684 652 c 2
 684 81 l 2
 684 -13.0460721033 703 -331.045723077 703 -425 c 0
 703 -446.150967005 689.254901268 -464 668 -464 c 0
 645.463594996 -464 629 -442.405226449 629 -420 c 0
 629 -348.184918259 641 -107.74596537 641 -36 c 0
 641 -20.2084186605 626.84313587 -4 611 -4 c 0
 593.666666667 -4 585 -19.8496748187 585 -37 c 0
 585 -90.3728686966 612 -259.674648808 612 -313 c 0
 612 -339.777464098 601.495577679 -376 575 -376 c 0
 545.796850453 -376 537 -339.45376939 537 -310 c 0
 537 -258.605505184 561 -90.1078450454 561 -39 c 0
 561 7.5816422073 492.923650513 33.3199005777 451.5 40.5 c 128
 426.5 44.8333333333 403 47 381 47 c 0
 306.867854747 47 205 29.4909246395 205 -45 c 0
 205 -101.950423334 251 -280.099254057 251 -337 c 0
 251 -374.582119358 231.749181128 -413 194 -413 c 128
 156.272200131 -413 136 -374.581756917 136 -337 c 0
 136 -279.53579628 185 -97.0992240066 185 -40 c 2
 184 1186 l 2
 184 1264.66666667 160 1330.33333333 112 1383 c 1
 133 1404 l 1
 187 1356 252.666666667 1332 330 1332 c 2
 629 1332 l 2
 719.41140475 1332 774.366904077 1349.9954662 809 1409 c 1
 842 1393 l 1
 824.666666667 1351.66666667 816 1312.66666667 816 1276 c 0
 816 1259.33333333 831 1230.5 861 1189.5 c 128
 971.275105379 1038.79068932 1127.55373805 885.088905227 1239.5 732 c 128
 1278.5 678.666666667 1304 635.333333333 1316 602 c 1
 1376 602 l 1
 1343.33333333 650 1327 717.666666667 1327 805 c 0
 1327 873.554361124 1357 1101.51097544 1357 1170 c 0
 1357 1279.33333333 1322.33333333 1350.33333333 1253 1383 c 1
 1274 1404 l 1
 1328 1356 1393.66666667 1332 1471 1332 c 2
 1676 1332 l 2
 1753.33333333 1332 1819 1356 1873 1404 c 1
 1893 1383 l 1
 1845.66666667 1329.66666667 1822 1264 1822 1186 c 2
 1820 -35 l 2
 1820 -83.356369385 1860 -243.689528205 1860 -292 c 0
 1860 -334.666666667 1843.66666667 -356 1811 -356 c 128
 1778.33333333 -356 1762 -334.666666667 1762 -292 c 0
 1762 -244.343295905 1800 -92.614046335 1800 -45 c 0
EndSplineSet
EndChar

StartChar: o
Encoding: 111 111 83
Width: 1986
GlyphClass: 2
Flags: HW
LayerCount: 2
Fore
SplineSet
981 1022 m 128
 757.312627991 1022 633 899.738559783 633 676 c 0
 633 432 749 310 981 310 c 128
 1213 310 1329 432 1329 676 c 0
 1329 899.739476674 1204.68627174 1022 981 1022 c 128
494 -410 m 0
 494 -329.181025408 552 -69.0335554894 552 12 c 1
 262.391919064 103.648126879 76 314.285182412 76 677 c 0
 76 1194.9327195 465.451272063 1375 981 1375 c 0
 1398.10996414 1375 1712.76160629 1255.9840646 1835 956.5 c 128
 1868.33333333 874.833333333 1885 781.666666667 1885 677 c 0
 1885 228.901959098 1609.43607524 16.3602546312 1199 -34 c 1
 1196.33333333 -38.6666666667 1195 -46 1195 -56 c 0
 1195 -64.7865660167 1200 -102.997589641 1200 -111 c 0
 1200 -131.823308841 1191.7664019 -162 1171 -162 c 0
 1153 -162 1144 -145.666666667 1144 -113 c 0
 1144 -103.049975625 1147 -65.7414138896 1147 -57 c 0
 1147 -36.578943803 1124.40530427 -27 1104 -27 c 1
 1101.33333333 -33 1100 -44.3333333333 1100 -61 c 0
 1100 -75.2721832749 1105 -144.726409799 1105 -158 c 0
 1105 -194.522891447 1093.21848931 -244 1057 -244 c 0
 1026.33333333 -244 1011 -216.666666667 1011 -162 c 0
 1011 -145.574120838 1018 -79.8327800398 1018 -66 c 0
 1018 -31.872217693 977.159980078 -14 943 -14 c 0
 905.320337806 -14 870 -34.260519615 870 -72 c 2
 870 -302 l 2
 870 -358.739200653 912 -539.311556682 912 -596 c 0
 912 -638.23510826 887.112564472 -683 845 -683 c 0
 801.063198755 -683 781 -636.214317578 781 -592 c 0
 781 -526.772116295 827 -320.911664951 827 -254 c 0
 827 -89.3333333333 796.333333333 -7 735 -7 c 0
 652.333333333 -7 611 -3.66666666667 611 3 c 2
 611 1 l 2
 611 -76.7613603102 672 -325.609372913 672 -403 c 0
 672 -463.7729766 646.402659688 -526 586 -526 c 0
 528.363621846 -526 494 -467.32983204 494 -410 c 0
EndSplineSet
EndChar

StartChar: p
Encoding: 112 112 84
Width: 1901
GlyphClass: 2
Flags: HW
LayerCount: 2
Fore
SplineSet
1280 895 m 0
 1280 987.224277136 1196.83064392 1002 1105 1002 c 2
 777 1002 l 2
 735.666666667 1002 702.333333333 1014.66666667 677 1040 c 1
 656 1021 l 1
 682.666666667 994.333333333 696 961 696 921 c 2
 696 862 l 2
 696 822.666666667 682.666666667 789.666666667 656 763 c 1
 677 742 l 1
 703 768 736.333333333 781 777 781 c 2
 1101 781 l 2
 1206.12920707 781 1280 789.200172789 1280 895 c 0
1812 931 m 0
 1812 620.990769078 1644.21027383 480 1328 480 c 2
 777 480 l 2
 735.666666667 480 702.333333333 492.666666667 677 518 c 1
 656 499 l 1
 682.666666667 472.333333333 696 439 696 399 c 2
 696 81 l 2
 696 29.6666666667 695.333333333 -33.3333333333 694 -108 c 1
 649 -112 l 1
 640.333333333 -37.3333333333 629 0 615 0 c 2
 462 0 l 1
 458.499346663 -21.0039200205 456 -42.2484355016 456 -68 c 0
 456 -102.666587936 482 -270.3879492 482 -305 c 0
 482 -345.666666667 467.666666667 -366 439 -366 c 0
 408.333333333 -366 393 -345.333333333 393 -304 c 0
 393 -266.665473759 430 -89.53551989 430 -52 c 0
 430 -36 430 -36 430 0 c 1
 257 0 l 2
 234.164874059 0 230 -109.389860835 230 -144 c 0
 230 -186.91676653 268 -399.917765596 268 -443 c 0
 268 -504.333333333 246.333333333 -535 203 -535 c 0
 157 -535 134 -503.666666667 134 -441 c 0
 134 -394.933679366 178 -168.238706267 178 -122 c 0
 178 -81.9854108036 176 38.2980519776 176 81 c 2
 176 1255 l 2
 176 1295.66666667 163.333333333 1328.66666667 138 1354 c 1
 158 1374 l 1
 183.333333333 1348.66666667 216.333333333 1336 257 1336 c 2
 1120 1336 l 2
 1485.94774337 1336 1812 1296.47105147 1812 931 c 0
EndSplineSet
EndChar

StartChar: q
Encoding: 113 113 85
Width: 2019
GlyphClass: 2
Flags: HW
LayerCount: 2
Fore
SplineSet
1687 -652 m 1
 1697.73647507 -702.103550314 1721 -774.054359152 1721 -834 c 0
 1721 -865.333333333 1709.66666667 -881 1687 -881 c 0
 1662.53388396 -881 1653 -856.408323097 1653 -832 c 0
 1653 -764.542792056 1674.29163102 -707.069598921 1687 -652 c 1
1545 -580 m 0
 1545 -542.159237203 1560 -390.774356061 1560 -350 c 0
 1560 -238.666666667 1530 -162.333333333 1470 -121 c 2
 1324 -22 l 2
 1300.08055864 -5.3603886212 1280 6.66206399612 1280 40 c 0
 1280 47.3333333333 1280.66666667 53.3333333333 1282 58 c 1
 1245 67 l 1
 1236.69172509 28.2280504269 1215.80551351 17.1885470917 1173 12 c 1
 1103.66666667 1.33333333333 1041 -4 985 -4 c 0
 462.872431214 -4 79 176.80077239 79 701 c 0
 79 1219.29342846 466.81311219 1400 985 1400 c 128
 1409.46145739 1400 1728.77297228 1278.82733603 1844 968.5 c 128
 1873.33333333 889.5 1888 800.333333333 1888 701 c 0
 1888 517 1840.33333333 373.333333333 1745 270 c 0
 1716.33333333 239.333333333 1684.66666667 222.333333333 1650 219 c 1
 1651 193 l 1
 1655 193.666666667 1661.66666667 194 1671 194 c 0
 1701 194 1729.66666667 184.666666667 1757 166 c 2
 1885 80 l 2
 1914.33333333 60 1946 49.6666666667 1980 49 c 0
 1982.34983264 49 1988.65178727 50 1991 50 c 1
 1993 25 l 1
 1955.66666667 22.3333333333 1921.66666667 7.66666666667 1891 -19 c 2
 1706 -177 l 1
 1706 -211.370970346 1730 -325.939843551 1730 -360 c 0
 1730 -400.666666667 1715.66666667 -421 1687 -421 c 0
 1657.66666667 -421 1643 -401 1643 -361 c 0
 1643 -329.986225036 1668 -226.687528845 1668 -196 c 0
 1668 -158.666666667 1659.66666667 -140 1643 -140 c 0
 1615.46881161 -140 1607 -194.652434442 1607 -223 c 0
 1607 -290.872783519 1635 -516.96612782 1635 -585 c 0
 1635 -624.333333333 1621 -644 1593 -644 c 0
 1561 -644 1545 -622.666666667 1545 -580 c 0
986 1053 m 128
 763.586735415 1053 633 932.444914127 633 706 c 0
 633 463.333333333 750.666666667 342 986 342 c 0
 1220 342 1337 463.333333333 1337 706 c 0
 1337 932.44882873 1208.46163593 1053 986 1053 c 128
EndSplineSet
EndChar

StartChar: r
Encoding: 114 114 86
Width: 2066
GlyphClass: 2
Flags: HW
LayerCount: 2
Fore
SplineSet
1102 1004 m 0
 1060.20468594 1004 907.749956441 997 866 997 c 0
 769.333333333 997 706.333333333 1011.33333333 677 1040 c 1
 656 1021 l 1
 682.666666667 995 696 961.666666667 696 921 c 2
 696 854 l 2
 696 814 682.666666667 780.666666667 656 754 c 1
 677 734 l 1
 705.666666667 763.333333333 765 778 855 778 c 0
 898.51147866 778 1064.5387387 769 1108 769 c 0
 1223.16171895 769 1320 786.88915356 1320 893 c 0
 1320 955.724727806 1268.71492625 987.173592117 1214 996.5 c 128
 1184.66666667 1001.5 1147.33333333 1004 1102 1004 c 0
1768 -328 m 0
 1768 -289.421579896 1790 -159.795258581 1790 -121 c 0
 1790 -37 1752.66666667 29.3333333333 1678 78 c 0
 1550.11167296 160.50859809 1291 155.318901262 1291 -24 c 128
 1291 -74.7062020299 1286 -241.341315475 1286 -292 c 0
 1286 -354.032919892 1320 -557.024857074 1320 -619 c 0
 1320 -683.666666667 1301.33333333 -716 1264 -716 c 0
 1228 -716 1210 -684.666666667 1210 -622 c 0
 1210 -554.777352766 1245.66835048 -336.954536924 1248 -274 c 0
 1250 -230 1251 -142.666666667 1251 -12 c 0
 1251 22.6666666667 1240.33333333 62.6666666667 1219 108 c 128
 1174.2020956 203.195546844 1052.91688589 405.899167814 1005 505 c 1
 975 522 l 1
 959 492.666666667 930.666666667 478 890 478 c 0
 874.481497133 478 821.864570421 475 806 475 c 0
 748.666666667 475 705.666666667 489 677 517 c 1
 656 497 l 1
 658 472.333333333 659 419.666666667 659 339 c 0
 659 297.349174519 658 135.728980338 658 94 c 0
 658 20.6666666667 659.333333333 -33.3333333333 662 -68 c 1
 662 -88.3437755681 681 -194.458359808 681 -215 c 0
 681 -242.333333333 671.333333333 -256 652 -256 c 0
 634 -256 625 -243.333333333 625 -218 c 0
 625 -200.495558434 641 -111.710678336 641 -94 c 0
 641 -36.8728225332 603.581142042 4 548 4 c 0
 475.013950231 4 438 -63.1474672785 438 -145 c 0
 438 -193.771979886 482 -392.563366001 482 -441 c 0
 482 -503.666666667 459 -535 413 -535 c 0
 369.666666667 -535 348 -504.333333333 348 -443 c 0
 348 -399.829079993 387 -186.862850735 387 -144 c 0
 387 -58.2551159908 360.164824934 21 288 21 c 0
 241.861714055 21 203 -20.3812946446 203 -68 c 0
 203 -102.666587936 230 -270.3879492 230 -305 c 0
 230 -345.666666667 215.333333333 -366 186 -366 c 0
 155.333333333 -366 140 -345.333333333 140 -304 c 0
 140 -266.667310195 178 -89.537390741 178 -52 c 1
 176.666666667 -10 176 425.666666667 176 1255 c 0
 176 1296.33333333 163.333333333 1329.33333333 138 1354 c 1
 158 1374 l 1
 184 1348.66666667 217 1336 257 1336 c 2
 1153 1336 l 2
 1518.52670072 1336 1845 1296.32989857 1845 931 c 0
 1845 695.82369998 1743.50921992 549 1504 549 c 1
 1496 526 l 1
 1526.84535218 513.661859127 1566.36293817 485.637829853 1580 457 c 0
 1623.39236624 362.07919884 1619.35299449 369.665536466 1664.5 286.5 c 128
 1721.00256216 182.416332861 1779.11313241 121.438503924 1891 68 c 128
 1935.66666667 46.6666666667 1964 32.3333333333 1976 25 c 1
 1982.66666667 19.6666666667 1986 15 1986 11 c 0
 1986 -55.6666666667 1995 -141.333333333 2013 -246 c 128
 2031 -350.666666667 2040 -426.666666667 2040 -474 c 0
 2040 -513.135960728 2028.77264792 -572 1990 -572 c 0
 1951.86187868 -572 1940 -511.734283647 1940 -473 c 0
 1940 -401.778972209 1966 -171.155691222 1966 -100 c 0
 1966 -16.6666666667 1939 25 1885 25 c 0
 1833.31426764 25 1806 10.9167194186 1806 -40 c 0
 1806 -94.6541847332 1842 -272.495999793 1842 -326 c 0
 1842 -360 1829.33333333 -377 1804 -377 c 0
 1780 -377 1768 -360.666666667 1768 -328 c 0
EndSplineSet
EndChar

StartChar: s
Encoding: 115 115 87
Width: 1887
GlyphClass: 2
Flags: HW
LayerCount: 2
Fore
SplineSet
1098 967 m 0
 1098 1037.81897391 957.477334898 1070 876 1070 c 0
 764 1070 708 1048 708 1004 c 0
 708 960.438887834 788.403195668 943.960404027 838.5 935 c 128
 947.291355583 915.541383554 1091.21132206 906.665094159 1204 891 c 1
 1490.67686464 848.424228024 1719.47611274 796.060343913 1775 580 c 0
 1782.33333333 550 1786 517.333333333 1786 482 c 0
 1786 248.825151305 1634.87789223 129.392981543 1461 66 c 128
 1342.51149511 22.8010659246 1219.34501072 3 1066 3 c 0
 1026 3 1002.33333333 3.33333333333 995 4 c 0
 951.740529692 4 941 -35.3917530434 941 -79 c 130
 941 -103 l 2
 941 -133.006400795 968 -231.336989232 968 -261 c 0
 968 -286.692618272 956.779215176 -314 931 -314 c 128
 905.718771332 -314 891 -287.993461051 891 -263 c 0
 891 -229.734931365 916 -122.528707223 916 -89 c 0
 916 -34.1213094941 915.656768351 10 861 10 c 0
 804.02686972 10 794 -38.7214039835 794 -98 c 0
 794 -137.206978754 800 -213.165428664 800 -262 c 0
 800 -306 794.333333333 -328 783 -328 c 0
 769 -328 762 -316 762 -292 c 0
 762 -272.818507572 772 -210.163673364 772 -191 c 2
 772 -4 l 1
 623.125735381 3.83548761154 480.838222436 19.9144794367 370 69.5 c 128
 248.725513503 123.754375538 157.652605009 203.948955687 115 338 c 0
 101.666666667 381.333333333 79.3333333333 414 48 436 c 1
 63 457 l 1
 93 437 127 427 165 427 c 0
 295.431698724 427 502.332772995 442.638865541 631 448 c 0
 681.969368373 450.548468419 709.351151383 459.648026525 722 499 c 1
 767 484 l 1
 765 478.666666667 764 471.666666667 764 463 c 0
 764 441 780.666666667 417.333333333 814 392 c 0
 854 361.333333333 922 346 1018 346 c 0
 1075.90473385 346 1174 357.294418923 1174 415 c 0
 1174 487.231330535 1067.27962895 495.807637478 989.5 507.5 c 128
 665.892669528 556.1468536 262.934278025 547.466872166 136.5 794.5 c 128
 114.833333333 836.833333333 104 885 104 939 c 128
 104 1230.57215193 338.268089801 1339.96754413 585.5 1384.5 c 128
 687.370618546 1402.84936607 780.518451603 1410 896 1410 c 0
 1059.46746935 1410 1224.90547737 1402.07038093 1356.5 1362.5 c 128
 1512.6657822 1315.5410585 1643.24197665 1241.24350465 1703 1097 c 1
 1719 1063 1741 1031.33333333 1769 1002 c 1
 1756 979 l 1
 1728 998.333333333 1695.66666667 1008 1659 1008 c 2
 1646 1008 l 1
 1576.96350897 1005.41113159 1288.61176215 988.871633873 1224 986 c 0
 1173.38207185 983.469103592 1150.37208877 975.802310688 1139 936 c 1
 1095 948 l 1
 1097 954 1098 960.333333333 1098 967 c 0
EndSplineSet
EndChar

StartChar: t
Encoding: 116 116 88
Width: 1667
GlyphClass: 2
Flags: HW
LayerCount: 2
Fore
SplineSet
954 -502 m 1
 960.769967671 -532.948423637 978 -655.521599289 978 -693 c 0
 978 -716.333333333 969.666666667 -728 953 -728 c 128
 936.333333333 -728 928 -716 928 -692 c 0
 928 -654.433629046 946.464800223 -532.140799106 954 -502 c 1
92 1073 m 0
 92 1094.09487038 97 1178.34646022 97 1201 c 0
 97 1274.33333333 82.6666666667 1325 54 1353 c 1
 74 1373 l 1
 100.666666667 1347 133.666666667 1334 173 1334 c 2
 1486 1334 l 2
 1526.66666667 1334 1560 1347 1586 1373 c 1
 1606 1353 l 1
 1580.66666667 1327.66666667 1568 1294.33333333 1568 1253 c 0
 1568 1230.90735315 1563 1148.19841839 1563 1125 c 0
 1563 1053 1577.33333333 1002.66666667 1606 974 c 1
 1586 953 l 1
 1556 983.666666667 1507.33333333 999 1440 999 c 0
 1402.09923705 999 1257.25015383 985 1219 985 c 0
 1149 985 1098.66666667 1000.33333333 1068 1031 c 1
 1047 1011 l 1
 1073 985.666666667 1086 952.333333333 1086 911 c 2
 1086 81 l 2
 1086 -36.7818822279 1123 -422.118470818 1123 -540 c 0
 1123 -569.194172518 1111.12096057 -614 1082 -614 c 0
 1047.26032962 -614 1041 -556.797975295 1041 -522 c 0
 1041 -443.135420325 1068 -183.79060356 1068 -105 c 0
 1068 -32.3333333333 1053.66666667 4 1025 4 c 0
 995.896548505 4 980 -40.7503862997 980 -70 c 0
 980 -109.379484167 1003 -239.657773876 1003 -279 c 0
 1003 -309.673441097 992.513328242 -351 962 -351 c 0
 933.185155503 -351 921 -314.825987098 921 -286 c 0
 921 -247.844546484 957 -130.458396034 957 -92 c 0
 957 -28.8367159819 901.725226378 -4 838 -4 c 0
 749.501737375 -4 674.957479177 -40.8695855025 627 -90.5 c 128
 598.333333333 -120.166666667 584 -153.666666667 584 -191 c 0
 584 -226.404154389 611 -342.335968223 611 -378 c 0
 611 -412 598.666666667 -429 574 -429 c 0
 546 -429 532 -411 532 -375 c 0
 532 -335.917079508 564 -208.743579303 564 -170 c 2
 564 90 l 1
 565.333333333 455.333333333 566 729 566 911 c 0
 566 953 578.666666667 986.333333333 604 1011 c 1
 584 1031 l 1
 554.666666667 1001 506 986 438 986 c 0
 401.009962572 986 259.947379668 999 223 999 c 0
 154.333333333 999 104.666666667 983.666666667 74 953 c 1
 54 974 l 1
 79.3333333333 999.333333333 92 1032.33333333 92 1073 c 0
EndSplineSet
EndChar

StartChar: u
Encoding: 117 117 89
Width: 1887
GlyphClass: 2
Flags: HW
LayerCount: 2
Fore
SplineSet
1140 -602 m 0
 1118.66666667 -602 1108 -585.666666667 1108 -553 c 0
 1108 -522.750372898 1119.68398973 -478.043273751 1129 -456.5 c 128
 1134.33333333 -444.166666667 1138.33333333 -438 1141 -438 c 0
 1156.67775919 -438 1174 -533.000229461 1174 -554 c 0
 1174 -586 1162.66666667 -602 1140 -602 c 0
1732 1130 m 0
 1732 1010.58659219 1741 730.176872742 1741 619 c 0
 1741 465.55798183 1728.80678611 329.405096898 1675 228 c 128
 1583.67663965 55.8905901108 1397.11167909 -14.7376865681 1150 -37 c 1
 1150 -224 l 2
 1150 -242.970269747 1160 -308.048629261 1160 -327 c 0
 1160 -349.666666667 1153 -361 1139 -361 c 0
 1127.66666667 -361 1122 -339 1122 -295 c 0
 1122 -245.629529281 1128 -171.665745679 1128 -132 c 0
 1128 -74.8994507111 1117.41711613 -24 1061 -24 c 0
 1026.33333333 -24 1009 -52.3333333333 1009 -109 c 0
 1009 -123.668967181 1014 -182.687732558 1014 -196 c 0
 1014 -229.573436383 1039 -336.750734275 1039 -370 c 0
 1039 -394.99465301 1025.30718931 -421 1000 -421 c 128
 974.238982495 -421 962 -393.694925132 962 -368 c 0
 962 -338.323183448 989 -239.963990426 989 -210 c 0
 989 -207 989 -207 989 -201 c 0
 989 -146.101553519 990.014755919 -70 935 -70 c 0
 869.325852215 -70 861 -150.619967432 861 -215.5 c 130
 861 -262 l 2
 861 -302.935445445 897 -435.729919125 897 -476 c 0
 897 -511.613861972 882.547032274 -549 847 -549 c 0
 813.310083509 -549 793 -514.644891618 793 -481 c 0
 793 -435.283541161 826 -287.963513197 826 -242 c 2
 826 -43 l 1
 551.141366845 -30.3628214642 322.454956221 21.1939026864 216 202.5 c 128
 128.538108274 351.458534347 143 517.816974193 143 773 c 0
 143 859.402520219 145 1148.68063541 145 1235 c 0
 145 1274.33333333 132 1307.33333333 106 1334 c 1
 127 1354 l 1
 151.666666667 1328.66666667 184.666666667 1316 226 1316 c 2
 580 1316 l 2
 620.666666667 1316 653.666666667 1328.66666667 679 1354 c 1
 700 1334 l 1
 674.666666667 1308 662 1275 662 1235 c 2
 664 721 l 2
 664 620.559537275 667.348445872 536.613375085 689.5 458.5 c 128
 719.152098579 353.93733659 803.427365606 300 939 300 c 0
 1037.26616094 300 1114.22421753 328.10654445 1152.5 387.5 c 128
 1172.45169148 418.459521267 1186.67013981 439.888359099 1195.5 482 c 128
 1210.54643318 553.759912077 1215 631.14044779 1215 721 c 2
 1217 1235 l 2
 1217 1275.66666667 1204.66666667 1308.66666667 1180 1334 c 1
 1199 1354 l 1
 1224.33333333 1328.66666667 1257.66666667 1316 1299 1316 c 2
 1653 1316 l 2
 1695 1316 1728.33333333 1328.66666667 1753 1354 c 1
 1773 1334 l 1
 1745.66666667 1306 1732 1238 1732 1130 c 0
EndSplineSet
EndChar

StartChar: v
Encoding: 118 118 90
Width: 1760
GlyphClass: 2
Flags: HW
LayerCount: 2
Fore
SplineSet
1083 -500 m 0
 1083 -425.286531037 1133 -188.211326928 1133 -113 c 0
 1133 -16.3333333333 1124.33333333 32 1107 32 c 2
 623 32 l 2
 612.333333333 32 607 7.33333333333 607 -42 c 0
 607 -82.9669696889 622 -221.287375535 622 -262 c 0
 622 -280.536405004 610.614378623 -295 592 -295 c 0
 572.078156998 -295 559 -278.84313587 559 -259 c 0
 559 -210.432407934 587 -52.5227744194 587 -4 c 0
 587 52 576 105 554 155 c 2
 58 1296 l 2
 43.3333333333 1332 19.6666666667 1361 -13 1383 c 1
 0 1402 l 1
 31.3333333333 1381.33333333 67.3333333333 1371 108 1371 c 2
 457 1371 l 2
 497.666666667 1371 527 1385 545 1413 c 1
 574 1395 l 1
 562.666666667 1380.33333333 557 1363.66666667 557 1345 c 0
 557 1336.33333333 566.166666667 1308 584.5 1260 c 128
 670.053800874 1036.00459407 783.799808714 785.480459087 874 569 c 1
 963.382072628 783.516974307 1079.82857713 1040.93300194 1163.5 1260 c 128
 1181.83333333 1308 1191 1336.33333333 1191 1345 c 0
 1191 1365 1185.66666667 1381.66666667 1175 1395 c 1
 1203 1413 l 1
 1221 1385 1250.33333333 1371 1291 1371 c 2
 1641 1371 l 2
 1682.33333333 1371 1718.66666667 1381.33333333 1750 1402 c 1
 1762 1383 l 1
 1729.33333333 1361 1705.66666667 1332 1691 1296 c 2
 1188 106 l 2
 1179.33333333 86 1175 25.3333333333 1175 -76 c 0
 1175 -158.867726954 1222 -418.322611447 1222 -499 c 0
 1222 -563.666666667 1198.66666667 -596 1152 -596 c 0
 1106 -596 1083 -564 1083 -500 c 0
EndSplineSet
EndChar

StartChar: w
Encoding: 119 119 91
Width: 2587
GlyphClass: 2
Flags: HW
LayerCount: 2
Fore
SplineSet
462 -261 m 0
 462 -203.244300035 490 -17.7033227151 490 40 c 0
 490 62 488 80.3333333333 484 95 c 2
 78 1276 l 2
 63.3333333333 1316.66666667 41.3333333333 1347 12 1367 c 1
 26 1387 l 1
 58 1365 93.6666666667 1354 133 1354 c 2
 500 1354 l 2
 541.333333333 1354 572 1368 592 1396 c 1
 618 1376 l 1
 604 1358 597 1338.66666667 597 1318 c 0
 597 1280 607.333333333 1229.16666667 628 1165.5 c 128
 671.33448674 1032.00182311 722.190807399 928.541110184 763 789 c 128
 783.666666667 718.333333333 794 657.666666667 794 607 c 1
 807 607 l 1
 807 726.062109388 881.198326909 892.40779578 925.5 983.5 c 128
 955.166666667 1044.5 982.333333333 1107.33333333 1007 1172 c 128
 1031.66666667 1236.66666667 1044 1287.33333333 1044 1324 c 0
 1044 1342 1038 1359.66666667 1026 1377 c 1
 1052 1397 l 1
 1072 1368.33333333 1102.33333333 1354 1143 1354 c 2
 1426 1354 l 2
 1466 1354 1496 1368.33333333 1516 1397 c 1
 1543 1377 l 1
 1530.33333333 1360.33333333 1524 1342.66666667 1524 1324 c 0
 1524 1289.33333333 1536.16666667 1239.83333333 1560.5 1175.5 c 128
 1611.58740575 1040.43329712 1673.58761207 930.019842413 1722.5 788.5 c 128
 1747.5 716.166666667 1760.33333333 655.666666667 1761 607 c 1
 1774 607 l 1
 1774 726.824062968 1832.88658978 889.002070417 1872 981.5 c 128
 1896.66666667 1039.83333333 1919.16666667 1100.83333333 1939.5 1164.5 c 128
 1959.83333333 1228.16666667 1970 1279.33333333 1970 1318 c 0
 1970 1340 1963.66666667 1359.33333333 1951 1376 c 1
 1977 1396 l 1
 1997 1368 2027.66666667 1354 2069 1354 c 2
 2436 1354 l 2
 2475.33333333 1354 2511 1365 2543 1387 c 1
 2556 1367 l 1
 2526.66666667 1347 2505 1316.66666667 2491 1276 c 0
 2456.1089653 1171.32689591 2366.55906124 928.16325742 2322 801.5 c 128
 2259.78951627 624.660939758 2168.26160371 362.817255026 2114 190.5 c 128
 2089.33333333 112.166666667 2077 65.6666666667 2077 51 c 0
 2077 31 2083.33333333 12.6666666667 2096 -4 c 1
 2069 -24 l 1
 2049 4.66666666667 2018.66666667 19 1978 19 c 2
 1607 20 l 2
 1565.66666667 20 1535.33333333 6 1516 -22 c 1
 1489 -4 l 1
 1501 12 1507 30.3333333333 1507 51 c 0
 1507 87 1495.66666667 135.833333333 1473 197.5 c 128
 1425.78975924 325.939625589 1368.82551777 427.682645495 1324 561.5 c 128
 1301.33333333 629.166666667 1290 686.333333333 1290 733 c 1
 1278 733 l 1
 1278 617.419301939 1210.94373032 460.968022976 1169 373.5 c 128
 1141.66666667 316.5 1116.66666667 257.333333333 1094 196 c 128
 1071.33333333 134.666666667 1060 86.3333333333 1060 51 c 0
 1060 29.6666666667 1066.33333333 11.3333333333 1079 -4 c 1
 1052 -22 l 1
 1032.66666667 6 1002.33333333 20 961 20 c 2
 591 19 l 2
 551.666666667 19 532 7.33333333333 532 -16 c 0
 532 -62.1121480806 549 -214.931589623 549 -261 c 0
 549 -292.620651004 533.492668646 -328 502 -328 c 0
 472.809443714 -328 462 -290.450090876 462 -261 c 0
EndSplineSet
EndChar

StartChar: x
Encoding: 120 120 92
Width: 1832
GlyphClass: 2
Flags: HW
LayerCount: 2
Fore
SplineSet
1122 -742 m 0
 1076.84502757 -742 1050 -701.290759961 1050 -652 c 0
 1050 -602.666666667 1061.5 -512.333333333 1084.5 -381 c 128
 1107.5 -249.666666667 1119 -159.333333333 1119 -110 c 2
 1120 80 l 1
 961 306 l 2
 937 341.333333333 925 376.666666667 925 412 c 1
 900 412 l 1
 900 374 888.333333333 338.666666667 865 306 c 2
 702 80 l 2
 686.666666667 58 679 39.3333333333 679 24 c 0
 679 14 682.666666667 1.66666666667 690 -13 c 1
 657 -30 l 1
 639.537934872 2.42954952332 619.874839946 14 573 14 c 2
 101 14 l 2
 61 14 23 5.66666666667 -13 -11 c 1
 -21 4 l 1
 17 22.6666666667 48 47 72 77 c 2
 555 660 l 2
 581 690.666666667 612 706 648 706 c 1
 648 737 l 1
 612.666666667 737 582.666666667 753.333333333 558 786 c 2
 166 1288 l 2
 141.333333333 1320 111.333333333 1344.66666667 76 1362 c 1
 84 1378 l 1
 118.666666667 1360.66666667 156.333333333 1352 197 1352 c 2
 643 1350 l 2
 683.666666667 1350 711.333333333 1365 726 1395 c 1
 758 1379 l 1
 751.333333333 1363.66666667 748 1351.33333333 748 1342 c 0
 747.333333333 1326 755.666666667 1307 773 1285 c 2
 889 1135 l 2
 913 1104.33333333 925 1069.33333333 925 1030 c 1
 950 1030 l 1
 950 1068.66666667 962.333333333 1103.66666667 987 1135 c 2
 1103 1285 l 2
 1119 1306.33333333 1127 1325.33333333 1127 1342 c 0
 1127 1352.66666667 1124 1365 1118 1379 c 1
 1150 1395 l 1
 1164.66666667 1365 1192.33333333 1350 1233 1350 c 2
 1668 1352 l 2
 1708 1352 1746 1360.33333333 1782 1377 c 1
 1789 1362 l 1
 1753.66666667 1344.66666667 1723.33333333 1320.33333333 1698 1289 c 2
 1287 785 l 2
 1261.66666667 753.666666667 1231 738 1195 738 c 1
 1195 706 l 1
 1231 706 1261.33333333 690.333333333 1286 659 c 2
 1745 77 l 2
 1768.33333333 47 1798.66666667 22.6666666667 1836 4 c 1
 1828 -12 l 1
 1793.33333333 5.33333333333 1755.66666667 14 1715 14 c 2
 1253 14 l 2
 1177.81565473 14 1159 -37.7232848525 1159 -127 c 0
 1159 -197.659699157 1201 -568.170452432 1201 -640 c 0
 1201 -694.646454546 1171.99016507 -742 1122 -742 c 0
EndSplineSet
EndChar

StartChar: y
Encoding: 121 121 93
Width: 1780
GlyphClass: 2
Flags: HW
LayerCount: 2
Fore
SplineSet
720 -354 m 0
 720 -315.993524347 731 -196.183034761 731 -158 c 0
 731 -46 717 10 689 10 c 0
 649.349287114 10 647 -55.2642744743 647 -96 c 130
 647 -125 l 2
 647 -174.076771006 686 -332.667312082 686 -382 c 0
 686 -427.333333333 669 -450 635 -450 c 0
 601.666666667 -450 585 -427.333333333 585 -382 c 0
 585 -329.538019274 627 -166.416623107 627 -114 c 2
 625 294 l 2
 625 337.614956255 634.144254479 356.672371697 669 367 c 1
 659 405 l 1
 649.666666667 402.333333333 642 401 636 401 c 0
 607.369980391 401 594.958122859 425.398475553 583 444 c 2
 76 1270 l 2
 56 1302.66666667 28.6666666667 1329.33333333 -6 1350 c 1
 3 1367 l 1
 36.3333333333 1348.33333333 74 1339 116 1339 c 2
 519 1341 l 2
 559 1341 587.333333333 1355.33333333 604 1384 c 1
 635 1367 l 1
 626.333333333 1351 622 1337 622 1325 c 0
 622 1299 635.5 1263 662.5 1217 c 128
 718.825551145 1121.0379499 787.801185983 1041.79521746 840.5 939 c 128
 867.5 886.333333333 881 840.666666667 881 802 c 1
 902 802 l 1
 902 810 l 2
 902 843.333333333 915.5 886 942.5 938 c 128
 995.140127374 1039.38098605 1065.76388013 1125.85406591 1121.5 1221.5 c 128
 1148.5 1267.83333333 1162 1302.33333333 1162 1325 c 0
 1162 1335.66666667 1157.33333333 1349.66666667 1148 1367 c 1
 1179 1384 l 1
 1195.66666667 1355.33333333 1224.33333333 1341 1265 1341 c 2
 1644 1339 l 2
 1685.33333333 1339 1722.66666667 1348.33333333 1756 1367 c 1
 1765 1350 l 1
 1729 1328.66666667 1701.33333333 1302 1682 1270 c 2
 1170 444 l 2
 1156.04087946 421.06715912 1146.26111661 401 1117 401 c 0
 1109.66666667 401 1102 402.333333333 1094 405 c 1
 1082 368 l 1
 1114 358 1130 324.666666667 1130 268 c 0
 1130 243.646628651 1124 154.230512761 1124 129 c 0
 1124 65 1138 19 1166 -9 c 1
 1145 -29 l 1
 1119 -3 1086 10 1046 10 c 2
 812 10 l 2
 769.333333333 10 748 -50.3333333333 748 -171 c 0
 748 -206.787884887 763 -321.477511211 763 -357 c 0
 763 -380.333333333 756 -392 742 -392 c 0
 727.333333333 -392 720 -379.333333333 720 -354 c 0
EndSplineSet
EndChar

StartChar: z
Encoding: 122 122 94
Width: 1866
GlyphClass: 2
Flags: HW
LayerCount: 2
Fore
SplineSet
1616 -586 m 0
 1616 -523.521186251 1642 -197.897589209 1642 -136 c 1
 1634 -95.3333333333 1605.83333333 -59.1666666667 1557.5 -27.5 c 128
 1509.16666667 4.16666666667 1463 20 1419 20 c 0
 1347 20 1311 -41.6666666667 1311 -165 c 0
 1311 -195.60164777 1316 -296.534157634 1316 -328 c 0
 1316 -368.441600847 1342 -486.120194013 1342 -528 c 0
 1342 -584.666666667 1323.66666667 -613 1287 -613 c 0
 1251 -613 1233 -586.333333333 1233 -533 c 0
 1233 -502.282373187 1274 -365.992459854 1274 -335 c 2
 1274 -244.5 l 130
 1274 -174.79779159 1263.53793341 -104.46010496 1245.5 -55.5 c 128
 1233.88398991 -23.9708297487 1213.48552149 0 1175 0 c 2
 288 0 l 2
 197.577994731 0 163 -24.0831718895 163 -107 c 0
 163 -153.165679213 179 -611.726194344 179 -662 c 0
 179 -709.107415876 163.017749328 -762 123 -762 c 128
 82.9042213166 -762 69 -709.684048041 69 -662 c 0
 69 -584.68005507 112 -191.190351735 112 -114 c 0
 112 -74.0580274435 110 38.3865358762 110 81 c 2
 110 211 l 2
 110 256.925995026 98.9341955552 276.799602051 66 292 c 1
 81 326 l 1
 96.3333333333 320 107.333333333 317 114 317 c 0
 132 317.666666667 151 326.666666667 171 344 c 2
 871 946 l 2
 903 972.666666667 937 992.666666667 973 1006 c 1
 968 1020 l 1
 930 1006 891 999 851 999 c 2
 259 999 l 2
 219 999 185.666666667 985.666666667 159 959 c 1
 139 980 l 1
 165 1006 178 1039.33333333 178 1080 c 2
 178 1251 l 2
 178 1291.66666667 165 1325 139 1351 c 1
 159 1372 l 1
 185.666666667 1345.33333333 219 1332 259 1332 c 2
 1636 1332 l 2
 1675.33333333 1332 1708.33333333 1345.33333333 1735 1372 c 1
 1756 1351 l 1
 1730 1325 1717 1291.66666667 1717 1251 c 2
 1717 1096 l 2
 1717 1049.61688315 1728.29858646 1030.35070677 1761 1014 c 1
 1746 981 l 1
 1730.66666667 987 1719 990 1711 990 c 0
 1695.66666667 990 1676.66666667 981 1654 963 c 2
 978 395 l 2
 949.333333333 371 915.333333333 351.666666667 876 337 c 1
 880 323 l 1
 918 337 956.666666667 344 996 344 c 2
 1606 344 l 2
 1647.33333333 344 1680.66666667 356.666666667 1706 382 c 1
 1725 362 l 1
 1699.66666667 336.666666667 1687 303.666666667 1687 263 c 2
 1687 -130 l 2
 1687 -193.088954567 1747 -517.017959819 1747 -580 c 0
 1747 -634.337794631 1729.73647568 -690 1684 -690 c 0
 1639.19764871 -690 1616 -636.792625969 1616 -586 c 0
EndSplineSet
EndChar

StartChar: braceleft
Encoding: 123 123 95
Width: 1090
GlyphClass: 2
Flags: HW
LayerCount: 2
Fore
SplineSet
1075 -397 m 1
 1004.02998921 -397 775.40211409 -407 708 -407 c 0
 574.781138885 -407 465.142822522 -391.115802045 391 -331 c 128
 259.580888415 -224.44396358 229 -13.5728722288 229 231 c 0
 229 332.60315058 219.76146844 416.428792946 162.5 445.5 c 128
 140.833333333 456.5 108.666666667 462 66 462 c 1
 65 666 l 1
 152.728825079 666 189.354688029 681.870537227 212.5 748 c 128
 224.166666667 781.333333333 230 830.666666667 230 896 c 0
 230 1183.34907015 267.949232888 1435.34878767 481 1505 c 128
 552.146021675 1528.25927632 614.680653381 1534 709 1534 c 0
 776.193336941 1534 1005.40922527 1525 1076 1525 c 1
 1074 1183 l 1
 954.594065679 1183 852.77320687 1174.27459626 807.5 1102.5 c 128
 775.760000214 1052.18048814 766 983.890926029 766 896 c 0
 766 737.192972857 727.073616159 646.285106004 619.5 599 c 128
 589.166666667 585.666666667 549.333333333 573.666666667 500 563 c 1
 598.689478997 541.617279551 683.68884111 517.714705381 726 442 c 128
 755.213905395 389.722485083 766 317.986055606 766 231 c 0
 766 70.5789744324 796.498504412 -20.8330563725 927 -45 c 128
 963 -51.6666666667 1011.66666667 -55 1073 -55 c 1
 1075 -397 l 1
EndSplineSet
EndChar

StartChar: bar
Encoding: 124 124 96
Width: 637
GlyphClass: 2
Flags: HW
LayerCount: 2
Fore
SplineSet
473 -1 m 1
 159 -1 l 1
 170.333333333 33.6666666667 178.333333333 90.6666666667 183 170 c 1
 183 1166 l 1
 177.666666667 1251.33333333 171.666666667 1306.66666667 165 1332 c 1
 480 1332 l 1
 467.333333333 1294 459 1238.66666667 455 1166 c 1
 455 170 l 1
 460.333333333 80.6666666667 466.333333333 23.6666666667 473 -1 c 1
EndSplineSet
EndChar

StartChar: braceright
Encoding: 125 125 97
Width: 1101
GlyphClass: 2
Flags: HW
LayerCount: 2
Fore
SplineSet
31 1525 m 1
 102.055557736 1525 329.464820267 1534 397 1534 c 0
 530.218861115 1534 639.857177478 1518.11580204 714 1458 c 128
 845.419111585 1351.44396358 876 1140.57287223 876 896 c 0
 876 786.694894408 883.56403384 696.43816594 963.5 674 c 128
 982.5 668.666666667 1008 666 1040 666 c 1
 1040 462 l 1
 952.54000433 462 916.529643802 445.263658243 894 379 c 128
 882.666666667 345.666666667 877 296.333333333 877 231 c 0
 877 -56.3490701534 839.050767112 -308.348787675 626 -378 c 128
 554.853978325 -401.259276317 492.319346619 -407 398 -407 c 0
 330.845473441 -407 101.619898219 -397 31 -397 c 1
 32 -55 l 1
 187.273642658 -55 294.188327356 -37.3481263253 325.5 82.5 c 128
 335.166666667 119.5 340 169 340 231 c 0
 340 357.708752143 360.450347579 449.938263152 434.5 500 c 128
 487.246401758 535.659539217 529.923493785 546.516756987 606 563 c 1
 478.868846297 590.487817017 385.220593772 630.280370748 354 751 c 128
 344 789.666666667 339 838 339 896 c 0
 339 1056.17400149 308.297719169 1148.87079275 178 1173 c 128
 142 1179.66666667 93.3333333333 1183 32 1183 c 1
 31 1525 l 1
EndSplineSet
EndChar

StartChar: asciitilde
Encoding: 126 126 98
Width: 1355
GlyphClass: 2
Flags: HW
LayerCount: 2
Fore
SplineSet
124 1180 m 0
 124 1411.68674477 208.969365147 1554 434 1554 c 0
 575.875154473 1554 686.324359362 1493.9612954 786.5 1456 c 128
 818.166666667 1444 842 1438 858 1438 c 0
 902.615299292 1438 912 1475.74685828 912 1528 c 1
 1259 1526 l 1
 1260.33333333 1492.66666667 1261 1468.66666667 1261 1454 c 0
 1261 1231.94414443 1199.52949666 1073 985 1073 c 0
 878.404905065 1073 750.824367748 1101.97108004 680.5 1134 c 128
 646.833333333 1149.33333333 614.666666667 1163.33333333 584 1176 c 128
 553.333333333 1188.66666667 531.333333333 1195 518 1195 c 0
 476.877365449 1195 474 1147.08828204 474 1094 c 1
 127 1097 l 1
 125 1116.33333333 124 1144 124 1180 c 0
EndSplineSet
EndChar

StartChar: exclamdown
Encoding: 161 161 99
Width: 710
GlyphClass: 2
Flags: HW
LayerCount: 2
Fore
SplineSet
340 871 m 2
 379 871 l 2
 418.333333333 871 451.333333333 884.333333333 478 911 c 1
 499 890 l 1
 467 858 454 824.666666667 460 790 c 2
 582 119 l 1
 595.638558741 78.0843237763 594.555339212 45.4446607875 620 20 c 1
 600 -1 l 1
 574 25 541 38 501 38 c 2
 210 38 l 2
 169.333333333 38 136 25 110 -1 c 1
 89 20 l 1
 115.74426651 46.7442665101 120.871728285 73.4816783982 129 119 c 2
 258 790 l 2
 264.666666667 824 251.666666667 857.333333333 219 890 c 1
 240 911 l 1
 266.666666667 884.333333333 300 871 340 871 c 2
284 1372 m 2
 428 1372 l 2
 486 1372 520.833333333 1369.5 532.5 1364.5 c 128
 544.166666667 1359.5 550 1342.66666667 550 1314 c 2
 550 1080 l 2
 550 1050.66666667 544.333333333 1033.66666667 533 1029 c 128
 521.666666667 1024.33333333 486.666666667 1022 428 1022 c 2
 284 1022 l 2
 225.333333333 1022 190.333333333 1024.33333333 179 1029 c 128
 167.666666667 1033.66666667 162 1050.66666667 162 1080 c 2
 162 1314 l 2
 162 1343.33333333 167.666666667 1360.33333333 179 1365 c 128
 190.333333333 1369.66666667 225.333333333 1372 284 1372 c 2
EndSplineSet
EndChar

StartChar: cent
Encoding: 162 162 100
Width: 1958
GlyphClass: 2
Flags: HW
LayerCount: 2
Fore
SplineSet
1076 350 m 1
 1147.11631163 364.587961359 1278 413.546056574 1278 487 c 0
 1278 498.333333333 1274.66666667 511.333333333 1268 526 c 1
 1300 544 l 1
 1316 513.333333333 1345 496.333333333 1387 493 c 0
 1506.11115292 484.492060505 1672.82013667 467 1799 467 c 0
 1831.66666667 467 1862.33333333 477.666666667 1891 499 c 1
 1908 477 l 1
 1884 459.666666667 1865.66666667 428 1853 382 c 0
 1795.77279125 171.403871803 1557.76258647 78.6681574667 1331 33.5 c 128
 1249 17.1666666667 1164 7.33333333333 1076 4 c 1
 1076 -275 l 1
 1044.66666667 -262.333333333 1013 -256 981 -256 c 128
 949 -256 917.333333333 -262.333333333 886 -275 c 1
 886 -4 l 1
 405.597738298 -4 82 209.555821488 82 679 c 0
 82 1147.20970188 443.196783425 1308.44663742 886 1332 c 1
 885 1557 l 1
 916.333333333 1544.33333333 948 1538 980 1538 c 128
 1012 1538 1043.66666667 1544.33333333 1075 1557 c 1
 1076 1333 l 1
 1523.33333333 1318.33333333 1774.33333333 1197.66666667 1829 971 c 1
 1837 931 1855 899.666666667 1883 877 c 1
 1866 855 l 1
 1837.33333333 875.666666667 1802.66666667 886 1762 886 c 1
 1377 861 l 1
 1332.33333333 856.333333333 1303.33333333 840 1290 812 c 1
 1257 828 l 1
 1264.33333333 844 1268 857 1268 867 c 0
 1268 916.333333333 1204 951 1076 971 c 1
 1076 350 l 1
886 982 m 1
 734.661344038 960.737544204 631 842.628919243 631 676 c 0
 631 492.433281814 730.958386516 379.033524911 886 345 c 1
 886 982 l 1
EndSplineSet
EndChar

StartChar: sterling
Encoding: 163 163 101
Width: 1949
GlyphClass: 2
Flags: HW
LayerCount: 2
Fore
SplineSet
1372 -263 m 1
 1381.19503695 -318.170221724 1405 -373.60471527 1405 -438 c 0
 1405 -469.333333333 1393.66666667 -485 1371 -485 c 0
 1349 -485 1338 -468.666666667 1338 -436 c 0
 1338 -382.249999573 1360.70052339 -308.197906434 1372 -263 c 1
110 134 m 0
 110 158.117312784 105 241.214734721 105 264 c 0
 105 306 92.3333333333 339.333333333 67 364 c 1
 87 384 l 1
 119.666666667 351.333333333 175.666666667 335 255 335 c 0
 277.666666667 335 299.333333333 325.333333333 320 306 c 1
 339 327 l 1
 313.666666667 352.333333333 301 385.333333333 301 426 c 2
 301 521 l 1
 231 521 l 2
 213.119986856 521 115.622940881 505 103 505 c 1
 103 739 l 1
 140.333333333 729.666666667 197.333333333 725 274 725 c 2
 302 725 l 1
 314.079482439 1004.84134316 433.550204381 1182.74458018 625 1282.5 c 128
 744.717727491 1344.87923696 880.552600721 1375 1056 1375 c 0
 1323.9849324 1375 1535.12260477 1306.44657353 1674 1183 c 128
 1745.61258964 1119.34436477 1796.08296615 1050.21585935 1819 952 c 1
 1831 912 1852.33333333 881.333333333 1883 860 c 1
 1868 839 l 1
 1832 859.666666667 1796.33333333 870 1761 870 c 2
 1371 866 l 1
 1328.33333333 864 1299.66666667 848 1285 818 c 1
 1252 834 l 1
 1257.33333333 842 1260 854 1260 870 c 0
 1260 972.462727479 1166.58314565 1033 1064 1033 c 128
 953.364005849 1033 883.041740564 962.071029902 852 879.5 c 128
 835.333333333 835.166666667 825.333333333 783.666666667 822 725 c 1
 953 725 l 2
 1030.33333333 725 1086 729.666666667 1120 739 c 1
 1120 505 l 1
 1105.31523247 505 1016.06672092 521 996 521 c 2
 821 521 l 1
 821 426 l 2
 821 386 808 353 782 327 c 1
 802 306 l 1
 836 340 910.333333333 357 1025 357 c 0
 1113.74673351 357 1483.2026945 333 1572 333 c 0
 1686 333 1760 350 1794 384 c 1
 1815 364 l 1
 1789 338.666666667 1776 305.333333333 1776 264 c 0
 1776 241.306013058 1771 157.987461119 1771 134 c 0
 1771 61.3333333333 1785.66666667 10.3333333333 1815 -19 c 1
 1794 -39 l 1
 1768.66666667 -13 1735.66666667 0 1695 0 c 2
 1403 0 l 1
 1403.66666667 -9.33333333333 1404 -21.6666666667 1404 -37 c 0
 1404 -74.3333333333 1394.66666667 -93 1376 -93 c 128
 1357.33333333 -93 1348 -72 1348 -30 c 0
 1348 -17.3333333333 1348.33333333 -7.33333333333 1349 0 c 1
 187 0 l 2
 145.666666667 0 112.333333333 -13 87 -39 c 1
 67 -19 l 1
 95.6666666667 9.66666666667 110 60.6666666667 110 134 c 0
EndSplineSet
EndChar

StartChar: currency
Encoding: 164 164 102
Width: 1252
GlyphClass: 2
Flags: HW
LayerCount: 2
Fore
SplineSet
626 1072 m 128
 481.151519565 1072 394 962.084267098 394 819 c 128
 394 675.914017419 481.150589299 566 626 566 c 128
 770.848480435 566 858 675.915732902 858 819 c 128
 858 962.085982581 770.849410701 1072 626 1072 c 128
265 819 m 0
 265 901.666666667 286.333333333 975.333333333 329 1040 c 1
 239 1129 l 1
 185.666666667 1178.33333333 140 1212.66666667 102 1232 c 1
 204 1336 l 1
 218.666666667 1309.33333333 255 1264.66666667 313 1202 c 1
 399 1115 l 1
 461.666666667 1163.66666667 537.333333333 1188 626 1188 c 0
 714 1188 789.666666667 1163.33333333 853 1114 c 1
 944 1205 l 1
 1004 1274.33333333 1039 1318 1049 1336 c 1
 1152 1232 l 1
 1118 1213.33333333 1073.33333333 1179.66666667 1018 1131 c 1
 923 1038 l 1
 965.666666667 972.666666667 987 899.666666667 987 819 c 0
 987 733 965 658.333333333 921 595 c 1
 1018 499 l 1
 1073.33333333 450.333333333 1118 416.666666667 1152 398 c 1
 1049 294 l 1
 1039 312 1004 355.666666667 944 425 c 1
 849 519 l 1
 788.333333333 473 714 450 626 450 c 0
 537.333333333 450 463.333333333 472.666666667 404 518 c 1
 313 428 l 1
 255 365.333333333 218.666666667 320.666666667 204 294 c 1
 102 398 l 1
 140 417.333333333 185.666666667 451.666666667 239 501 c 1
 331 594 l 1
 287 657.333333333 265 732.333333333 265 819 c 0
EndSplineSet
EndChar

StartChar: yen
Encoding: 165 165 103
Width: 1743
GlyphClass: 2
Flags: HW
LayerCount: 2
Fore
SplineSet
630 129 m 0
 630 154.359442091 623 243.612196431 623 268 c 2
 623 288 l 1
 271 288 l 2
 242.333333333 288 219.666666667 286.666666667 203 284 c 1
 203 462 l 1
 225.666666667 456.666666667 256 454 294 454 c 2
 577 454 l 1
 522 543 l 1
 271 543 l 2
 242.333333333 543 219.666666667 541.666666667 203 539 c 1
 203 716 l 1
 222.333333333 711.333333333 252.666666667 709 294 709 c 2
 419 709 l 1
 72 1270 l 2
 52.6666666667 1302 24.6666666667 1328.66666667 -12 1350 c 1
 -2 1367 l 1
 31.3333333333 1348.33333333 68.3333333333 1339 109 1339 c 2
 488 1341 l 2
 529.333333333 1341 558.333333333 1355.33333333 575 1384 c 1
 605 1367 l 1
 597 1352.33333333 593 1338.33333333 593 1325 c 0
 593 1302.33333333 606.5 1267.83333333 633.5 1221.5 c 128
 689.238048167 1125.85075685 758.857668648 1039.38523075 811.5 938 c 128
 838.5 886 852 843.333333333 852 810 c 2
 852 802 l 1
 873 802 l 1
 873 898.215835343 955.305172745 1019.76742143 1002 1083 c 128
 1034 1126.33333333 1063.5 1171 1090.5 1217 c 128
 1117.5 1263 1131 1299 1131 1325 c 0
 1131 1337 1126.66666667 1351 1118 1367 c 1
 1149 1384 l 1
 1165.66666667 1355.33333333 1194.33333333 1341 1235 1341 c 2
 1639 1339 l 2
 1679.66666667 1339 1716.66666667 1348.33333333 1750 1367 c 1
 1759 1350 l 1
 1724.33333333 1329.33333333 1697 1302.66666667 1677 1270 c 2
 1333 709 l 1
 1469 709 l 2
 1509 709 1538.66666667 711.333333333 1558 716 c 1
 1558 539 l 1
 1541.33333333 541.666666667 1519.33333333 543 1492 543 c 2
 1232 543 l 1
 1177 454 l 1
 1469 454 l 2
 1505.66666667 454 1535.33333333 456.666666667 1558 462 c 1
 1558 284 l 1
 1541.33333333 286.666666667 1519.33333333 288 1492 288 c 2
 1128 288 l 1
 1127 -114 l 2
 1127 -166.461980726 1169 -329.583376893 1169 -382 c 0
 1169 -427.333333333 1152 -450 1118 -450 c 128
 1084 -450 1067 -427.333333333 1067 -382 c 0
 1067 -333.643630615 1107 -173.310471795 1107 -125 c 0
 1107 -123 1107 -123 1107 -119 c 0
 1107.66666667 -33 1093.33333333 10 1064 10 c 0
 1036.66666667 10 1023 -46 1023 -158 c 0
 1023 -196.23205589 1034 -316.01151576 1034 -354 c 0
 1034 -379.333333333 1026.33333333 -392 1011 -392 c 0
 997.666666667 -392 991 -380.333333333 991 -357 c 0
 991 -321.457671604 1005 -206.737368558 1005 -171 c 0
 1005 -50.3333333333 984 10 942 10 c 2
 707 10 l 2
 667 10 634 -3 608 -29 c 1
 587 -9 l 1
 615.666666667 19.6666666667 630 65.6666666667 630 129 c 0
EndSplineSet
EndChar

StartChar: brokenbar
Encoding: 166 166 104
Width: 735
GlyphClass: 2
Flags: HW
LayerCount: 2
Fore
SplineSet
472 1535 m 2
 504.82742581 1535 538.637446323 1544 563 1544 c 0
 565 1544 566 1543.66666667 566 1543 c 128
 566 1532.15892782 559.559178593 1517.98772039 557 1500.5 c 128
 555 1486.83333333 554 1471.33333333 554 1454 c 2
 554 931 l 2
 554 903.149092647 557.312880149 873.957066169 563 855 c 128
 565 848.333333333 566 844.666666667 566 844 c 0
 566 842.666666667 565 842 563 842 c 0
 538.972669887 842 504.455802536 850 472 850 c 2
 263 850 l 2
 226.675454467 850 197.178010035 840.589005018 176 830 c 0
 175.333333333 830 175 830.666666667 175 832 c 0
 175 858.882284017 182 895.837196027 182 931 c 2
 182 1454 l 2
 182 1482.3126549 177.792808281 1511.62157516 171.5 1530.5 c 128
 169.166666667 1537.5 168 1541.33333333 168 1542 c 0
 168 1543.33333333 169.333333333 1544 172 1544 c 0
 196.226612351 1544 230.279505956 1535 263 1535 c 2
 472 1535 l 2
472 -49 m 2
 263 -49 l 2
 235.245666908 -49 204.757725482 -51.2258680942 184 -55 c 128
 176.666666667 -56.3333333333 172.666666667 -57 172 -57 c 0
 169.333333333 -57 168 -56 168 -54 c 0
 168 -44.0305545938 175.570094661 -29.8237583187 178.5 -13.5 c 128
 180.833333333 -0.5 182 14.6666666667 182 32 c 2
 182 556 l 2
 182 584.312654905 177.792808281 613.621575158 171.5 632.5 c 128
 169.166666667 639.5 168 643.333333333 168 644 c 128
 168 644.666666667 169.333333333 645 172 645 c 0
 196.027330113 645 230.544197464 637 263 637 c 2
 472 637 l 2
 499.754333092 637 530.242274518 639.225868094 551 643 c 128
 558.333333333 644.333333333 562.333333333 645 563 645 c 0
 565 645 566 644.666666667 566 644 c 128
 566 633.38769374 559.566213532 620.035792471 557 602.5 c 128
 555 588.833333333 554 573.333333333 554 556 c 2
 554 32 l 2
 554 4.56649553786 556.13444176 -26.2058192412 560 -46.5 c 128
 561.333333333 -53.5 562 -57.3333333333 562 -58 c 0
 562 -60 561 -61 559 -61 c 0
 548.553023354 -61 535.064047661 -54.5596071492 518 -52 c 128
 504.666666667 -50 489.333333333 -49 472 -49 c 2
EndSplineSet
EndChar

StartChar: section
Encoding: 167 167 105
Width: 1493
GlyphClass: 2
Flags: HW
LayerCount: 2
Fore
SplineSet
606 668 m 0
 606 633.400740507 692.667797136 628.506898955 744 622 c 1
 773 622 l 2
 847.666666667 622 885 640.333333333 885 677 c 0
 885 712.87788539 765.153945836 724 718 724 c 0
 672.042758288 724 606 713.899486863 606 668 c 0
881 1051 m 0
 881 1118.03445085 795.925935907 1156 725 1156 c 0
 623.666666667 1156 573 1120.33333333 573 1049 c 0
 573 1006.58648683 675.173944375 992.638840237 727.5 985 c 128
 888.326504121 961.52167823 1066.09034672 940.306135647 1196.5 887 c 128
 1275.04406341 854.89439744 1351 790.283012007 1351 687 c 0
 1351 612.333333333 1321 550 1261 500 c 1
 1325.66666667 443.333333333 1358 367 1358 271 c 0
 1358 1.17384667008 1064.26392966 -17 796 -17 c 0
 700.523298641 -17 608.538475857 -19.3208815754 525 -5 c 128
 476.894755028 3.24661342374 405.305335923 17.8473320384 367 37 c 128
 293.418782149 73.7906089256 236.301188674 121.514091206 201 198 c 1
 184.333333333 230 161 255.333333333 131 274 c 1
 141 291 l 1
 167.666666667 275 201.333333333 267 242 267 c 1
 508 277 l 2
 549.039354396 279.4872336 569.285872842 284.286705262 575 320 c 1
 614 312 l 1
 611.333333333 306.666666667 610 300.666666667 610 294 c 0
 610 220.482141626 690.233964216 174 766 174 c 0
 866.666666667 174 917 198.333333333 917 247 c 0
 917 294.108322502 816.854049539 310.374867596 762.5 319.5 c 128
 546.410047315 355.777875268 291.265591578 376.967341593 183 523 c 128
 154.333333333 561.666666667 140 607 140 659 c 0
 140 733.666666667 170 795.666666667 230 845 c 1
 165.333333333 889.666666667 133 950 133 1026 c 0
 133 1315.56414623 405.707836714 1346 695 1346 c 0
 844.866298965 1346 975.055856916 1341.01422834 1090.5 1306.5 c 128
 1182.09006869 1279.11740214 1248.41895087 1226.22966735 1289 1147 c 0
 1304.33333333 1117.66666667 1328 1092.66666667 1360 1072 c 1
 1350 1055 l 1
 1324 1070.33333333 1290.33333333 1078 1249 1078 c 1
 983 1068 l 2
 942.601882212 1065.55162922 920.776949904 1060.66169942 915 1026 c 1
 876 1033 l 1
 879.333333333 1041 881 1047 881 1051 c 0
EndSplineSet
EndChar

StartChar: dieresis
Encoding: 168 168 106
Width: 1297
GlyphClass: 2
Flags: HW
LayerCount: 2
Fore
SplineSet
1053 1069 m 2
 941 1069 l 2
 882.333333333 1069 847.333333333 1071.33333333 836 1076 c 128
 824.666666667 1080.66666667 819 1097.66666667 819 1127 c 2
 819 1320 l 2
 819 1349.33333333 824.666666667 1366.33333333 836 1371 c 128
 847.333333333 1375.66666667 882.333333333 1378 941 1378 c 2
 1053 1378 l 2
 1111.66666667 1378 1146.66666667 1375.66666667 1158 1371 c 128
 1169.33333333 1366.33333333 1175 1349.33333333 1175 1320 c 2
 1175 1127 l 2
 1175 1097.66666667 1169.33333333 1080.66666667 1158 1076 c 128
 1146.66666667 1071.33333333 1111.66666667 1069 1053 1069 c 2
365 1069 m 2
 255 1069 l 2
 196.333333333 1069 161.166666667 1071.33333333 149.5 1076 c 128
 137.833333333 1080.66666667 132 1097.66666667 132 1127 c 2
 132 1320 l 2
 132 1349.33333333 137.833333333 1366.33333333 149.5 1371 c 128
 161.166666667 1375.66666667 196.333333333 1378 255 1378 c 2
 365 1378 l 2
 423.666666667 1378 458.833333333 1375.66666667 470.5 1371 c 128
 482.166666667 1366.33333333 488 1349.33333333 488 1320 c 2
 488 1127 l 2
 488 1097.66666667 482.166666667 1080.66666667 470.5 1076 c 128
 458.833333333 1071.33333333 423.666666667 1069 365 1069 c 2
EndSplineSet
EndChar

StartChar: copyright
Encoding: 169 169 107
Width: 2076
GlyphClass: 2
Flags: HW
LayerCount: 2
Fore
SplineSet
793 -765 m 0
 793 -676.695576187 810.782632816 -374.998335674 812 -291 c 1
 757.383220303 -282.90862523 690.668140447 -256.889380149 643 -241 c 1
 347.30392594 -105.075191763 92 200.758716144 92 612 c 0
 92 969.893929818 270.150119361 1219.26296519 479.5 1376.5 c 128
 617.88909775 1480.44030947 811.638651782 1560 1040 1560 c 128
 1397.89392982 1560 1647.26296519 1381.84988064 1804.5 1172.5 c 128
 1908.44030947 1034.11090225 1988 840.361348218 1988 612 c 0
 1988 205.710709418 1738.8779578 -105.099411093 1450 -243 c 1
 1424.49438603 -249.072765232 1300.2816092 -288.424748563 1271 -293 c 1
 1271 -396.116498164 1319 -736.21810768 1319 -839 c 0
 1319 -876.582119358 1299.74918113 -915 1262 -915 c 128
 1224.27220013 -915 1204 -876.581756917 1204 -839 c 0
 1204 -754.503795995 1237 -469.633824936 1237 -385 c 0
 1237 -303.479169374 1206.72028463 -293 1124 -293 c 0
 1118 -293 1118 -293 1115 -293 c 0
 1081.66444235 -293 992 -298.423737151 992 -330 c 0
 992 -382.039535363 1016 -550.007982142 1016 -602 c 0
 1016 -646 1003.33333333 -668 978 -668 c 0
 950.518771333 -668 940 -632.466758135 940 -605 c 0
 940 -551.732742644 967 -381.219199879 967 -328 c 0
 967 -310.822980662 958.333333333 -296 941 -296 c 0
 915.815499016 -296 855 -303.357152713 855 -328 c 0
 855 -408.791966958 866 -679.285788959 866 -760 c 0
 866 -781.795289308 849.664410988 -805 828 -805 c 128
 806.744823664 -805 793 -786.12418116 793 -765 c 0
204 612 m 0
 204 360.755450326 315.307550614 152.692449386 448 20 c 128
 580.47092167 -112.47092167 789.476615155 -224 1040 -224 c 0
 1291.24222133 -224 1500.33428256 -112.665717442 1633 20 c 128
 1765.77167682 152.771676824 1878 360.65223327 1878 612 c 0
 1878 862.44679369 1765.16799671 1071.74196759 1633 1204.5 c 128
 1500.33695284 1337.7552929 1291.61081833 1450 1040 1450 c 0
 702.983489859 1450 447.3209667 1258.29416583 316 1032 c 128
 241.333333333 903.333333333 204 763.333333333 204 612 c 0
759 626 m 0
 759 446.415452616 861.689385163 328 1041 328 c 0
 1115.30445875 328 1188.51622727 368.534322064 1231 410.5 c 128
 1258.33333333 437.5 1272 465.666666667 1272 495 c 0
 1272 502.333333333 1269.33333333 512.666666667 1264 526 c 1
 1290 539 l 1
 1300.66666667 516.333333333 1323.66666667 503.333333333 1359 500 c 1
 1453.37690263 494.101443586 1586.29591605 480 1686 480 c 0
 1712.66666667 480 1736.66666667 488 1758 504 c 1
 1771 487 l 1
 1750.33333333 471.666666667 1735.66666667 446.333333333 1727 411 c 0
 1665.41371384 158.172088395 1372.58016388 71.8807615681 1066 68 c 1
 626.993011939 68 325 187.663484474 325 628 c 0
 325 1038.85175852 639.761517204 1179 1049 1179 c 0
 1443 1179 1663 1066.33333333 1709 841 c 0
 1715.66666667 807 1729.66666667 781.666666667 1751 765 c 1
 1738 748 l 1
 1716 764 1691 772 1663 772 c 2
 1655 772 l 1
 1350 753 l 1
 1314 749.666666667 1291 736.666666667 1281 714 c 1
 1255 726 l 1
 1261 741.333333333 1264 752 1264 758 c 0
 1264 851.378909903 1165.23115031 882.959548696 1085 897 c 128
 1058.33333333 901.666666667 1032.66666667 904 1008 904 c 0
 851.410605119 904 759 782.50175844 759 626 c 0
EndSplineSet
EndChar

StartChar: ordfeminine
Encoding: 170 170 108
Width: 1742
GlyphClass: 2
Flags: HW
LayerCount: 2
Fore
SplineSet
922 450 m 0
 704.666666667 450 596 405 596 315 c 0
 596 243 658.333333333 207 783 207 c 0
 917.950942931 207 1029.74491503 249.308394594 1071 346 c 0
 1090.33333333 392.666666667 1118 427.666666667 1154 451 c 1
 1137 476 l 1
 1102.33333333 454 1059.33333333 444.333333333 1008 447 c 0
 982.666666667 449 954 450 922 450 c 0
849 635 m 0
 951.792939626 635 1066.50252245 635.373108164 1127 590 c 1
 1141 608 l 1
 1109.66666667 630.666666667 1086.33333333 662.666666667 1071 704 c 0
 1046.00071668 773.9979933 960.601898341 776 848 776 c 0
 710.666666667 776 578 759 450 725 c 0
 409.632956571 714.235455086 388.818432936 698.372517207 374 662 c 1
 345 675 l 1
 368.674060096 738.54616131 332.152315791 779.072399519 304 824.5 c 128
 269.0731236 880.859277827 246.066609818 927.666688532 188 950 c 1
 197 973 l 1
 235 958.333333333 272 956.666666667 308 968 c 1
 441.322328714 1006.09209392 692.349655574 1037 861 1037 c 0
 1000.33333333 1037 1105 1031.33333333 1175 1020 c 0
 1426.33333333 979.333333333 1552 858.333333333 1552 657 c 2
 1552 323 l 2
 1552 265.802042636 1588.46896087 214.472491606 1654 248 c 1
 1667 223 l 1
 1637.05743392 208.028716959 1623 193.752603465 1623 154 c 2
 1623 81 l 2
 1623 41 1636.33333333 7.66666666667 1663 -19 c 1
 1642 -39 l 1
 1616 -13 1582.66666667 0 1542 0 c 2
 1372 0 l 130
 1322.15870259 0 1260.82146885 2.07438798016 1225 17 c 128
 1155.89067184 45.7955533986 1092.74933139 96.0927790129 1102 196 c 1
 1082 198 l 1
 1078.66666667 162 1066 132.666666667 1044 110 c 0
 947.2752222 5.83485467691 808.275645413 -33 596 -33 c 0
 378.4671433 -33 196.662548351 25.0081079339 122 172 c 128
 100.666666667 214 90 262.333333333 90 317 c 0
 90 529 343 635 849 635 c 0
EndSplineSet
EndChar

StartChar: logicalnot
Encoding: 172 172 110
Width: 1119
GlyphClass: 2
Flags: HW
LayerCount: 2
Fore
SplineSet
833 870 m 0
 857.987415972 870 929.030351721 871 956 871 c 1
 956 345 l 2
 956 299.666666667 958.333333333 256.666666667 963 216 c 1
 794 216 l 1
 802.666666667 250.666666667 807 307.666666667 807 387 c 2
 807 559 l 1
 264 559 l 2
 214 559 171.333333333 557 136 553 c 1
 136 884 l 1
 170.666666667 875.333333333 281.666666667 871 469 871 c 0
 578.524215114 871 745.45369473 870 833 870 c 0
EndSplineSet
EndChar

StartChar: uni00AD
Encoding: 173 173 111
Width: 1127
GlyphClass: 2
Flags: HW
LayerCount: 2
Fore
SplineSet
858 559 m 2
 290 559 l 2
 239.333333333 559 196.333333333 557 161 553 c 1
 161 884 l 1
 195.666666667 875.333333333 252.666666667 871 332 871 c 2
 815 871 l 2
 891 871 946.333333333 875.333333333 981 884 c 1
 981 553 l 1
 946.333333333 557 905.333333333 559 858 559 c 2
EndSplineSet
EndChar

StartChar: registered
Encoding: 174 174 112
Width: 2076
GlyphClass: 2
Flags: HW
LayerCount: 2
Fore
SplineSet
793 -765 m 0
 793 -676.695576187 810.782632816 -374.998335674 812 -291 c 1
 757.383220303 -282.90862523 690.668140447 -256.889380149 643 -241 c 1
 347.30392594 -105.075191763 92 200.758716144 92 612 c 0
 92 969.893929818 270.150119361 1219.26296519 479.5 1376.5 c 128
 617.88909775 1480.44030947 811.638651782 1560 1040 1560 c 128
 1397.89392982 1560 1647.26296519 1381.84988064 1804.5 1172.5 c 128
 1908.44030947 1034.11090225 1988 840.361348218 1988 612 c 0
 1988 205.710709418 1738.8779578 -105.099411093 1450 -243 c 1
 1424.49438603 -249.072765232 1300.2816092 -288.424748563 1271 -293 c 1
 1271 -396.116498164 1319 -736.21810768 1319 -839 c 0
 1319 -876.582119358 1299.74918113 -915 1262 -915 c 128
 1224.27220013 -915 1204 -876.581756917 1204 -839 c 0
 1204 -754.503795995 1237 -469.633824936 1237 -385 c 0
 1237 -303.479169374 1206.72028463 -293 1124 -293 c 0
 1118 -293 1118 -293 1115 -293 c 0
 1081.66444235 -293 992 -298.423737151 992 -330 c 0
 992 -382.039535363 1016 -550.007982142 1016 -602 c 0
 1016 -646 1003.33333333 -668 978 -668 c 0
 950.518771333 -668 940 -632.466758135 940 -605 c 0
 940 -551.732742644 967 -381.219199879 967 -328 c 0
 967 -310.822980662 958.333333333 -296 941 -296 c 0
 915.815499016 -296 855 -303.357152713 855 -328 c 0
 855 -408.791966958 866 -679.285788959 866 -760 c 0
 866 -781.795289308 849.664410988 -805 828 -805 c 128
 806.744823664 -805 793 -786.12418116 793 -765 c 0
204 612 m 0
 204 360.755450326 315.307550614 152.692449386 448 20 c 128
 580.47092167 -112.47092167 789.476615155 -224 1040 -224 c 0
 1291.24222133 -224 1500.33428256 -112.665717442 1633 20 c 128
 1765.77167682 152.771676824 1878 360.65223327 1878 612 c 0
 1878 862.44679369 1765.16799671 1071.74196759 1633 1204.5 c 128
 1500.33695284 1337.7552929 1291.61081833 1450 1040 1450 c 0
 702.983489859 1450 447.3209667 1258.29416583 316 1032 c 128
 241.333333333 903.333333333 204 763.333333333 204 612 c 0
1139 888 m 0
 1111.25098639 888 1004.56453228 884 977 884 c 0
 911 884 868 894 848 914 c 1
 835 900 l 1
 852.333333333 882.666666667 861 860 861 832 c 2
 861 786 l 2
 861 758 852.333333333 735 835 717 c 1
 848 704 l 1
 867.333333333 724 908 734 970 734 c 0
 999.922313411 734 1112.94561082 728 1143 728 c 0
 1221.18978079 728 1288 740.398359362 1288 813 c 0
 1288 880.945359605 1215.23858085 888 1139 888 c 0
1645 839 m 0
 1645 677.88215465 1574.57760968 579 1412 579 c 1
 1406 563 l 1
 1434.66666667 551.666666667 1454 535.666666667 1464 515 c 0
 1487.83222748 463.129857827 1549.78604467 351.771923897 1579 302 c 1
 1607.25571383 255.922380497 1632.06290548 206.396238815 1658 158 c 1
 1240 158 l 1
 1187.33333333 292.666666667 1134.66666667 416 1082 528 c 1
 838 528 l 1
 838 158 l 1
 508 158 l 1
 507.333333333 210 507 510.333333333 507 1059 c 0
 507 1087 498 1109.66666667 480 1127 c 1
 495 1141 l 1
 513 1123 535.333333333 1114 562 1114 c 2
 1173 1114 l 2
 1422.97208855 1114 1645 1088.53470884 1645 839 c 0
EndSplineSet
EndChar

StartChar: macron
Encoding: 175 175 113
Width: 1127
GlyphClass: 2
Flags: HW
LayerCount: 2
Fore
SplineSet
858 559 m 2
 290 559 l 2
 239.333333333 559 196.333333333 557 161 553 c 1
 161 884 l 1
 195.666666667 875.333333333 252.666666667 871 332 871 c 2
 815 871 l 2
 891 871 946.333333333 875.333333333 981 884 c 1
 981 553 l 1
 946.333333333 557 905.333333333 559 858 559 c 2
EndSplineSet
EndChar

StartChar: degree
Encoding: 176 176 114
Width: 920
GlyphClass: 2
Flags: HW
LayerCount: 2
Fore
SplineSet
103 1734 m 128
 103 1840.1686145 141.190919101 1924.37485378 192 1987 c 128
 246.913614624 2054.68422268 343.30931193 2103 464 2103 c 128
 645.721893674 2103 754.659856299 2003.77507861 801.5 1869.5 c 128
 816.5 1826.5 824 1781.33333333 824 1734 c 0
 824 1554.56898846 729.408651762 1432.61481827 594.5 1385 c 128
 554.833333333 1371 511.333333333 1364 464 1364 c 0
 281.615310144 1364 173.547967165 1463.62531019 126 1598 c 128
 110.666666667 1641.33333333 103 1686.66666667 103 1734 c 128
464 1987 m 128
 319.151519565 1987 232 1877.0842671 232 1734 c 128
 232 1590.91401742 319.150589299 1481 464 1481 c 128
 609.177607482 1481 695 1590.55837744 695 1734 c 128
 695 1877.44281603 609.180694535 1987 464 1987 c 128
EndSplineSet
EndChar

StartChar: plusminus
Encoding: 177 177 115
Width: 1104
GlyphClass: 2
Flags: HW
LayerCount: 2
Fore
SplineSet
841 -3 m 2
 273 -3 l 2
 221.666666667 -3 178.666666667 -5 144 -9 c 1
 144 160 l 1
 176 152 232.666666667 148 314 148 c 2
 798 148 l 2
 876.666666667 148 932 152 964 160 c 1
 964 -9 l 1
 929.333333333 -5 888.333333333 -3 841 -3 c 2
717 1029 m 2
 717 871 l 1
 827 871 l 2
 903 871 958.333333333 875.333333333 993 884 c 1
 993 553 l 1
 957.666666667 557 916.333333333 559 869 559 c 2
 717 559 l 1
 717 412 l 2
 717 361.333333333 719 318.666666667 723 284 c 1
 392 284 l 1
 400.666666667 318.666666667 405 375.333333333 405 454 c 2
 405 559 l 1
 253 559 l 2
 201.666666667 559 158.666666667 557 124 553 c 1
 124 884 l 1
 158.666666667 875.333333333 215.666666667 871 295 871 c 2
 405 871 l 1
 405 986 l 2
 405 1062.66666667 400.666666667 1118.33333333 392 1153 c 1
 723 1153 l 1
 719 1118.33333333 717 1077 717 1029 c 2
EndSplineSet
EndChar

StartChar: acute
Encoding: 180 180 116
Width: 880
GlyphClass: 2
Flags: HW
LayerCount: 2
Fore
SplineSet
803 1225 m 0
 803 1213.43821413 737.245614875 1210.88516769 723 1207 c 2
 262 1095 l 2
 235.354171547 1088.09182225 205.836245088 1079.41812254 187 1070 c 128
 181.666666667 1067.33333333 178.666666667 1066 178 1066 c 0
 168.666666667 1096.66666667 155.333333333 1129.33333333 138 1164 c 1
 124.553519979 1188.01157147 107.878133265 1216.3820223 93 1232.5 c 128
 89 1236.83333333 87 1239.33333333 87 1240 c 0
 87 1243.10402122 111.300648029 1248.46070624 123.5 1253 c 128
 137.833333333 1258.33333333 153.333333333 1266 170 1276 c 2
 599 1526 l 2
 622.175039174 1539.51877285 651.078810419 1559.07881042 666.5 1574.5 c 128
 670.833333333 1578.83333333 673.333333333 1581 674 1581 c 128
 675.594451723 1581 679.356035346 1554.16223741 682 1542 c 128
 685.333333333 1526.66666667 690.666666667 1510 698 1492 c 2
 773 1300 l 2
 793 1250.66666667 803 1225.66666667 803 1225 c 0
EndSplineSet
EndChar

